<?xml version="1.0" encoding="utf-8"?>
<!-- Generator: Adobe Illustrator 20.1.0, SVG Export Plug-In . SVG Version: 6.00 Build 0)  -->
<svg version="1.1" xmlns="http://www.w3.org/2000/svg" xmlns:xlink="http://www.w3.org/1999/xlink" x="0px" y="0px"
	 viewBox="0 0 481.2 125.1" style="enable-background:new 0 0 481.2 125.1;" xml:space="preserve">
<style type="text/css">
	.st0{fill:#1D1D1B;}
	.st1{fill:#099ACF;}
	.st2{fill:#010101;}
	.st3{fill:#231F20;}
	.st4{fill:#F5CE00;}
	.st5{fill:#ED1C24;}
</style>
<g id="Ebene_4">
	<g>
		<g id="Ebene_2_1_">
			<g>
				<g>
					<path class="st0" d="M195.4,98.4h2c1.6,0,2.9,0.8,2.9,2.4c0,1.7-1.4,2.4-3,2.4h-0.8v2.9h-1.1L195.4,98.4z M196.5,102.3l0.8,0
						c0.7,0,1.9-0.3,1.9-1.5c0-1.2-1.2-1.5-1.8-1.5l-1,0V102.3z"/>
					<path class="st0" d="M201.2,102.1c0-0.5,0-0.9-0.1-1.4h1l0.1,1.4h0.1c0.2-0.7,0.8-1.5,1.6-1.5c0.3,0,0.5,0.1,0.7,0.2v0.9
						c-0.2-0.1-0.4-0.1-0.6-0.1c-1,0-1.6,1-1.7,2.1v2.4h-1V102.1z"/>
					<path class="st0" d="M207.5,100.6c1.8,0,2.6,1.6,2.6,2.8c0,1.4-0.9,2.9-2.6,2.9s-2.7-1.4-2.7-2.9
						C204.8,102.2,205.6,100.6,207.5,100.6z M207.5,105.5c0.8,0,1.6-0.7,1.6-2.1c0-1.4-0.7-2.1-1.6-2.1c-0.7,0-1.6,0.4-1.6,2.1
						C205.8,104.5,206.3,105.5,207.5,105.5z"/>
					<path class="st0" d="M210.6,100.7h0.9l0.2-1.6h0.8v1.6h1.5v0.8h-1.5v3c0,0.5,0.2,0.8,0.7,0.8c0.3,0,0.6-0.1,0.8-0.2v0.8
						c-0.2,0.1-0.5,0.3-0.9,0.3c-1,0-1.6-0.6-1.6-1.7v-3h-0.9V100.7z"/>
					<path class="st0" d="M217.2,100.6c1.8,0,2.6,1.6,2.6,2.8c0,1.4-0.9,2.9-2.6,2.9s-2.7-1.4-2.7-2.9
						C214.5,102.2,215.3,100.6,217.2,100.6z M217.2,105.5c0.8,0,1.6-0.7,1.6-2.1c0-1.4-0.7-2.1-1.6-2.1c-0.7,0-1.6,0.4-1.6,2.1
						C215.6,104.5,216.1,105.5,217.2,105.5z"/>
					<path class="st0" d="M220.3,100.7h0.9l0.2-1.6h0.8v1.6h1.5v0.8h-1.5v3c0,0.5,0.2,0.8,0.7,0.8c0.3,0,0.6-0.1,0.8-0.2v0.8
						c-0.2,0.1-0.5,0.3-0.9,0.3c-1,0-1.6-0.6-1.6-1.7v-3h-0.9V100.7z"/>
					<path class="st0" d="M227,107.2c-0.3,0.8-0.9,1.1-1.5,1.1c-0.2,0-0.5,0-0.7-0.1v-0.9c0.2,0.1,0.4,0.1,0.6,0.1
						c0.3,0,0.6-0.1,0.7-0.4c0.1-0.2,0.3-0.7,0.3-0.9c0.1-0.2-0.1-0.4-0.3-0.4l-1.9-5h1.1l1.5,4.3h0.1l1.3-4.3h1.1
						C227.4,106.1,227.2,106.5,227,107.2z"/>
					<path class="st0" d="M230.9,108.2h-1v-6.6c0-0.2,0-0.6,0-0.8h0.9c0,0.2,0,0.6,0,0.8h0.1c0.4-0.6,0.9-0.9,1.6-0.9
						c1.5,0,2.3,1.3,2.3,2.8c0,1.6-0.8,2.8-2.2,2.8c-1,0-1.4-0.6-1.6-0.9h-0.1c0,0,0,0.4,0,0.7L230.9,108.2z M232.2,101.4
						c-0.7,0-1.3,0.8-1.4,1.3v1.3c0,0.6,0.6,1.4,1.4,1.4c1,0,1.4-0.9,1.4-2C233.7,102.2,233.2,101.4,232.2,101.4z"/>
					<path class="st0" d="M236.2,103.6c0,1.1,0.6,1.9,1.6,1.9c0.7,0,1.2-0.4,1.3-1h1c-0.1,0.9-0.9,1.8-2.3,1.8
						c-1.5,0-2.5-1.1-2.5-2.9c0-1.5,0.9-2.8,2.5-2.8c2,0,2.5,1.7,2.4,3L236.2,103.6L236.2,103.6z M239,102.8c0-0.5-0.3-1.5-1.4-1.5
						c-0.7,0-1.3,0.5-1.4,1.5L239,102.8z"/>
				</g>
				<g>
					<path class="st0" d="M195.4,108.5h4.3v0.9h-3.2v2.6h3v0.9h-3v3.4h-1.1L195.4,108.5z"/>
					<path class="st0" d="M205.2,110.8v4.5c0,0.3,0,0.6,0.1,0.9h-1c0-0.2,0-0.6,0-0.9h-0.1c-0.1,0.2-0.7,1-1.7,1
						c-0.7,0-1.8-0.4-1.8-2v-3.4h1v3.4c0,0.7,0.3,1.2,1,1.2c0.7,0,1.4-0.6,1.5-1.6v-3.1L205.2,110.8L205.2,110.8z"/>
					<path class="st0" d="M206.2,111.8c0-0.3,0-0.6-0.1-0.9h1v0.9h0.1c0.1-0.2,0.7-1,1.7-1c0.6,0,1.8,0.3,1.8,2v3.5h-1v-3.5
						c0-0.7-0.3-1.2-0.9-1.2c-0.7,0-1.4,0.7-1.6,1.6v3.1h-1V111.8z"/>
					<path class="st0" d="M215.3,108.5h1v6.9c0,0.2,0,0.6,0,0.8h-0.9c0-0.2,0-0.6,0-0.8h-0.1c-0.4,0.6-0.9,0.9-1.6,0.9
						c-1.5,0-2.3-1.3-2.3-2.8c0-1.6,0.8-2.8,2.2-2.8c1,0,1.4,0.6,1.6,0.9h0.1c0,0,0-0.4,0-0.7L215.3,108.5z M213.9,115.5
						c0.7,0,1.3-0.8,1.3-1.3v-1.3c0-0.6-0.6-1.4-1.4-1.4c-1,0-1.4,0.9-1.4,2C212.4,114.7,212.9,115.5,213.9,115.5z"/>
				</g>
			</g>
			<path id="XMLID_19_" class="st1" d="M225.5,37.6l6.6,0.8l7.8,15L232.1,66c0,0-8.9,2.3-12.3,3.2H212v20.3l6.3,2.2l-0.2,2.2
				l-11.2-0.2l-11.2,0.2l-0.2-2.2l6.3-2.2V41.9l-6.3-2.2l0.2-2.2L225.5,37.6z M212,64.9l6.5,1.2l10-7l3.1-5.7l-3.1-5.7l-10-6.6
				l-6.5,0.9V64.9z"/>
		</g>
		<g id="Ebene_1">
		</g>
	</g>
	<g>
		<g>
			<path class="st2" d="M377.4,49.3c-2.2,0-3.7-1.6-3.7-3.6s1.5-3.6,3.7-3.6c2.2,0,3.7,1.6,3.7,3.6C381,47.7,379.6,49.3,377.4,49.3z
				 M377.4,43.4c-1.3,0-2,0.8-2,2.2c0,1.4,0.7,2.2,2,2.2s2-0.8,2-2.2C379.4,44.3,378.6,43.4,377.4,43.4z"/>
			<path class="st2" d="M385.5,46.9v2.4h-1.6v-7h2.5c2,0,2.8,1,2.8,2.3c0,1.4-0.9,2.4-2.8,2.4H385.5L385.5,46.9z M385.5,45.6h0.8
				c0.8,0,1.2-0.4,1.2-1.2c0-0.6-0.4-1.1-1.2-1.1h-0.8V45.6z"/>
			<path class="st2" d="M396.7,42.2v1.3h-2.9v1.6h2.2v1.2h-2.2v1.7h2.9v1.3h-4.5v-7L396.7,42.2L396.7,42.2z"/>
			<path class="st2" d="M401.6,42.4l3.3,4.2c0-0.3,0-0.5,0-0.8v-3.7h1.4v7h-0.8c-0.2,0-0.4-0.1-0.6-0.3l-3.3-4.2c0,0.2,0,0.5,0,0.7
				v3.8h-1.4v-7h0.9C401.3,42.2,401.4,42.2,401.6,42.4z"/>
		</g>
		<g>
			<path class="st2" d="M375.7,58.1h0.3c0.2,0,0.4-0.1,0.5-0.2l1.6-2.3c0.2-0.2,0.4-0.3,0.7-0.3h1.4l-2.1,2.8
				c-0.2,0.2-0.3,0.3-0.5,0.4c0.2,0.1,0.4,0.2,0.6,0.5l2.1,3.3h-1.5c-0.4,0-0.5-0.1-0.6-0.3l-1.6-2.5c-0.1-0.2-0.3-0.2-0.6-0.2h-0.4
				v3h-1.6v-7h1.6L375.7,58.1L375.7,58.1z"/>
			<path class="st2" d="M384.9,55.5l3.3,4.2c0-0.3,0-0.5,0-0.8v-3.7h1.4v7h-0.8c-0.2,0-0.4-0.1-0.6-0.3l-3.3-4.2c0,0.2,0,0.5,0,0.7
				v3.8h-1.4v-7h0.9C384.6,55.2,384.7,55.3,384.9,55.5z"/>
			<path class="st2" d="M396.4,62.3c-2.2,0-3.7-1.6-3.7-3.6c0-2,1.5-3.6,3.7-3.6c2.2,0,3.7,1.6,3.7,3.6S398.6,62.3,396.4,62.3z
				 M396.4,56.5c-1.3,0-2,0.8-2,2.2c0,1.4,0.7,2.2,2,2.2c1.2,0,2-0.8,2-2.2C398.4,57.3,397.6,56.5,396.4,56.5z"/>
			<path class="st2" d="M401.8,55.2h1.4c0.3,0,0.5,0.1,0.5,0.4l1,3.7c0.1,0.2,0.1,0.5,0.2,0.8c0.1-0.3,0.1-0.6,0.2-0.8l1.1-3.7
				c0.1-0.2,0.3-0.4,0.5-0.4h0.5c0.3,0,0.5,0.1,0.5,0.4l1.1,3.7c0.1,0.2,0.2,0.5,0.2,0.8c0.1-0.3,0.1-0.5,0.2-0.8l1-3.7
				c0.1-0.2,0.3-0.4,0.5-0.4h1.3l-2.2,7h-1.5l-1.3-4.4c0-0.1-0.1-0.3-0.1-0.5c0,0.2-0.1,0.3-0.1,0.5l-1.3,4.4H404L401.8,55.2z"/>
			<path class="st2" d="M416.7,61h2.6v1.3H415v-7h1.6V61L416.7,61z"/>
			<path class="st2" d="M427.3,55.2v1.3h-2.9v1.6h2.2v1.2h-2.2V61h2.9v1.3h-4.5v-7H427.3L427.3,55.2z"/>
			<path class="st2" d="M433.4,62.3h-2.7v-7h2.7c2.2,0,3.7,1.5,3.7,3.5C437.1,60.8,435.6,62.3,433.4,62.3z M433.4,56.5h-1.1V61h1.1
				c1.2,0,2-0.9,2-2.3C435.4,57.3,434.7,56.5,433.4,56.5z"/>
			<path class="st2" d="M444.4,60.9v-1.1h-0.7c-0.2,0-0.3-0.1-0.3-0.3v-0.9h2.5v3c-0.7,0.5-1.5,0.8-2.7,0.8c-2.1,0-3.6-1.5-3.6-3.6
				c0-2.1,1.5-3.6,3.7-3.6c1.2,0,2.1,0.4,2.6,0.9l-0.5,0.7c-0.1,0.1-0.2,0.2-0.4,0.2c-0.1,0-0.2,0-0.3-0.1c-0.5-0.3-0.9-0.4-1.5-0.4
				c-1.2,0-2,0.9-2,2.2c0,1.5,0.9,2.3,2.1,2.3C443.8,61.1,444.1,61,444.4,60.9z"/>
			<path class="st2" d="M453.7,55.2v1.3h-2.9v1.6h2.2v1.2h-2.2V61h2.9v1.3h-4.5v-7H453.7L453.7,55.2z"/>
		</g>
		<path class="st2" d="M378.6,68.3v1.3h-2.9v1.8h2.4v1.3h-2.4v2.7h-1.6v-7H378.6L378.6,68.3z"/>
		<path class="st2" d="M389.3,71.8c0,0.5-0.1,1-0.3,1.4c-0.2,0.4-0.4,0.8-0.7,1.1c-0.3,0.3-0.7,0.6-1.2,0.8
			c-0.5,0.2-0.9,0.3-1.5,0.3s-1.1-0.1-1.5-0.3c-0.5-0.2-0.8-0.4-1.2-0.8c-0.3-0.3-0.6-0.7-0.7-1.1c-0.2-0.4-0.3-0.9-0.3-1.4
			c0-0.5,0.1-1,0.3-1.4c0.2-0.4,0.4-0.8,0.7-1.1c0.3-0.3,0.7-0.6,1.2-0.8s0.9-0.3,1.5-0.3s1.1,0.1,1.5,0.3c0.4,0.2,0.8,0.4,1.2,0.8
			s0.6,0.7,0.7,1.1C389.2,70.8,389.3,71.3,389.3,71.8z M387.6,71.8c0-0.4,0-0.7-0.1-0.9c-0.1-0.3-0.2-0.5-0.4-0.7
			c-0.2-0.2-0.4-0.3-0.6-0.4c-0.2-0.1-0.5-0.2-0.8-0.2c-0.3,0-0.6,0.1-0.8,0.2c-0.2,0.1-0.5,0.2-0.6,0.4s-0.3,0.4-0.4,0.7
			c-0.1,0.3-0.1,0.6-0.1,0.9c0,0.4,0,0.7,0.1,0.9c0.1,0.3,0.2,0.5,0.4,0.7c0.2,0.2,0.4,0.3,0.6,0.4c0.2,0.1,0.5,0.2,0.8,0.2
			c0.3,0,0.6-0.1,0.8-0.2c0.2-0.1,0.5-0.2,0.6-0.4c0.2-0.2,0.3-0.4,0.4-0.7C387.6,72.5,387.6,72.1,387.6,71.8z"/>
		<path class="st2" d="M395.9,74c0.2,0,0.4,0,0.6-0.1c0.2-0.1,0.3-0.2,0.4-0.3c0.1-0.1,0.2-0.3,0.3-0.5c0.1-0.2,0.1-0.4,0.1-0.7
			v-4.2h1.6v4.2c0,0.4-0.1,0.8-0.2,1.2c-0.1,0.4-0.3,0.7-0.6,0.9s-0.6,0.5-0.9,0.6c-0.4,0.1-0.8,0.2-1.3,0.2c-0.5,0-0.9-0.1-1.3-0.2
			c-0.4-0.1-0.7-0.4-0.9-0.6c-0.3-0.3-0.5-0.6-0.6-0.9s-0.2-0.8-0.2-1.2v-4.2h1.6v4.2c0,0.2,0,0.5,0.1,0.7c0.1,0.2,0.2,0.4,0.3,0.5
			c0.1,0.1,0.3,0.2,0.4,0.3C395.5,74,395.7,74,395.9,74z"/>
		<path class="st2" d="M403.9,68.3c0.1,0,0.1,0,0.1,0c0,0,0.1,0,0.1,0.1c0,0,0.1,0.1,0.1,0.1l3.3,4.2c0-0.1,0-0.3,0-0.4
			c0-0.1,0-0.2,0-0.4v-3.7h1.4v7h-0.8c-0.1,0-0.2,0-0.3-0.1s-0.2-0.1-0.2-0.2l-3.3-4.2c0,0.1,0,0.2,0,0.4c0,0.1,0,0.2,0,0.3v3.8
			h-1.4v-7h0.9C403.8,68.3,403.9,68.3,403.9,68.3z"/>
		<path class="st2" d="M419.5,71.8c0,0.5-0.1,1-0.3,1.4c-0.2,0.4-0.4,0.8-0.7,1.1c-0.3,0.3-0.7,0.6-1.2,0.7
			c-0.5,0.2-0.9,0.3-1.5,0.3h-2.7v-7h2.7c0.5,0,1.1,0.1,1.5,0.3c0.4,0.2,0.8,0.4,1.2,0.7c0.3,0.3,0.6,0.7,0.7,1.1
			C419.4,70.8,419.5,71.3,419.5,71.8z M417.8,71.8c0-0.4,0-0.7-0.1-0.9c-0.1-0.3-0.2-0.5-0.4-0.7s-0.4-0.4-0.6-0.5s-0.5-0.2-0.8-0.2
			h-1.1V74h1.1c0.3,0,0.6-0.1,0.8-0.2c0.2-0.1,0.5-0.3,0.6-0.5s0.3-0.4,0.4-0.7C417.8,72.5,417.8,72.1,417.8,71.8z"/>
		<path class="st2" d="M429.7,75.3h-1.3c-0.1,0-0.3,0-0.4-0.1c-0.1-0.1-0.2-0.2-0.2-0.3l-0.4-1.2h-2.7l-0.4,1.2
			c0,0.1-0.1,0.2-0.2,0.2c-0.1,0.1-0.2,0.1-0.3,0.1h-1.3l2.7-7h1.7L429.7,75.3z M425.2,72.6h1.9l-0.6-1.9c0-0.1-0.1-0.3-0.1-0.4
			c-0.1-0.2-0.1-0.4-0.2-0.5c-0.1,0.2-0.1,0.4-0.2,0.5c-0.1,0.2-0.1,0.3-0.2,0.4L425.2,72.6z"/>
		<path class="st2" d="M438.3,68.3v1.3h-2v5.7h-1.6v-5.7h-2v-1.3H438.3z"/>
		<path class="st2" d="M443.7,75.3H442v-7h1.6V75.3z"/>
		<path class="st2" d="M454.8,71.8c0,0.5-0.1,1-0.3,1.4c-0.2,0.4-0.4,0.8-0.7,1.1c-0.3,0.3-0.7,0.6-1.2,0.8
			c-0.5,0.2-0.9,0.3-1.5,0.3s-1.1-0.1-1.5-0.3c-0.5-0.2-0.8-0.4-1.2-0.8c-0.3-0.3-0.6-0.7-0.7-1.1c-0.2-0.4-0.3-0.9-0.3-1.4
			c0-0.5,0.1-1,0.3-1.4c0.2-0.4,0.4-0.8,0.7-1.1c0.3-0.3,0.7-0.6,1.2-0.8c0.5-0.2,0.9-0.3,1.5-0.3s1.1,0.1,1.5,0.3s0.8,0.4,1.2,0.8
			s0.6,0.7,0.7,1.1C454.7,70.8,454.8,71.3,454.8,71.8z M453.2,71.8c0-0.4,0-0.7-0.1-0.9c-0.1-0.3-0.2-0.5-0.4-0.7
			c-0.2-0.2-0.4-0.3-0.6-0.4c-0.2-0.1-0.5-0.2-0.8-0.2c-0.3,0-0.6,0.1-0.8,0.2c-0.2,0.1-0.5,0.2-0.6,0.4s-0.3,0.4-0.4,0.7
			c-0.1,0.3-0.1,0.6-0.1,0.9c0,0.4,0,0.7,0.1,0.9c0.1,0.3,0.2,0.5,0.4,0.7c0.2,0.2,0.4,0.3,0.6,0.4c0.2,0.1,0.5,0.2,0.8,0.2
			c0.3,0,0.6-0.1,0.8-0.2c0.2-0.1,0.5-0.2,0.6-0.4c0.2-0.2,0.3-0.4,0.4-0.7C453.1,72.5,453.2,72.1,453.2,71.8z"/>
		<path class="st2" d="M459.5,68.3c0.1,0,0.1,0,0.1,0c0,0,0.1,0,0.1,0.1c0,0,0.1,0.1,0.1,0.1l3.3,4.2c0-0.1,0-0.3,0-0.4
			c0-0.1,0-0.2,0-0.4v-3.7h1.4v7h-0.8c-0.1,0-0.2,0-0.3-0.1s-0.2-0.1-0.2-0.2l-3.3-4.2c0,0.1,0,0.2,0,0.4c0,0.1,0,0.2,0,0.3v3.8
			h-1.4v-7h0.9C459.4,68.3,459.5,68.3,459.5,68.3z"/>
		
			<rect x="335.1" y="32.6" transform="matrix(0.5985 -0.8011 0.8011 0.5985 111.8577 291.1216)" class="st2" width="22.6" height="2.7"/>
		
			<rect x="332.4" y="34.2" transform="matrix(0.4459 -0.8951 0.8951 0.4459 155.375 322.0476)" class="st2" width="10.9" height="2.7"/>
		
			<rect x="324.6" y="29" transform="matrix(0.2789 -0.9603 0.9603 0.2789 211.0458 341.7821)" class="st2" width="17.1" height="2.7"/>
		<polygon class="st2" points="327.2,37.8 324.5,37.5 325.6,26.7 328.3,26.9 		"/>
		<polygon class="st2" points="319.5,37.7 318.6,25.5 321.3,25.3 322.2,37.5 		"/>
		<polygon class="st2" points="314.6,38.7 312.5,30.7 315.1,30 317.3,38 		"/>
		
			<rect x="308.7" y="34.7" transform="matrix(0.9066 -0.4219 0.4219 0.9066 13.1137 134.3249)" class="st2" width="2.7" height="5.6"/>
		<polygon class="st2" points="305.8,43.3 304.5,41.6 306.8,40 308,41.8 		"/>
		<polygon class="st2" points="302.2,46.8 295.8,40.5 297.7,38.5 304.1,44.8 		"/>
		<polygon class="st2" points="299.2,50.8 289.3,44 290.8,41.7 300.7,48.5 		"/>
		<polygon class="st2" points="297,55.3 290.7,52.5 291.9,50 298.1,52.8 		"/>
		<polygon class="st2" points="277.1,55.6 295.6,60 296.3,57.4 277.8,52.9 		"/>
		
			<rect x="286.9" y="56.3" transform="matrix(5.810123e-02 -0.9983 0.9983 5.810123e-02 208.4128 347.406)" class="st2" width="2.7" height="13.8"/>
		
			<rect x="281.9" y="68.1" transform="matrix(0.9927 -0.1209 0.1209 0.9927 -6.2793 35.4084)" class="st2" width="13.5" height="2.7"/>
		
			<rect x="293.3" y="72.6" transform="matrix(0.9551 -0.2964 0.2964 0.9551 -8.6785 90.7301)" class="st2" width="3.1" height="2.7"/>
		
			<rect x="287.6" y="79.4" transform="matrix(0.8869 -0.462 0.462 0.8869 -4.1317 144.6192)" class="st2" width="11.3" height="2.7"/>
		<rect x="290" y="84.7" transform="matrix(0.7901 -0.613 0.613 0.7901 9.4044 199.6048)" class="st2" width="12.2" height="2.7"/>
		
			<rect x="294.4" y="89" transform="matrix(0.6678 -0.7443 0.7443 0.6678 32.4947 253.6256)" class="st2" width="11.9" height="2.7"/>
		
			<rect x="304.2" y="89.9" transform="matrix(0.5242 -0.8516 0.8516 0.5242 68.2832 304.8184)" class="st2" width="5.5" height="2.7"/>
		<polygon class="st2" points="310.2,101.7 307.7,100.7 311.6,90.7 314.1,91.7 		"/>
		
			<rect x="311.8" y="96" transform="matrix(0.1916 -0.9815 0.9815 0.1916 160.4004 389.5469)" class="st2" width="9.8" height="2.7"/>
		<polygon class="st2" points="323.9,99.9 321.1,99.9 321.2,93.1 323.9,93.1 		"/>
		<polygon class="st2" points="328.4,106 326.2,92.9 328.9,92.5 331.1,105.5 		"/>
		
			<rect x="332.4" y="91.2" transform="matrix(0.9408 -0.3389 0.3389 0.9408 -12.5169 118.7392)" class="st2" width="2.7" height="8"/>
		<polygon class="st2" points="335.7,90 345.6,106.9 348,105.6 338.1,88.7 		"/>
		<polygon class="st2" points="341.5,89 340,87.4 342,85.5 343.5,87.1 		"/>
		<polygon class="st2" points="350.4,89.6 343.6,84 345.3,81.9 352.1,87.4 		"/>
		<polygon class="st2" points="353.6,83.9 346.6,80 347.9,77.6 354.9,81.5 		"/>
		<polygon class="st2" points="352.2,76.7 348.8,75.5 349.7,72.9 353.1,74.1 		"/>
		
			<rect x="354.4" y="64.9" transform="matrix(0.1474 -0.9891 0.9891 0.1474 233.8771 411.6788)" class="st2" width="2.7" height="10.6"/>
		<polygon class="st2" points="350.8,65.8 350.7,63.1 357.5,62.8 357.5,65.6 		"/>
		
			<rect x="350.1" y="57.2" transform="matrix(0.9778 -0.2096 0.2096 0.9778 -4.4075 75.5679)" class="st2" width="8.5" height="2.7"/>
		<polygon class="st2" points="349.2,56 348.2,53.4 353.5,51.2 354.6,53.8 		"/>
		<polygon class="st2" points="347.1,51.4 345.6,49.1 359.9,40 361.4,42.3 		"/>
		<polygon class="st2" points="344.3,47.4 342.4,45.4 344.5,43.3 346.4,45.3 		"/>
		<g>
			<path class="st2" d="M320.9,63.2c-0.2-0.2-0.5-0.4-0.8-0.6c-0.3-0.1-0.7-0.2-1.1-0.2h-1.4v5.8h1.4c0.4,0,0.8-0.1,1.1-0.2
				c0.3-0.1,0.6-0.3,0.8-0.6c0.2-0.3,0.4-0.6,0.5-0.9c0.1-0.4,0.2-0.8,0.2-1.2s-0.1-0.9-0.2-1.2C321.2,63.8,321.1,63.5,320.9,63.2z"
				/>
			<path class="st2" d="M340.1,65.8l-0.1-2L334,64l5.9-1.3l-0.4-2l-5.9,1.3l5.6-2.3l-0.8-1.8l-5.6,2.3l5.1-3.3l-1.1-1.7l-5.1,3.3
				l4.4-4.1l-1.4-1.5l-4.4,4.1l3.6-4.9l-1.6-1.2l-3.6,4.9l2.7-5.4l-1.8-0.9L327,55l1.7-5.8l-1.9-0.6l-1.7,5.8l0.6-6l-2-0.2l-0.7,6.2
				l-0.5-6.3l-2,0.2l0.5,6l-1.5-5.9l-1.9,0.5l1.5,5.9l-2.6-5.5l-1.8,0.8l2.6,5.5l-3.5-5l-1.6,1.2l3.5,5l-4.3-4.2l-1.4,1.4l4.3,4.2
				l-5-3.4l-1.1,1.7l5,3.4l-5.5-2.5l-0.8,1.8l5.5,2.5l-5.9-1.4l-0.5,1.9l5.9,1.4l-6.1-0.4l-0.1,2l6.1,0.4l-6,0.7l0.2,2l6-0.7
				l-5.8,1.8l0.6,1.9l5.8-1.8l-5.4,2.8l0.9,1.8l5.4-2.8l-4.8,3.7l1.2,1.6l4.8-3.7l-4.1,4.5l1.5,1.3l4.1-4.5l-3.2,5.2l1.7,1.1
				l3.2-5.2l-2.2,5.7l1.9,0.7l2.2-5.7l-1.2,6l2,0.4l1.2-6l-0.1,6.1l2,0l0.1-6.1l1,6l2-0.3l-1-6l2.1,5.7l1.9-0.7l-2.1-5.7l3,5.2
				l1.7-1l-3-5.2l3.9,4.6l1.5-1.3l-3.9-4.6l4.7,3.8l1.3-1.5l-4.7-3.8l5.3,2.9l1-1.8l-5.3-2.9l5.7,2l0.6-1.9l-5.7-2l6,0.9l0.3-2
				l-6-0.9L340.1,65.8z M323.4,67.2c-0.2,0.6-0.5,1-1,1.4c-0.4,0.4-0.9,0.7-1.5,0.9c-0.6,0.2-1.2,0.3-1.9,0.3h-3.5v-9.1h3.5
				c0.7,0,1.4,0.1,1.9,0.3c0.6,0.2,1.1,0.5,1.5,0.9c0.4,0.4,0.7,0.9,1,1.4s0.3,1.2,0.3,1.8C323.7,66,323.6,66.6,323.4,67.2z
				 M330.5,62.4h-3.7v2.1h2.9v1.6h-2.9v2.2h3.7v1.6h-5.8v-9.1h5.8V62.4z"/>
		</g>
		<g>
			<path class="st2" d="M379.9,83.3c0,0.5-0.1,1-0.2,1.4c-0.2,0.4-0.4,0.8-0.7,1.1c-0.3,0.3-0.6,0.5-1.1,0.7
				c-0.4,0.2-0.9,0.2-1.4,0.2h-2.6v-6.9h2.6c0.5,0,1,0.1,1.4,0.2c0.4,0.2,0.8,0.4,1.1,0.7c0.3,0.3,0.5,0.7,0.7,1.1
				C379.8,82.3,379.9,82.8,379.9,83.3z M378.9,83.3c0-0.4-0.1-0.8-0.2-1.1c-0.1-0.3-0.3-0.6-0.5-0.8c-0.2-0.2-0.5-0.4-0.8-0.5
				c-0.3-0.1-0.6-0.2-1-0.2h-1.6V86h1.6c0.4,0,0.7-0.1,1-0.2c0.3-0.1,0.6-0.3,0.8-0.5c0.2-0.2,0.4-0.5,0.5-0.8
				C378.9,84.1,378.9,83.7,378.9,83.3z"/>
			<path class="st2" d="M388.3,79.9v0.8h-3.3v2.3h2.7v0.7h-2.7V86h3.3v0.8H384v-6.9L388.3,79.9L388.3,79.9z"/>
			<path class="st2" d="M395.1,86c0.3,0,0.5-0.1,0.8-0.1c0.2-0.1,0.4-0.2,0.6-0.4s0.3-0.4,0.4-0.6c0.1-0.2,0.1-0.5,0.1-0.8v-4.2h0.9
				v4.2c0,0.4-0.1,0.8-0.2,1.1s-0.3,0.6-0.5,0.9c-0.2,0.2-0.5,0.4-0.9,0.6c-0.3,0.1-0.7,0.2-1.1,0.2c-0.4,0-0.8-0.1-1.1-0.2
				c-0.3-0.1-0.6-0.3-0.9-0.6c-0.2-0.2-0.4-0.5-0.5-0.9c-0.1-0.3-0.2-0.7-0.2-1.1v-4.2h0.9v4.2c0,0.3,0,0.6,0.1,0.8
				c0.1,0.2,0.2,0.4,0.4,0.6c0.2,0.2,0.4,0.3,0.6,0.4C394.6,86,394.8,86,395.1,86z"/>
			<path class="st2" d="M407,79.9v0.8h-2.2v6.1h-0.9v-6.1h-2.2v-0.8L407,79.9L407,79.9z"/>
			<path class="st2" d="M414.4,81c0,0.1-0.1,0.1-0.1,0.1c0,0-0.1,0-0.1,0c-0.1,0-0.1,0-0.2-0.1c-0.1-0.1-0.2-0.1-0.3-0.2
				c-0.1-0.1-0.2-0.1-0.4-0.2s-0.3-0.1-0.6-0.1c-0.2,0-0.4,0-0.6,0.1c-0.2,0.1-0.3,0.1-0.4,0.2c-0.1,0.1-0.2,0.2-0.2,0.3
				c-0.1,0.1-0.1,0.3-0.1,0.4c0,0.2,0.1,0.4,0.1,0.5c0.1,0.1,0.2,0.2,0.4,0.3c0.2,0.1,0.3,0.2,0.5,0.2c0.2,0.1,0.4,0.1,0.6,0.2
				c0.2,0.1,0.4,0.2,0.6,0.2c0.2,0.1,0.4,0.2,0.5,0.3c0.2,0.1,0.3,0.3,0.4,0.5c0.1,0.2,0.1,0.4,0.1,0.7c0,0.3-0.1,0.6-0.2,0.8
				c-0.1,0.3-0.2,0.5-0.5,0.7c-0.2,0.2-0.4,0.4-0.7,0.5s-0.6,0.2-1,0.2c-0.4,0-0.9-0.1-1.2-0.2c-0.4-0.2-0.7-0.4-0.9-0.7l0.3-0.4
				c0,0,0.1-0.1,0.1-0.1c0,0,0.1,0,0.1,0c0.1,0,0.1,0,0.2,0.1c0.1,0.1,0.2,0.2,0.3,0.2c0.1,0.1,0.3,0.2,0.5,0.2s0.4,0.1,0.7,0.1
				c0.2,0,0.4,0,0.6-0.1c0.2-0.1,0.3-0.1,0.4-0.3s0.2-0.2,0.3-0.4c0.1-0.2,0.1-0.3,0.1-0.5c0-0.2-0.1-0.4-0.1-0.5s-0.2-0.2-0.4-0.3
				c-0.2-0.1-0.3-0.2-0.5-0.2c-0.2-0.1-0.4-0.1-0.6-0.2c-0.2-0.1-0.4-0.1-0.6-0.2c-0.2-0.1-0.4-0.2-0.5-0.3
				c-0.2-0.1-0.3-0.3-0.4-0.5c-0.1-0.2-0.1-0.5-0.1-0.8c0-0.2,0.1-0.5,0.1-0.7c0.1-0.2,0.2-0.4,0.4-0.6c0.2-0.2,0.4-0.3,0.7-0.4
				c0.3-0.1,0.6-0.2,0.9-0.2c0.4,0,0.7,0.1,1.1,0.2c0.3,0.1,0.6,0.3,0.8,0.5L414.4,81z"/>
			<path class="st2" d="M423.6,85.3c0.1,0,0.1,0,0.1,0.1l0.4,0.4c-0.3,0.3-0.6,0.6-1,0.8c-0.4,0.2-0.9,0.3-1.5,0.3
				c-0.5,0-0.9-0.1-1.4-0.3c-0.4-0.2-0.8-0.4-1-0.7c-0.3-0.3-0.5-0.7-0.7-1.1c-0.2-0.4-0.2-0.9-0.2-1.4c0-0.5,0.1-1,0.2-1.4
				c0.2-0.4,0.4-0.8,0.7-1.1c0.3-0.3,0.7-0.5,1.1-0.7c0.4-0.2,0.9-0.3,1.4-0.3s0.9,0.1,1.3,0.2c0.4,0.2,0.7,0.4,1,0.6l-0.3,0.4
				c0,0-0.1,0.1-0.1,0.1c0,0-0.1,0-0.1,0c0,0-0.1,0-0.1-0.1c-0.1,0-0.1-0.1-0.2-0.1c-0.1,0-0.1-0.1-0.2-0.1
				c-0.1-0.1-0.2-0.1-0.3-0.1c-0.1,0-0.3-0.1-0.4-0.1s-0.3-0.1-0.5-0.1c-0.4,0-0.7,0.1-1,0.2c-0.3,0.1-0.6,0.3-0.8,0.5
				s-0.4,0.5-0.5,0.9c-0.1,0.3-0.2,0.7-0.2,1.1c0,0.4,0.1,0.8,0.2,1.1s0.3,0.6,0.5,0.9c0.2,0.2,0.5,0.4,0.8,0.5
				c0.3,0.1,0.6,0.2,0.9,0.2c0.2,0,0.4,0,0.6,0c0.2,0,0.3-0.1,0.5-0.1c0.1-0.1,0.3-0.1,0.4-0.2s0.2-0.2,0.4-0.3
				C423.5,85.4,423.6,85.3,423.6,85.3z"/>
			<path class="st2" d="M433.8,86.8h-0.9v-3.1h-3.7v3.1h-0.9v-6.9h0.9v3.1h3.7v-3.1h0.9V86.8z"/>
			<path class="st2" d="M439.3,86h3v0.8h-3.9v-6.9h0.9V86z"/>
			<path class="st2" d="M451.8,86.8h-0.7c-0.1,0-0.2,0-0.2-0.1c-0.1,0-0.1-0.1-0.1-0.2l-0.6-1.7H447l-0.6,1.7c0,0.1-0.1,0.1-0.1,0.2
				c-0.1,0-0.1,0.1-0.2,0.1h-0.7l2.8-6.9h0.9L451.8,86.8z M447.3,84.2h2.6l-1.1-2.8c-0.1-0.2-0.1-0.4-0.2-0.6c0,0.1-0.1,0.2-0.1,0.4
				c0,0.1-0.1,0.2-0.1,0.3L447.3,84.2z"/>
			<path class="st2" d="M456.2,79.9c0,0,0.1,0.1,0.1,0.1l4,5.2c0-0.1,0-0.2,0-0.2c0-0.1,0-0.2,0-0.2v-4.9h0.8v6.9h-0.5
				c-0.1,0-0.1,0-0.2,0s-0.1-0.1-0.1-0.1l-4-5.2c0,0.1,0,0.2,0,0.2c0,0.1,0,0.1,0,0.2v4.9h-0.8v-6.9h0.5
				C456.1,79.9,456.1,79.9,456.2,79.9z"/>
			<path class="st2" d="M471.6,83.3c0,0.5-0.1,1-0.2,1.4c-0.2,0.4-0.4,0.8-0.7,1.1s-0.6,0.5-1.1,0.7c-0.4,0.2-0.9,0.2-1.4,0.2h-2.6
				v-6.9h2.6c0.5,0,1,0.1,1.4,0.2c0.4,0.2,0.8,0.4,1.1,0.7c0.3,0.3,0.5,0.7,0.7,1.1C471.5,82.3,471.6,82.8,471.6,83.3z M470.6,83.3
				c0-0.4-0.1-0.8-0.2-1.1c-0.1-0.3-0.3-0.6-0.5-0.8c-0.2-0.2-0.5-0.4-0.8-0.5c-0.3-0.1-0.6-0.2-1-0.2h-1.6V86h1.6
				c0.4,0,0.7-0.1,1-0.2c0.3-0.1,0.6-0.3,0.8-0.5s0.4-0.5,0.5-0.8C470.6,84.1,470.6,83.7,470.6,83.3z"/>
		</g>
	</g>
</g>
<g id="Ebene_2">
	<g>
		<path class="st3" d="M62.9,44c0,0.4,0,0.7-0.1,0.9c-0.1,0.3-0.2,0.5-0.4,0.7c-0.2,0.2-0.3,0.3-0.5,0.5c-0.2,0.1-0.4,0.2-0.6,0.3v0
			c0.3,0,0.5,0.1,0.8,0.3c0.2,0.1,0.4,0.3,0.6,0.5c0.2,0.2,0.3,0.5,0.4,0.7c0.1,0.3,0.2,0.6,0.2,0.9c0,0.4-0.1,0.8-0.2,1.1
			c-0.1,0.3-0.4,0.6-0.6,0.9c-0.3,0.2-0.7,0.4-1.1,0.6c-0.4,0.1-1,0.2-1.6,0.2h-2.1V41.4h2c0.6,0,1.1,0.1,1.6,0.2
			c0.4,0.1,0.8,0.3,1.1,0.5c0.3,0.2,0.5,0.5,0.6,0.8C62.8,43.2,62.9,43.6,62.9,44z M61.6,44c0-0.5-0.2-0.9-0.5-1.2
			c-0.3-0.3-0.9-0.5-1.6-0.5h-0.7v3.5h0.7c0.7,0,1.2-0.2,1.6-0.5C61.4,45.1,61.6,44.6,61.6,44z M61.8,48.7c0-0.6-0.2-1-0.5-1.3
			c-0.4-0.3-0.9-0.5-1.6-0.5h-0.9v3.6h0.8c0.8,0,1.3-0.2,1.7-0.5C61.6,49.8,61.8,49.3,61.8,48.7z M69.7,51.6h-1.1v-0.8h0
			c0,0.1-0.1,0.1-0.2,0.3c-0.1,0.1-0.2,0.2-0.4,0.3c-0.2,0.1-0.3,0.2-0.6,0.3c-0.2,0.1-0.5,0.1-0.7,0.1c-0.3,0-0.6,0-0.9-0.1
			c-0.3-0.1-0.5-0.2-0.6-0.5c-0.2-0.2-0.3-0.5-0.4-0.8c-0.1-0.3-0.1-0.7-0.1-1.2v-4.7h1.2v4.6c0,0.6,0.1,1,0.3,1.3
			c0.2,0.3,0.5,0.4,0.9,0.4c0.3,0,0.6-0.1,0.9-0.3c0.2-0.2,0.4-0.3,0.6-0.5v-5.5h1.2V51.6z M75.5,51.6V47c0-0.6-0.1-1-0.3-1.3
			c-0.2-0.3-0.5-0.4-0.9-0.4c-0.4,0-0.7,0.1-0.9,0.3c-0.2,0.2-0.4,0.4-0.6,0.5v5.5h-1.2v-7.1h1.1v0.8h0c0-0.1,0.1-0.1,0.2-0.3
			c0.1-0.1,0.2-0.2,0.4-0.3c0.2-0.1,0.3-0.2,0.6-0.3c0.2-0.1,0.5-0.1,0.7-0.1c0.3,0,0.6,0,0.9,0.1c0.3,0.1,0.5,0.2,0.7,0.5
			c0.2,0.2,0.3,0.5,0.4,0.8c0.1,0.3,0.1,0.7,0.1,1.2v4.7H75.5z M78.1,48.1c0-0.7,0.1-1.3,0.3-1.8c0.2-0.5,0.4-0.9,0.7-1.2
			c0.3-0.3,0.6-0.5,1-0.6c0.4-0.1,0.8-0.2,1.1-0.2c0.2,0,0.4,0,0.6,0.1c0.2,0,0.3,0.1,0.4,0.1v-3.4l1.2-0.1v10.6h-1.1v-0.8h0
			c0,0.1-0.1,0.1-0.2,0.2c-0.1,0.1-0.2,0.2-0.3,0.3c-0.1,0.1-0.3,0.2-0.5,0.3c-0.2,0.1-0.5,0.1-0.7,0.1c-0.3,0-0.7-0.1-1-0.2
			c-0.3-0.1-0.6-0.3-0.8-0.6c-0.2-0.3-0.4-0.7-0.5-1.1C78.2,49.4,78.1,48.8,78.1,48.1z M81,50.7c0.2,0,0.4,0,0.5-0.1
			c0.1,0,0.3-0.1,0.4-0.2c0.1-0.1,0.2-0.1,0.3-0.2c0.1-0.1,0.1-0.1,0.2-0.2v-4.4c-0.1-0.1-0.2-0.1-0.4-0.2c-0.1,0-0.3-0.1-0.5-0.1
			c-0.3,0-0.5,0-0.8,0.1c-0.2,0.1-0.5,0.2-0.6,0.5c-0.2,0.2-0.3,0.5-0.4,0.8c-0.1,0.3-0.2,0.8-0.2,1.3c0,0.5,0,0.9,0.1,1.2
			c0.1,0.3,0.2,0.6,0.3,0.8c0.1,0.2,0.3,0.3,0.5,0.4C80.6,50.7,80.8,50.7,81,50.7z M89.9,46.9c0,0.3,0,0.6,0,0.8
			c0,0.2,0,0.4-0.1,0.6h-3.6c0,0.8,0.2,1.5,0.5,1.9c0.3,0.4,0.8,0.6,1.4,0.6c0.2,0,0.4,0,0.6-0.1c0.2,0,0.3-0.1,0.4-0.2
			c0.1-0.1,0.2-0.1,0.3-0.2c0.1-0.1,0.1-0.1,0.2-0.2l0.4,0.8c0,0.1-0.1,0.1-0.2,0.2c-0.1,0.1-0.2,0.2-0.4,0.3
			c-0.2,0.1-0.4,0.2-0.6,0.2c-0.2,0.1-0.5,0.1-0.9,0.1c-0.4,0-0.9-0.1-1.2-0.2c-0.4-0.1-0.7-0.4-0.9-0.7c-0.3-0.3-0.4-0.7-0.6-1.2
			C85.1,49.2,85,48.6,85,48c0-0.6,0.1-1.2,0.2-1.6c0.1-0.5,0.3-0.8,0.6-1.1c0.2-0.3,0.5-0.5,0.9-0.7c0.3-0.1,0.7-0.2,1.1-0.2
			c0.7,0,1.2,0.2,1.6,0.6C89.7,45.4,89.9,46,89.9,46.9z M87.7,45.3c-0.4,0-0.8,0.2-1,0.5c-0.3,0.4-0.4,0.9-0.4,1.5h2.6
			c0,0,0-0.1,0-0.2c0-0.1,0-0.2,0-0.3c0-0.5-0.1-0.9-0.3-1.2C88.3,45.4,88,45.3,87.7,45.3z M94.6,45.9c-0.1-0.1-0.2-0.2-0.4-0.4
			c-0.2-0.2-0.5-0.2-0.8-0.2c-0.3,0-0.6,0.1-0.7,0.2c-0.2,0.1-0.3,0.3-0.3,0.5c0,0.3,0.1,0.5,0.2,0.7c0.2,0.2,0.4,0.4,0.7,0.6
			l0.4,0.3c0.5,0.3,0.9,0.6,1.1,0.9c0.3,0.3,0.4,0.8,0.4,1.3c0,0.6-0.2,1-0.6,1.4c-0.4,0.4-1,0.6-1.7,0.6c-0.3,0-0.5,0-0.8-0.1
			c-0.2-0.1-0.4-0.1-0.6-0.2c-0.2-0.1-0.3-0.2-0.4-0.3c-0.1-0.1-0.2-0.2-0.3-0.3l0.6-1c0.1,0.1,0.1,0.1,0.2,0.2
			c0.1,0.1,0.2,0.2,0.3,0.2c0.1,0.1,0.3,0.1,0.4,0.2c0.1,0,0.3,0.1,0.5,0.1c0.4,0,0.6-0.1,0.8-0.2c0.2-0.2,0.3-0.4,0.3-0.6
			c0-0.2,0-0.3-0.1-0.4c0-0.1-0.1-0.2-0.2-0.3c-0.1-0.1-0.2-0.2-0.3-0.3c-0.1-0.1-0.3-0.2-0.4-0.3l-0.4-0.3c-0.4-0.3-0.8-0.6-1-0.9
			c-0.3-0.3-0.4-0.7-0.4-1.2c0-0.3,0.1-0.5,0.2-0.7c0.1-0.2,0.2-0.4,0.4-0.6c0.2-0.2,0.4-0.3,0.7-0.4c0.3-0.1,0.5-0.1,0.8-0.1
			c0.3,0,0.5,0,0.7,0.1c0.2,0.1,0.4,0.1,0.5,0.2c0.1,0.1,0.3,0.2,0.4,0.3c0.1,0.1,0.2,0.2,0.2,0.2L94.6,45.9z M100.5,51.6V47
			c0-0.6-0.1-1-0.3-1.3c-0.2-0.3-0.4-0.4-0.8-0.4c-0.2,0-0.4,0-0.5,0.1c-0.2,0-0.3,0.1-0.4,0.2c-0.1,0.1-0.2,0.2-0.3,0.2
			C98.1,46,98,46,97.9,46.1v5.5h-1.2v-7.1h1.1v0.8h0c0-0.1,0.1-0.2,0.2-0.3c0.1-0.1,0.2-0.2,0.4-0.3c0.1-0.1,0.3-0.2,0.5-0.3
			c0.2-0.1,0.4-0.1,0.7-0.1c0.8,0,1.4,0.3,1.7,1c0.1-0.1,0.2-0.2,0.3-0.3c0.1-0.1,0.3-0.2,0.4-0.3c0.2-0.1,0.3-0.2,0.5-0.2
			c0.2-0.1,0.4-0.1,0.7-0.1c1.4,0,2.2,0.8,2.2,2.5v4.8h-1.2V47c0-0.6-0.1-1-0.3-1.3c-0.2-0.3-0.5-0.4-0.9-0.4
			c-0.3,0-0.6,0.1-0.8,0.2c-0.2,0.2-0.4,0.3-0.5,0.5c0,0.1,0,0.2,0,0.3c0,0.1,0,0.3,0,0.4v4.8H100.5z M108.4,51.6h-1.2v-7.1h1.2
			V51.6z M107.8,42.8c-0.2,0-0.4-0.1-0.6-0.2c-0.1-0.2-0.2-0.4-0.2-0.6c0-0.2,0.1-0.5,0.2-0.6c0.1-0.2,0.3-0.2,0.6-0.2
			c0.2,0,0.4,0.1,0.6,0.2c0.1,0.2,0.2,0.4,0.2,0.6c0,0.3-0.1,0.5-0.2,0.6C108.3,42.7,108.1,42.8,107.8,42.8z M114.2,51.6V47
			c0-0.6-0.1-1-0.3-1.3c-0.2-0.3-0.5-0.4-0.9-0.4c-0.4,0-0.7,0.1-0.9,0.3c-0.2,0.2-0.4,0.4-0.6,0.5v5.5h-1.2v-7.1h1.1v0.8h0
			c0-0.1,0.1-0.1,0.2-0.3c0.1-0.1,0.2-0.2,0.4-0.3c0.2-0.1,0.3-0.2,0.6-0.3c0.2-0.1,0.5-0.1,0.7-0.1c0.3,0,0.6,0,0.9,0.1
			c0.3,0.1,0.5,0.2,0.7,0.5c0.2,0.2,0.3,0.5,0.4,0.8c0.1,0.3,0.1,0.7,0.1,1.2v4.7H114.2z M118.4,51.6h-1.2v-7.1h1.2V51.6z
			 M117.8,42.8c-0.2,0-0.4-0.1-0.6-0.2c-0.1-0.2-0.2-0.4-0.2-0.6c0-0.2,0.1-0.5,0.2-0.6c0.2-0.2,0.3-0.2,0.6-0.2
			c0.2,0,0.4,0.1,0.6,0.2c0.1,0.2,0.2,0.4,0.2,0.6c0,0.3-0.1,0.5-0.2,0.6C118.2,42.7,118,42.8,117.8,42.8z M123.3,45.9
			c-0.1-0.1-0.2-0.2-0.4-0.4c-0.2-0.2-0.5-0.2-0.8-0.2c-0.3,0-0.6,0.1-0.7,0.2c-0.2,0.1-0.3,0.3-0.3,0.5c0,0.3,0.1,0.5,0.2,0.7
			c0.2,0.2,0.4,0.4,0.7,0.6l0.4,0.3c0.5,0.3,0.9,0.6,1.1,0.9c0.3,0.3,0.4,0.8,0.4,1.3c0,0.6-0.2,1-0.6,1.4c-0.4,0.4-1,0.6-1.7,0.6
			c-0.3,0-0.5,0-0.8-0.1c-0.2-0.1-0.4-0.1-0.6-0.2c-0.2-0.1-0.3-0.2-0.4-0.3c-0.1-0.1-0.2-0.2-0.3-0.3l0.6-1
			c0.1,0.1,0.1,0.1,0.2,0.2c0.1,0.1,0.2,0.2,0.3,0.2c0.1,0.1,0.3,0.1,0.4,0.2c0.1,0,0.3,0.1,0.5,0.1c0.4,0,0.6-0.1,0.8-0.2
			c0.2-0.2,0.3-0.4,0.3-0.6c0-0.2,0-0.3-0.1-0.4c0-0.1-0.1-0.2-0.2-0.3c-0.1-0.1-0.2-0.2-0.3-0.3c-0.1-0.1-0.3-0.2-0.4-0.3l-0.4-0.3
			c-0.4-0.3-0.8-0.6-1-0.9c-0.3-0.3-0.4-0.7-0.4-1.2c0-0.3,0.1-0.5,0.2-0.7c0.1-0.2,0.2-0.4,0.4-0.6c0.2-0.2,0.4-0.3,0.7-0.4
			c0.3-0.1,0.5-0.1,0.8-0.1c0.3,0,0.5,0,0.7,0.1c0.2,0.1,0.4,0.1,0.5,0.2c0.1,0.1,0.3,0.2,0.4,0.3c0.1,0.1,0.2,0.2,0.2,0.2
			L123.3,45.9z M128.5,45.5h-1.6v4c0,0.5,0.1,0.8,0.2,1c0.1,0.2,0.3,0.3,0.7,0.3c0.2,0,0.3,0,0.5-0.1c0.1,0,0.2-0.1,0.3-0.1l0.2,1
			c0,0-0.2,0.1-0.4,0.2c-0.2,0.1-0.4,0.1-0.8,0.1c-0.6,0-1.1-0.2-1.4-0.5c-0.3-0.3-0.5-0.9-0.5-1.7v-4.1h-0.9v-0.8l0.9-0.2l0.1-2
			h1.1v2h1.7L128.5,45.5z M134.3,46.9c0,0.3,0,0.6,0,0.8c0,0.2,0,0.4-0.1,0.6h-3.6c0,0.8,0.2,1.5,0.5,1.9c0.3,0.4,0.8,0.6,1.4,0.6
			c0.2,0,0.4,0,0.6-0.1c0.2,0,0.3-0.1,0.4-0.2c0.1-0.1,0.2-0.1,0.3-0.2c0.1-0.1,0.1-0.1,0.2-0.2l0.4,0.8c0,0.1-0.1,0.1-0.2,0.2
			c-0.1,0.1-0.2,0.2-0.4,0.3c-0.2,0.1-0.4,0.2-0.6,0.2c-0.2,0.1-0.5,0.1-0.9,0.1c-0.4,0-0.8-0.1-1.2-0.2c-0.4-0.1-0.7-0.4-0.9-0.7
			c-0.3-0.3-0.4-0.7-0.6-1.2c-0.1-0.5-0.2-1.1-0.2-1.7c0-0.6,0.1-1.2,0.2-1.6c0.1-0.5,0.3-0.8,0.6-1.1c0.2-0.3,0.5-0.5,0.9-0.7
			c0.3-0.1,0.7-0.2,1.1-0.2c0.7,0,1.2,0.2,1.6,0.6C134.1,45.4,134.3,46,134.3,46.9z M132,45.3c-0.4,0-0.8,0.2-1,0.5
			c-0.3,0.4-0.4,0.9-0.4,1.5h2.6c0,0,0-0.1,0-0.2c0-0.1,0-0.2,0-0.3c0-0.5-0.1-0.9-0.3-1.2C132.7,45.4,132.4,45.3,132,45.3z
			 M139,45.5c0,0-0.1,0-0.2-0.1c-0.1,0-0.2,0-0.4,0c-0.4,0-0.7,0.1-0.9,0.3c-0.2,0.2-0.4,0.4-0.5,0.7v5.2h-1.2v-7.1h1.1v1h0
			c0.1-0.1,0.1-0.3,0.2-0.4c0.1-0.1,0.2-0.3,0.3-0.4c0.1-0.1,0.3-0.2,0.4-0.2c0.2-0.1,0.4-0.1,0.6-0.1c0.2,0,0.3,0,0.4,0
			c0.1,0,0.2,0.1,0.2,0.1L139,45.5z M141.4,51.6h-1.2v-7.1h1.2V51.6z M140.8,42.8c-0.2,0-0.4-0.1-0.6-0.2c-0.1-0.2-0.2-0.4-0.2-0.6
			c0-0.2,0.1-0.5,0.2-0.6c0.2-0.2,0.3-0.2,0.6-0.2c0.2,0,0.4,0.1,0.6,0.2c0.1,0.2,0.2,0.4,0.2,0.6c0,0.3-0.1,0.5-0.2,0.6
			C141.3,42.7,141.1,42.8,140.8,42.8z M148.3,51.6h-1.1v-0.8h0c0,0.1-0.1,0.1-0.2,0.3c-0.1,0.1-0.2,0.2-0.4,0.3
			c-0.2,0.1-0.3,0.2-0.6,0.3c-0.2,0.1-0.5,0.1-0.7,0.1c-0.3,0-0.6,0-0.9-0.1c-0.3-0.1-0.5-0.2-0.6-0.5c-0.2-0.2-0.3-0.5-0.4-0.8
			c-0.1-0.3-0.1-0.7-0.1-1.2v-4.7h1.2v4.6c0,0.6,0.1,1,0.3,1.3c0.2,0.3,0.5,0.4,0.9,0.4c0.3,0,0.6-0.1,0.9-0.3
			c0.2-0.2,0.4-0.3,0.6-0.5v-5.5h1.2V51.6z M153.8,51.6V47c0-0.6-0.1-1-0.3-1.3c-0.2-0.3-0.4-0.4-0.8-0.4c-0.2,0-0.4,0-0.5,0.1
			c-0.2,0-0.3,0.1-0.4,0.2c-0.1,0.1-0.2,0.2-0.3,0.2c-0.1,0.1-0.2,0.2-0.2,0.2v5.5h-1.2v-7.1h1.1v0.8h0c0-0.1,0.1-0.2,0.2-0.3
			c0.1-0.1,0.2-0.2,0.4-0.3c0.1-0.1,0.3-0.2,0.5-0.3c0.2-0.1,0.4-0.1,0.7-0.1c0.8,0,1.4,0.3,1.7,1c0.1-0.1,0.2-0.2,0.3-0.3
			c0.1-0.1,0.3-0.2,0.4-0.3c0.2-0.1,0.3-0.2,0.5-0.2c0.2-0.1,0.4-0.1,0.7-0.1c1.4,0,2.2,0.8,2.2,2.5v4.8h-1.2V47
			c0-0.6-0.1-1-0.3-1.3c-0.2-0.3-0.5-0.4-0.9-0.4c-0.3,0-0.6,0.1-0.8,0.2c-0.2,0.2-0.4,0.3-0.5,0.5c0,0.1,0,0.2,0,0.3
			c0,0.1,0,0.3,0,0.4v4.8H153.8z M60.3,60.4h-1.5v6.2h-1.2v-6.2h-0.9v-0.8l0.9-0.2V58c0-0.4,0.1-0.7,0.2-1c0.1-0.3,0.3-0.5,0.4-0.7
			c0.2-0.2,0.4-0.3,0.6-0.4c0.2-0.1,0.5-0.1,0.8-0.1c0.3,0,0.5,0,0.7,0.1c0.2,0.1,0.3,0.1,0.4,0.2l-0.3,1c-0.1,0-0.1-0.1-0.3-0.1
			c-0.1,0-0.2-0.1-0.4-0.1c-0.3,0-0.5,0.1-0.7,0.3c-0.1,0.2-0.2,0.5-0.2,1v1.3h1.6L60.3,60.4z M66.4,66.6h-1.1v-0.8h0
			c0,0.1-0.1,0.1-0.2,0.3c-0.1,0.1-0.2,0.2-0.4,0.3c-0.2,0.1-0.3,0.2-0.6,0.3c-0.2,0.1-0.5,0.1-0.7,0.1c-0.3,0-0.6,0-0.9-0.1
			c-0.3-0.1-0.5-0.2-0.6-0.5c-0.2-0.2-0.3-0.5-0.4-0.8c-0.1-0.3-0.1-0.7-0.1-1.2v-4.7h1.2v4.6c0,0.6,0.1,1,0.3,1.3
			c0.2,0.3,0.5,0.4,0.9,0.4c0.3,0,0.6-0.1,0.9-0.3c0.2-0.2,0.4-0.3,0.6-0.5v-5.5h1.2V66.6z M63.5,57.4c0,0.2-0.1,0.4-0.2,0.5
			c-0.1,0.1-0.3,0.2-0.5,0.2c-0.2,0-0.4-0.1-0.5-0.2c-0.1-0.1-0.2-0.3-0.2-0.5c0-0.2,0.1-0.4,0.2-0.5c0.1-0.1,0.3-0.2,0.5-0.2
			c0.2,0,0.4,0.1,0.5,0.2C63.4,57,63.5,57.2,63.5,57.4z M65.8,57.4c0,0.2-0.1,0.4-0.2,0.5c-0.1,0.1-0.3,0.2-0.5,0.2
			c-0.2,0-0.4-0.1-0.5-0.2c-0.1-0.1-0.2-0.3-0.2-0.5c0-0.2,0.1-0.4,0.2-0.5c0.1-0.1,0.3-0.2,0.5-0.2c0.2,0,0.4,0.1,0.5,0.2
			C65.7,57,65.8,57.2,65.8,57.4z M71.4,60.5c0,0-0.1,0-0.2-0.1c-0.1,0-0.2,0-0.4,0c-0.4,0-0.7,0.1-0.9,0.3c-0.2,0.2-0.4,0.4-0.5,0.7
			v5.2h-1.2v-7.1h1.1v1h0c0-0.1,0.1-0.3,0.2-0.4c0.1-0.1,0.2-0.3,0.3-0.4c0.1-0.1,0.3-0.2,0.4-0.2c0.2-0.1,0.4-0.1,0.6-0.1
			c0.2,0,0.3,0,0.4,0c0.1,0,0.2,0.1,0.2,0.1L71.4,60.5z M81,59c0,0.4,0,0.7-0.1,0.9c-0.1,0.3-0.2,0.5-0.4,0.7
			c-0.2,0.2-0.3,0.3-0.5,0.5c-0.2,0.1-0.4,0.2-0.6,0.3v0c0.3,0,0.5,0.1,0.7,0.3c0.2,0.1,0.4,0.3,0.6,0.5c0.2,0.2,0.3,0.5,0.4,0.7
			c0.1,0.3,0.2,0.6,0.2,0.9c0,0.4-0.1,0.8-0.2,1.1c-0.1,0.3-0.4,0.6-0.6,0.9c-0.3,0.2-0.7,0.4-1.1,0.6c-0.4,0.1-1,0.2-1.6,0.2h-2.1
			V56.3h2c0.6,0,1.1,0.1,1.6,0.2c0.4,0.1,0.8,0.3,1.1,0.5c0.3,0.2,0.5,0.5,0.6,0.8C81,58.2,81,58.6,81,59z M79.7,59
			c0-0.5-0.2-0.9-0.5-1.2c-0.3-0.3-0.9-0.5-1.6-0.5H77v3.5h0.7c0.7,0,1.2-0.2,1.6-0.5C79.6,60.1,79.7,59.6,79.7,59z M79.9,63.7
			c0-0.6-0.2-1-0.5-1.3c-0.4-0.3-0.9-0.5-1.6-0.5H77v3.6h0.8c0.8,0,1.3-0.2,1.7-0.5C79.8,64.8,79.9,64.3,79.9,63.7z M84.1,66.6h-1.2
			v-7.1h1.2V66.6z M83.5,57.7c-0.2,0-0.4-0.1-0.6-0.2c-0.1-0.2-0.2-0.4-0.2-0.6c0-0.2,0.1-0.4,0.2-0.6c0.1-0.2,0.3-0.2,0.6-0.2
			c0.2,0,0.4,0.1,0.6,0.2c0.1,0.2,0.2,0.4,0.2,0.6c0,0.3-0.1,0.5-0.2,0.6C83.9,57.7,83.7,57.7,83.5,57.7z M87.1,64.9
			c0,0.3,0,0.5,0.1,0.6c0.1,0.1,0.2,0.2,0.4,0.2c0.1,0,0.2,0,0.3,0c0.1,0,0.1,0,0.2-0.1l0.1,0.9c-0.1,0-0.2,0.1-0.3,0.1
			c-0.2,0.1-0.4,0.1-0.6,0.1c-0.4,0-0.7-0.1-1-0.4c-0.2-0.2-0.4-0.7-0.4-1.3v-8.9l1.2-0.1V64.9z M89,63.1c0-0.7,0.1-1.3,0.3-1.8
			c0.2-0.5,0.4-0.9,0.7-1.2c0.3-0.3,0.6-0.5,1-0.6c0.4-0.1,0.8-0.2,1.1-0.2c0.2,0,0.4,0,0.6,0.1c0.2,0,0.3,0.1,0.4,0.1v-3.4l1.2-0.1
			v10.6h-1.1v-0.8h0c0,0.1-0.1,0.1-0.2,0.2c-0.1,0.1-0.2,0.2-0.3,0.3c-0.1,0.1-0.3,0.2-0.5,0.3c-0.2,0.1-0.5,0.1-0.7,0.1
			c-0.3,0-0.7-0.1-1-0.2c-0.3-0.1-0.6-0.3-0.8-0.6c-0.2-0.3-0.4-0.7-0.5-1.1C89.1,64.3,89,63.8,89,63.1z M91.8,65.7
			c0.2,0,0.4,0,0.5-0.1c0.1,0,0.3-0.1,0.4-0.2c0.1-0.1,0.2-0.2,0.3-0.2c0.1-0.1,0.1-0.1,0.2-0.2v-4.4c-0.1-0.1-0.2-0.1-0.4-0.2
			c-0.1,0-0.3-0.1-0.5-0.1c-0.3,0-0.5,0-0.8,0.1c-0.2,0.1-0.5,0.3-0.6,0.5c-0.2,0.2-0.3,0.5-0.4,0.8c-0.1,0.3-0.2,0.8-0.2,1.3
			c0,0.5,0,0.9,0.1,1.2c0.1,0.3,0.2,0.6,0.4,0.8c0.1,0.2,0.3,0.3,0.5,0.4C91.4,65.7,91.6,65.7,91.8,65.7z M101.2,66.6h-1.1v-0.8h0
			c0,0.1-0.1,0.1-0.2,0.3c-0.1,0.1-0.2,0.2-0.4,0.3c-0.2,0.1-0.3,0.2-0.6,0.3c-0.2,0.1-0.5,0.1-0.7,0.1c-0.3,0-0.6,0-0.9-0.1
			c-0.3-0.1-0.5-0.2-0.6-0.5c-0.2-0.2-0.3-0.5-0.4-0.8c-0.1-0.3-0.1-0.7-0.1-1.2v-4.7h1.2v4.6c0,0.6,0.1,1,0.3,1.3
			c0.2,0.3,0.5,0.4,0.9,0.4c0.3,0,0.6-0.1,0.9-0.3c0.2-0.2,0.4-0.3,0.6-0.5v-5.5h1.2V66.6z M106.9,66.6V62c0-0.6-0.1-1-0.3-1.3
			c-0.2-0.3-0.5-0.4-0.9-0.4c-0.4,0-0.7,0.1-0.9,0.3c-0.2,0.2-0.4,0.4-0.6,0.5v5.5H103v-7.1h1.1v0.8h0c0-0.1,0.1-0.1,0.2-0.3
			c0.1-0.1,0.2-0.2,0.4-0.3c0.2-0.1,0.3-0.2,0.6-0.3c0.2-0.1,0.5-0.1,0.7-0.1c0.3,0,0.6,0,0.9,0.1c0.3,0.1,0.5,0.2,0.7,0.5
			c0.2,0.2,0.3,0.5,0.4,0.8c0.1,0.3,0.1,0.7,0.1,1.2v4.7H106.9z M115,60.4h-0.9c0.2,0.4,0.3,0.8,0.3,1.3c0,0.4-0.1,0.7-0.2,1
			c-0.1,0.3-0.3,0.6-0.5,0.8c-0.2,0.2-0.5,0.4-0.8,0.5c-0.3,0.1-0.6,0.2-1,0.2c-0.1,0-0.1,0-0.2,0c-0.1,0-0.1,0-0.2,0
			c-0.1,0.1-0.2,0.1-0.4,0.2c-0.1,0.1-0.2,0.3-0.2,0.4c0,0.1,0.1,0.3,0.2,0.4c0.1,0.1,0.3,0.1,0.6,0.1h0.9c0.3,0,0.6,0,0.9,0.1
			c0.3,0.1,0.5,0.2,0.7,0.3c0.2,0.2,0.4,0.3,0.5,0.6c0.1,0.2,0.2,0.5,0.2,0.9c0,0.4-0.1,0.7-0.2,1.1c-0.2,0.3-0.4,0.6-0.7,0.8
			c-0.3,0.2-0.7,0.4-1.1,0.5c-0.4,0.1-0.9,0.2-1.4,0.2c-0.8,0-1.3-0.2-1.7-0.5c-0.4-0.3-0.6-0.8-0.6-1.4c0-0.3,0-0.5,0.1-0.7
			c0.1-0.2,0.2-0.4,0.3-0.5c0.1-0.1,0.3-0.3,0.4-0.3c0.1-0.1,0.2-0.2,0.3-0.2v0c-0.3-0.2-0.5-0.6-0.5-1c0-0.2,0-0.4,0.1-0.5
			c0.1-0.1,0.2-0.3,0.3-0.3c0.1-0.1,0.2-0.2,0.3-0.2c0.1-0.1,0.2-0.1,0.2-0.1v0c-0.4-0.2-0.7-0.4-0.9-0.8c-0.2-0.4-0.3-0.8-0.3-1.4
			c0-0.4,0.1-0.7,0.2-1c0.1-0.3,0.3-0.6,0.5-0.8c0.2-0.2,0.5-0.3,0.8-0.4c0.3-0.1,0.6-0.1,0.9-0.1c0.3,0,0.7,0.1,0.9,0.2h2.2
			L115,60.4z M111.7,66.4c-0.2,0-0.4,0-0.5,0c-0.1,0.1-0.2,0.1-0.3,0.2c-0.1,0.1-0.2,0.2-0.2,0.3c-0.1,0.1-0.1,0.2-0.2,0.3
			c0,0.1-0.1,0.3-0.1,0.5c0,0.8,0.4,1.1,1.3,1.1c0.7,0,1.3-0.1,1.6-0.4c0.3-0.3,0.5-0.6,0.5-1c0-0.3-0.1-0.6-0.3-0.7
			c-0.2-0.1-0.5-0.2-0.9-0.2H111.7z M113.3,61.7c0-0.5-0.1-0.9-0.4-1.1c-0.2-0.2-0.5-0.3-0.9-0.3c-0.3,0-0.6,0.1-0.9,0.3
			c-0.2,0.2-0.4,0.6-0.4,1.1c0,0.5,0.1,0.9,0.4,1.1c0.2,0.2,0.5,0.3,0.9,0.3c0.3,0,0.6-0.1,0.9-0.3
			C113.2,62.6,113.3,62.2,113.3,61.7z M62.2,81.6h-1.1v-0.8h0c0,0.1-0.1,0.1-0.2,0.3c-0.1,0.1-0.2,0.2-0.4,0.3
			c-0.2,0.1-0.3,0.2-0.6,0.3c-0.2,0.1-0.5,0.1-0.7,0.1c-0.3,0-0.6,0-0.9-0.1c-0.3-0.1-0.5-0.2-0.6-0.5c-0.2-0.2-0.3-0.5-0.4-0.8
			c-0.1-0.3-0.1-0.7-0.1-1.2v-4.7h1.2V79c0,0.6,0.1,1,0.3,1.3c0.2,0.3,0.5,0.4,0.9,0.4c0.3,0,0.6-0.1,0.9-0.3
			c0.2-0.2,0.4-0.3,0.6-0.5v-5.5h1.2V81.6z M68,81.6V77c0-0.6-0.1-1-0.3-1.3c-0.2-0.3-0.5-0.4-0.9-0.4c-0.4,0-0.7,0.1-0.9,0.3
			c-0.2,0.2-0.4,0.4-0.6,0.5v5.5h-1.2v-7.1h1.1v0.8h0c0-0.1,0.1-0.1,0.2-0.3c0.1-0.1,0.2-0.2,0.4-0.3c0.2-0.1,0.3-0.2,0.6-0.3
			c0.2-0.1,0.5-0.1,0.7-0.1c0.3,0,0.6,0,0.9,0.1c0.3,0.1,0.5,0.2,0.7,0.5c0.2,0.2,0.3,0.5,0.4,0.8c0.1,0.3,0.1,0.7,0.1,1.2v4.7H68z
			 M70.7,78.1c0-0.7,0.1-1.3,0.3-1.8c0.2-0.5,0.4-0.9,0.7-1.2c0.3-0.3,0.6-0.5,1-0.6c0.4-0.1,0.8-0.2,1.1-0.2c0.2,0,0.4,0,0.6,0.1
			c0.2,0,0.3,0.1,0.4,0.1v-3.4l1.2-0.1v10.6h-1.1v-0.8h0c0,0.1-0.1,0.1-0.2,0.2c-0.1,0.1-0.2,0.2-0.3,0.3c-0.1,0.1-0.3,0.2-0.5,0.3
			c-0.2,0.1-0.5,0.1-0.7,0.1c-0.3,0-0.7-0.1-1-0.2c-0.3-0.1-0.6-0.3-0.8-0.6c-0.2-0.3-0.4-0.7-0.5-1.1
			C70.7,79.3,70.7,78.8,70.7,78.1z M73.5,80.7c0.2,0,0.4,0,0.5-0.1c0.1-0.1,0.3-0.1,0.4-0.2c0.1-0.1,0.2-0.2,0.3-0.2
			c0.1-0.1,0.1-0.1,0.2-0.2v-4.4c-0.1-0.1-0.2-0.1-0.4-0.2c-0.1-0.1-0.3-0.1-0.5-0.1c-0.3,0-0.5,0-0.8,0.1c-0.2,0.1-0.5,0.3-0.6,0.5
			c-0.2,0.2-0.3,0.5-0.4,0.8c-0.1,0.3-0.2,0.8-0.2,1.3c0,0.5,0,0.9,0.1,1.2c0.1,0.3,0.2,0.6,0.3,0.8c0.1,0.2,0.3,0.3,0.5,0.4
			C73.1,80.6,73.3,80.7,73.5,80.7z M81.3,81.6V71.3h5l-0.1,1h-3.7v3.8h3.4v1h-3.4v4.4H81.3z M87.2,78c0-0.7,0.1-1.2,0.2-1.7
			c0.2-0.5,0.4-0.9,0.6-1.2c0.3-0.3,0.6-0.5,0.9-0.7c0.3-0.1,0.7-0.2,1.1-0.2c0.4,0,0.8,0.1,1.1,0.2c0.3,0.1,0.6,0.4,0.9,0.7
			c0.2,0.3,0.4,0.7,0.6,1.2c0.1,0.5,0.2,1,0.2,1.7c0,0.7-0.1,1.2-0.2,1.7c-0.1,0.5-0.4,0.9-0.6,1.2c-0.3,0.3-0.6,0.5-0.9,0.7
			c-0.3,0.1-0.7,0.2-1.1,0.2c-0.4,0-0.8-0.1-1.1-0.2c-0.3-0.1-0.6-0.4-0.9-0.7c-0.2-0.3-0.4-0.7-0.6-1.2
			C87.3,79.3,87.2,78.7,87.2,78z M91.6,78c0-1-0.1-1.6-0.4-2.1c-0.3-0.4-0.7-0.6-1.2-0.6c-0.5,0-0.9,0.2-1.2,0.6
			c-0.3,0.4-0.4,1.1-0.4,2.1c0,1,0.1,1.6,0.4,2c0.3,0.4,0.7,0.6,1.2,0.6c0.5,0,0.9-0.2,1.2-0.6C91.5,79.6,91.6,79,91.6,78z
			 M97.5,75.5c0,0-0.1,0-0.2-0.1c-0.1,0-0.2,0-0.4,0c-0.4,0-0.7,0.1-0.9,0.3c-0.2,0.2-0.4,0.4-0.5,0.7v5.2h-1.2v-7.1h1.1v1h0
			c0-0.1,0.1-0.3,0.2-0.4c0.1-0.1,0.2-0.3,0.3-0.4c0.1-0.1,0.3-0.2,0.4-0.2c0.2-0.1,0.4-0.1,0.6-0.1c0.2,0,0.3,0,0.4,0
			c0.1,0,0.2,0.1,0.2,0.1L97.5,75.5z M101.7,75.9c-0.1-0.1-0.2-0.2-0.4-0.4c-0.2-0.2-0.5-0.2-0.8-0.2c-0.3,0-0.6,0.1-0.7,0.2
			c-0.2,0.1-0.3,0.3-0.3,0.5c0,0.3,0.1,0.5,0.2,0.7c0.2,0.2,0.4,0.4,0.7,0.6l0.4,0.3c0.5,0.3,0.9,0.6,1.1,0.9
			c0.3,0.3,0.4,0.8,0.4,1.3c0,0.6-0.2,1-0.6,1.4c-0.4,0.4-1,0.6-1.7,0.6c-0.3,0-0.5,0-0.8-0.1c-0.2-0.1-0.4-0.1-0.6-0.2
			c-0.2-0.1-0.3-0.2-0.4-0.3c-0.1-0.1-0.2-0.2-0.3-0.3l0.6-1c0.1,0.1,0.1,0.1,0.2,0.2c0.1,0.1,0.2,0.2,0.3,0.2
			c0.1,0.1,0.3,0.1,0.4,0.2c0.1,0.1,0.3,0.1,0.5,0.1c0.4,0,0.6-0.1,0.8-0.2c0.2-0.2,0.3-0.3,0.3-0.6c0-0.2,0-0.3-0.1-0.4
			c0-0.1-0.1-0.2-0.2-0.3c-0.1-0.1-0.2-0.2-0.3-0.3c-0.1-0.1-0.3-0.2-0.4-0.3l-0.4-0.3c-0.4-0.3-0.8-0.6-1-0.9
			c-0.3-0.3-0.4-0.7-0.4-1.2c0-0.3,0.1-0.5,0.2-0.7c0.1-0.2,0.2-0.4,0.4-0.6c0.2-0.2,0.4-0.3,0.7-0.4c0.3-0.1,0.5-0.1,0.8-0.1
			c0.3,0,0.5,0,0.7,0.1c0.2,0.1,0.4,0.1,0.5,0.2c0.1,0.1,0.3,0.2,0.4,0.3c0.1,0.1,0.2,0.2,0.2,0.2L101.7,75.9z M107.8,75.8
			c0,0-0.1-0.1-0.1-0.1c-0.1-0.1-0.1-0.1-0.2-0.2c-0.1-0.1-0.2-0.1-0.4-0.2c-0.1,0-0.3-0.1-0.5-0.1c-0.3,0-0.5,0-0.7,0.1
			c-0.2,0.1-0.4,0.2-0.6,0.5c-0.2,0.2-0.3,0.5-0.4,0.8c-0.1,0.3-0.1,0.7-0.1,1.2c0,0.5,0,1,0.1,1.3c0.1,0.4,0.2,0.6,0.3,0.9
			c0.1,0.2,0.3,0.4,0.5,0.5c0.2,0.1,0.4,0.1,0.7,0.1c0.4,0,0.6-0.1,0.8-0.2c0.2-0.1,0.3-0.2,0.4-0.3l0.5,0.8c0,0.1-0.1,0.1-0.2,0.2
			c-0.1,0.1-0.2,0.2-0.4,0.2c-0.1,0.1-0.3,0.1-0.5,0.2c-0.2,0.1-0.5,0.1-0.7,0.1c-0.4,0-0.8-0.1-1.1-0.2c-0.3-0.1-0.6-0.3-0.9-0.6
			c-0.3-0.3-0.5-0.7-0.6-1.2c-0.1-0.5-0.2-1.1-0.2-1.8c0-0.7,0.1-1.3,0.3-1.7c0.2-0.5,0.4-0.9,0.7-1.2c0.3-0.3,0.6-0.5,1-0.6
			c0.4-0.1,0.7-0.2,1.1-0.2c0.3,0,0.5,0,0.7,0.1c0.2,0,0.4,0.1,0.5,0.2c0.1,0.1,0.3,0.2,0.4,0.2c0.1,0.1,0.2,0.2,0.2,0.2L107.8,75.8
			z M113.4,81.6V77c0-0.6-0.1-1-0.3-1.3c-0.2-0.3-0.5-0.4-0.9-0.4c-0.4,0-0.7,0.1-0.9,0.3c-0.2,0.2-0.4,0.4-0.6,0.5v5.5h-1.2V71.1
			l1.2-0.1v4.2h0c0-0.1,0.1-0.1,0.2-0.2c0.1-0.1,0.2-0.2,0.3-0.3c0.1-0.1,0.3-0.2,0.5-0.3c0.2-0.1,0.5-0.1,0.8-0.1
			c0.6,0,1.1,0.2,1.5,0.6c0.4,0.4,0.6,1.1,0.6,2v4.7H113.4z M121.4,81.6h-1.1v-0.8h0c0,0.1-0.1,0.1-0.2,0.3
			c-0.1,0.1-0.2,0.2-0.4,0.3c-0.2,0.1-0.3,0.2-0.6,0.3c-0.2,0.1-0.5,0.1-0.7,0.1c-0.3,0-0.6,0-0.9-0.1c-0.3-0.1-0.5-0.2-0.6-0.5
			c-0.2-0.2-0.3-0.5-0.4-0.8c-0.1-0.3-0.1-0.7-0.1-1.2v-4.7h1.2V79c0,0.6,0.1,1,0.3,1.3c0.2,0.3,0.5,0.4,0.9,0.4
			c0.3,0,0.6-0.1,0.9-0.3c0.2-0.2,0.4-0.3,0.6-0.5v-5.5h1.2V81.6z M127.2,81.6V77c0-0.6-0.1-1-0.3-1.3c-0.2-0.3-0.5-0.4-0.9-0.4
			c-0.4,0-0.7,0.1-0.9,0.3c-0.2,0.2-0.4,0.4-0.6,0.5v5.5h-1.2v-7.1h1.1v0.8h0c0-0.1,0.1-0.1,0.2-0.3c0.1-0.1,0.2-0.2,0.4-0.3
			c0.2-0.1,0.3-0.2,0.6-0.3c0.2-0.1,0.5-0.1,0.7-0.1c0.3,0,0.6,0,0.9,0.1c0.3,0.1,0.5,0.2,0.7,0.5c0.2,0.2,0.3,0.5,0.4,0.8
			c0.1,0.3,0.1,0.7,0.1,1.2v4.7H127.2z M135.3,75.4h-0.9c0.2,0.4,0.3,0.8,0.3,1.3c0,0.4-0.1,0.7-0.2,1c-0.1,0.3-0.3,0.6-0.5,0.8
			c-0.2,0.2-0.5,0.4-0.8,0.5c-0.3,0.1-0.6,0.2-1,0.2c-0.1,0-0.1,0-0.2,0c-0.1,0-0.1,0-0.2,0c-0.1,0.1-0.2,0.1-0.4,0.2
			c-0.1,0.1-0.2,0.3-0.2,0.4c0,0.1,0.1,0.3,0.2,0.4c0.1,0.1,0.3,0.1,0.6,0.1h0.9c0.3,0,0.7,0,0.9,0.1c0.3,0.1,0.5,0.2,0.8,0.3
			c0.2,0.2,0.4,0.3,0.5,0.6c0.1,0.2,0.2,0.5,0.2,0.9c0,0.4-0.1,0.7-0.2,1.1c-0.2,0.3-0.4,0.6-0.7,0.8c-0.3,0.2-0.7,0.4-1.1,0.5
			c-0.4,0.1-0.9,0.2-1.4,0.2c-0.8,0-1.3-0.2-1.7-0.5c-0.4-0.3-0.6-0.8-0.6-1.4c0-0.3,0-0.5,0.1-0.7c0.1-0.2,0.2-0.4,0.3-0.5
			c0.1-0.1,0.3-0.3,0.4-0.3c0.1-0.1,0.2-0.2,0.3-0.2v0c-0.3-0.2-0.5-0.6-0.5-1c0-0.2,0-0.4,0.1-0.5c0.1-0.1,0.2-0.2,0.3-0.3
			c0.1-0.1,0.2-0.2,0.3-0.2c0.1-0.1,0.2-0.1,0.2-0.1v0c-0.4-0.2-0.7-0.4-0.9-0.8c-0.2-0.4-0.3-0.8-0.3-1.4c0-0.4,0.1-0.7,0.2-1
			c0.1-0.3,0.3-0.6,0.5-0.8c0.2-0.2,0.5-0.3,0.8-0.4c0.3-0.1,0.6-0.1,0.9-0.1c0.3,0,0.7,0.1,1,0.2h2.2L135.3,75.4z M132,81.4
			c-0.2,0-0.4,0-0.5,0c-0.1,0-0.2,0.1-0.3,0.2c-0.1,0.1-0.2,0.2-0.2,0.3c-0.1,0.1-0.1,0.2-0.2,0.3c0,0.1-0.1,0.3-0.1,0.5
			c0,0.8,0.4,1.1,1.3,1.1c0.7,0,1.3-0.1,1.6-0.4c0.3-0.3,0.5-0.6,0.5-1c0-0.3-0.1-0.6-0.3-0.7c-0.2-0.1-0.5-0.2-0.9-0.2H132z
			 M133.6,76.7c0-0.5-0.1-0.9-0.4-1.1c-0.2-0.2-0.5-0.3-0.9-0.3c-0.3,0-0.6,0.1-0.9,0.3c-0.2,0.2-0.4,0.6-0.4,1.1
			c0,0.5,0.1,0.9,0.4,1.1c0.2,0.2,0.5,0.3,0.9,0.3c0.3,0,0.6-0.1,0.9-0.3C133.4,77.5,133.6,77.2,133.6,76.7z"/>
		<polygon class="st4" points="46.3,91.6 48.2,91.6 48.2,116.5 43.8,116.5 43.8,91.6 		"/>
		<polygon class="st5" points="46.3,66.5 48.2,66.5 48.2,91.6 43.8,91.6 43.8,66.5 		"/>
		<g>
			<path class="st3" d="M32.5,50.4c1.3,2,2.3,2,3.8,2c-1.3-1-2.1-2.2-2.5-2.8l-2.3-3.7c-0.2-1.2-0.8-2.2-1.7-3
				c0.3-0.1,0.5-0.2,0.7-0.3c-1.5,0-3-0.8-3.9-0.8c-0.5,0-0.9,0.3-0.9,0.7c0,0.5,0.5,0.9,1.4,0.9c0.2,0,0.5,0,0.7-0.1
				c0.5,0.7,0.9,1.3,0.9,2.2c0,1.6-2,2.9-3.9,2.9c-0.1,0-0.2,0-0.3,0c-0.2-0.4-0.8-1.1-0.8-1.9c0-1.3,0.8-2.4,0.8-3.6
				c0-0.8-0.4-1.3-0.5-1.5c0.2-0.2,0.5-0.5,0.6-0.7c-0.1,0.1-0.3,0.1-0.6,0.1c-0.9,0-1.7-0.2-2.5-0.2c-0.4,0-0.5,0.1-0.5,0.3
				c0,0,0,0.1,0,0.1c-0.2-0.1-0.3-0.1-0.5-0.1c-0.2,0-0.5-0.1-0.7-0.1c-0.9,0-1.2,0.4-1.2,0.7c0,0.3,0.2,0.8,0.5,1.2
				c0.4-0.2,0.8-0.3,1-0.3c0.5,0,0.9,0.5,1.1,1c-0.3,0-0.4,0.1-0.7,0.1c-0.9,0-1.5-0.3-1.6-0.3c0,0,0,0,0,0c0,0.1,0.3,0.5,0.7,0.6
				c0.7,0.2,1.6,0.3,1.8,0.4c0,0-0.2,0.3-0.4,0.4c0,0-0.1,0-0.1,0c-0.7-0.1-0.9-0.2-1.7-0.5c0,0,0,0,0,0c0,0.3,0.9,1.1,1.7,1.4
				c-0.7,0.9-1.5,1.7-1.9,3c-0.1,0-0.2,0-0.3,0c-2,0-3.9-1.3-3.9-2.9c0-0.9,0.4-1.5,0.9-2.2c0.3,0,0.5,0.1,0.7,0.1
				c0.9,0,1.4-0.5,1.4-0.9c0-0.4-0.3-0.7-0.9-0.7c-0.8,0-2.3,0.8-3.9,0.8c0.2,0.1,0.4,0.2,0.7,0.3c-0.9,0.8-1.5,1.9-1.7,3l-2.3,3.7
				c-0.4,0.6-1.2,1.9-2.5,2.8c1.5,0,2.5,0,3.8-2l1.2-1.9c0.1,0.2,0.2,0.5,0.3,0.7L10,53c-0.4,0.6-1.2,1.8-2.5,2.8c1.5,0,2.5,0,3.8-2
				l2-3.3c0.2,0.2,0.3,0.3,0.5,0.5L11,55.6c-0.4,0.6-1.2,1.8-2.5,2.8c1.5,0,2.5,0,3.8-2l2.8-4.5c0.2,0.1,0.4,0.2,0.6,0.3l-3.4,5.5
				c-0.4,0.6-1.2,1.8-2.5,2.8c1.5,0,2.5,0,3.8-2l3.5-5.7c0.2,0.1,0.4,0.2,0.6,0.2l-4,6.4c-0.4,0.6-1.2,1.9-2.5,2.8
				c1.5,0,2.5,0,3.8-2l4.3-6.8c0,0,0.1,0,0.1,0c0.1,0.4,0.2,0.7,0.2,1.1c0,2.1-1.4,4-3.1,5.5c0.1,0,0.3,0.1,0.5,0.1
				c0.3,0,0.6,0,0.7,0c-0.4,0.9-1.2,2-1.7,2.6c-0.6-0.1-1.4-0.2-1.9-0.2c-0.6,0-0.6,0.3-0.6,0.6c0,0.5,0.2,0.9,0.5,1.1
				c0.1-0.3,0.3-0.6,1.3-0.6c0,0,0.1,0,0.1,0c-0.3,0.3-1.2,1.1-1.2,1.7c0,0.4,0.4,1,1,1c0-0.1,0-0.2,0-0.3c0-0.5,0.4-1.1,0.8-1.5
				c0,0.1,0,0.1,0,0.2c0,1.2,0.1,1.7,0.8,1.7c0.4,0,0.6-0.2,0.7-0.3c-0.5-0.4-0.5-0.8-0.5-1.4c0-0.2,0-0.3,0-0.6c0-0.1,0-0.3,0-0.5
				c0.3,0,0.4,0,0.6,0c0,0,1-0.1,1.3,0.5c0.3-0.3,0.7-0.6,0.7-1c0-0.3-0.1-0.6-0.7-0.6c-0.2,0-0.8,0.1-1.4,0.1
				c0.1-0.3,0.8-1.3,1.3-1.9c0.1,0.3,0.2,0.6,0.5,0.8c0-0.4,0.3-1.8,1-2.6c0.1,0.5,0.2,1.1,0.2,2.3c0,2.9-0.7,5-2.2,5.4
				c0.2,0.3,0.6,0.6,1,0.6c0.5,0,0.8-0.6,1.1-1.2c0.2,0.4,0.6,1.5,1,1.5c0.4,0,0.9-1,1-1.5c0.3,0.6,0.6,1.2,1.1,1.2
				c0.4,0,0.8-0.3,1-0.6c-1.5-0.4-2.2-2.5-2.2-5.4c0-1.2,0.1-1.8,0.2-2.3c0.7,0.8,0.9,2.2,1,2.6c0.3-0.2,0.4-0.5,0.5-0.8
				c0.6,0.7,1.2,1.6,1.3,1.9c-0.5,0-1.2-0.1-1.4-0.1c-0.5,0-0.7,0.3-0.7,0.6c0,0.4,0.4,0.8,0.7,1c0.3-0.5,1.3-0.5,1.3-0.5
				c0.2,0,0.3,0,0.6,0c0,0.1,0,0.3,0,0.5c0,0.2,0,0.4,0,0.6c0,0.7,0,1-0.5,1.4c0.1,0.1,0.3,0.3,0.7,0.3c0.7,0,0.8-0.5,0.8-1.7
				c0-0.1,0-0.1,0-0.2c0.4,0.4,0.8,1,0.8,1.5c0,0.1,0,0.2,0,0.3c0.6,0,1-0.6,1-1c0-0.6-0.9-1.4-1.2-1.7c0,0,0.1,0,0.1,0
				c1,0,1.2,0.3,1.3,0.6c0.3-0.2,0.5-0.6,0.5-1.1c0-0.3-0.1-0.6-0.6-0.6c-0.5,0-1.3,0.1-1.9,0.2c-0.4-0.6-1.3-1.7-1.7-2.6
				c0.2,0,0.4,0,0.7,0c0.2,0,0.4,0,0.5-0.1c-1.7-1.5-3.1-3.4-3.1-5.5c0-0.3,0.1-0.7,0.2-1.1c0,0,0.1,0,0.1,0l4.3,6.8
				c1.3,2,2.3,2,3.8,2c-1.2-1-2.1-2.2-2.5-2.8l-4-6.4c0.2-0.1,0.4-0.1,0.6-0.2l3.5,5.7c1.3,2,2.3,2,3.8,2c-1.3-1-2.1-2.2-2.5-2.8
				l-3.4-5.5c0.2-0.1,0.4-0.2,0.6-0.3l2.8,4.5c1.3,2,2.3,2,3.8,2c-1.3-1-2.1-2.2-2.5-2.8L29.5,51c0.2-0.2,0.3-0.3,0.5-0.5l2,3.3
				c1.3,2,2.3,2,3.8,2c-1.3-1-2.1-2.2-2.5-2.8l-2.4-3.8c0.1-0.2,0.2-0.5,0.3-0.7L32.5,50.4z M13.4,46c0-1.4,1-2.6,1.4-2.9
				c0.1,0,0.2,0,0.3,0.1c-0.4,0.5-1.1,1.3-1.1,2.3c0,2.1,2.2,3.9,4.7,3.9c0,0.2,0,0.4,0,0.6c0,0.3,0,0.6,0,0.9
				C15.9,50.8,13.4,48.5,13.4,46z M17.2,63L17.2,63L17.2,63c0.8,0,1.2,0,1.5,0c0.1,0,0.2,0,0.3,0c0.2,0,0.4,0,0.4,0.3
				c0,0.2-0.2,0.4-0.4,0.6c-0.3-0.3-0.7-0.3-1.3-0.3c-0.3,0-0.6,0-0.8,0.1l0,0l0,0l0,0.1c0,0.2,0.1,0.4,0.1,0.7l0,0.3l0,0.3
				c0,0.7,0.1,1.1,0.3,1.4c-0.1,0-0.2,0-0.2,0c-0.4,0-0.5-0.2-0.5-1.4c0-0.2,0-0.5,0-0.6l0-0.2l-0.1,0c-0.6,0.5-1.3,1.3-1.3,2
				c-0.2-0.1-0.4-0.4-0.4-0.6c0-0.3,0.5-0.9,1.1-1.5l0.3-0.3l0,0l-0.1,0c-0.1,0-0.4-0.1-0.6-0.1c-0.7,0-1.1,0.1-1.4,0.4
				c-0.1-0.1-0.2-0.5-0.2-0.6c0-0.1,0-0.2,0.1-0.3c0.1-0.1,0.2-0.1,0.2-0.1h0c0.8,0,1.6,0.1,2,0.2l0,0l0,0c0.1-0.1,1.5-2,1.9-3
				c0.1,0,0.2-0.1,0.3-0.1c0.3,0,0.4,0.2,0.4,0.5C18,61.6,17.4,62.5,17.2,63z M24.9,60c0.1,0,0.2,0,0.3,0.1c0.4,1,1.8,2.9,1.9,3l0,0
				l0,0c0.3-0.1,1.2-0.2,2-0.2h0c0.1,0,0.2,0,0.2,0.1c0,0,0.1,0.1,0.1,0.3c0,0.2-0.1,0.5-0.2,0.6c-0.3-0.3-0.7-0.4-1.4-0.4
				c-0.2,0-0.4,0.1-0.6,0.1l-0.1,0l-0.1,0l0.4,0.4c0.6,0.6,1.1,1.1,1.1,1.5c0,0.2-0.2,0.5-0.4,0.6c0-0.6-0.7-1.5-1.3-2L27,64l0,0.2
				c0,0.2,0,0.4,0,0.6c0,1.2-0.1,1.4-0.5,1.4c-0.1,0-0.2,0-0.2,0c0.2-0.3,0.3-0.7,0.3-1.4l0-0.3l0-0.3c0-0.3,0-0.5,0.1-0.7l0-0.1
				l-0.1,0c-0.2,0-0.6-0.1-0.8-0.1c-0.6,0-1,0.1-1.3,0.3c-0.2-0.2-0.4-0.4-0.4-0.6c0-0.3,0.2-0.3,0.4-0.3c0.1,0,0.2,0,0.3,0
				c0.3,0,0.6,0.1,1.4,0.1h0l0,0c-0.2-0.6-0.8-1.4-1.7-2.5C24.6,60.2,24.6,60,24.9,60z M21.6,43.4c-0.1-0.4-0.3-0.7-0.5-1
				c-0.2-0.3-0.6-0.6-1.1-0.6c-0.2,0-0.6,0.1-0.8,0.2c-0.1-0.2-0.3-0.6-0.3-0.7c0-0.2,0.3-0.4,0.9-0.4c1.3,0,2.1,0.6,2.1,1.6
				C21.9,42.8,21.7,43.2,21.6,43.4z M22.2,42.2c0-0.3-0.2-0.5-0.3-0.7c0-0.3,0.1-0.5,0.5-0.3c-0.2,0.2-0.1,0.6-0.1,0.6
				s0.4-0.2,0.4-0.5C23.4,41.4,22.9,42.3,22.2,42.2z M24.7,50.8c0-0.3,0.1-0.6,0.1-0.9c0-0.2,0-0.3,0-0.6c2.5,0,4.7-1.8,4.7-3.9
				c0-1-0.7-1.8-1.1-2.3c0.1,0,0.2,0,0.3-0.1C29,43.4,30,44.5,30,46C30,48.4,27.5,50.7,24.7,50.8z"/>
		</g>
		<polygon class="st3" points="48.2,41.6 48.2,66.6 46.3,66.6 43.8,66.6 43.8,41.6 		"/>
	</g>
</g>
<g id="Ebene_3">
	<g>
		<path class="st3" d="M60.4,12c0-0.7-0.3-1.1-1.1-1.1c-0.3,0-1.2,0-1.2,1.4v2.1c0,1.4,0.4,1.7,1.2,1.7c0.6,0,1-0.2,1.1-0.3v-1.9
			h-1.2v-0.7h2v3.1c-0.5,0.3-1.1,0.5-1.9,0.5c-1.3,0-2-0.7-2-2.4v-2.1c0-1.3,0.6-2.1,2-2.1c1.4,0,2,0.5,2,1.8H60.4z"/>
		<path class="st3" d="M62.7,16.6v-6.3H66V11h-2.5v2h2.3v0.7h-2.3v2.2H66v0.7H62.7z"/>
		<path class="st3" d="M67,16.6v-6.3h3.1V11h-2.3v2H70v0.7h-2.2v2.9H67z"/>
		<path class="st3" d="M70.9,14.3v-2.1c0-1.3,0.6-2.1,2-2.1c1.3,0,2,0.8,2,2.1v2.1c0,1.8-0.6,2.4-2,2.4C71.6,16.7,70.9,16,70.9,14.3
			z M72.6,9.5h-0.8V8.6h0.8V9.5z M74.1,14.3v-2.1c0-1.3-0.9-1.4-1.2-1.4c-0.3,0-1.2,0-1.2,1.4v2.1c0,1.4,0.4,1.7,1.2,1.7
			C73.7,16,74.1,15.7,74.1,14.3z M74.1,9.5h-0.8V8.6h0.8V9.5z"/>
		<path class="st3" d="M77.1,13.7v2.9h-0.8v-6.3h2.2c1.1,0,1.5,0.8,1.5,1.6c0,0.7-0.4,1.3-1.2,1.4v0c0.7,0.1,1,0.4,1,1.6
			c0,0.3,0.1,1.3,0.2,1.7h-0.8c-0.2-0.4-0.2-1.3-0.2-2.1c-0.1-0.8-0.7-0.8-1-0.8H77.1z M77.1,13h1.2c0.6,0,0.9-0.5,0.9-1.1
			c0-0.5-0.2-1-0.8-1h-1.2V13z"/>
		<path class="st3" d="M81.2,10.3h1.9c0.8,0,1.4,0.3,1.7,1c0.3,0.5,0.3,1.8,0.3,2c0,1.3-0.1,2.1-0.4,2.5c-0.3,0.5-1,0.8-2.1,0.8
			h-1.5V10.3z M82,15.9h0.8c1.1,0,1.5-0.4,1.5-1.9v-1.3c0-1.3-0.4-1.8-1.2-1.8H82V15.9z"/>
		<path class="st3" d="M86.5,16.6v-6.3h3.3V11h-2.5v2h2.3v0.7h-2.3v2.2h2.5v0.7H86.5z"/>
		<path class="st3" d="M91.7,13.7v2.9h-0.8v-6.3H93c1.1,0,1.5,0.8,1.5,1.6c0,0.7-0.4,1.3-1.2,1.4v0c0.7,0.1,1,0.4,1,1.6
			c0,0.3,0.1,1.3,0.2,1.7h-0.8c-0.2-0.4-0.2-1.3-0.2-2.1c-0.1-0.8-0.7-0.8-1-0.8H91.7z M91.7,13h1.2c0.6,0,0.9-0.5,0.9-1.1
			c0-0.5-0.2-1-0.8-1h-1.2V13z"/>
		<path class="st3" d="M99.3,10.3V11h-1.7v5.6h-0.8V11h-1.7v-0.7H99.3z"/>
		<path class="st3" d="M104.3,16.6h-1l-1.8-6.3h0.9l1.4,5.6h0l1.5-5.6h0.8L104.3,16.6z"/>
		<path class="st3" d="M106.9,14.3v-2.1c0-1.3,0.6-2.1,2-2.1c1.3,0,2,0.8,2,2.1v2.1c0,1.8-0.6,2.4-2,2.4
			C107.6,16.7,106.9,16,106.9,14.3z M110.1,14.3v-2.1c0-1.3-0.9-1.4-1.2-1.4s-1.2,0-1.2,1.4v2.1c0,1.4,0.4,1.7,1.2,1.7
			C109.7,16,110.1,15.7,110.1,14.3z"/>
		<path class="st3" d="M113,16.6h-0.8v-6.3h1.3l1.6,5.3h0l1.6-5.3h1.3v6.3h-0.8V11h0l-1.8,5.6h-0.8l-1.7-5.6h0V16.6z"/>
	</g>
</g>
</svg>
