<?xml version="1.0" encoding="utf-8"?>
<!-- Generator: Adobe Illustrator 22.1.0, SVG Export Plug-In . SVG Version: 6.00 Build 0)  -->
<svg version="1.1" id="Layer_1" xmlns="http://www.w3.org/2000/svg" xmlns:xlink="http://www.w3.org/1999/xlink" x="0px" y="0px"
	 viewBox="0 0 674.2 120.1" style="enable-background:new 0 0 674.2 120.1;" xml:space="preserve">
<style type="text/css">
	.st0{fill:#1D1D1B;}
	.st1{fill:#099ACF;}
	.st2{fill:#010101;}
	.st3{fill:#231F20;}
	.st4{fill:#F5CE00;}
	.st5{fill:#ED1C24;}
	.st6{fill:#6D796E;}
	.st7{fill:#E11B22;}
</style>
<g id="Ebene_4">
	<g>
		<g id="Ebene_2_1_">
			<g>
				<g>
					<path class="st0" d="M388.4,95.4h2c1.6,0,2.9,0.8,2.9,2.4c0,1.7-1.4,2.4-3,2.4h-0.8v2.9h-1.1L388.4,95.4z M389.5,99.3h0.8
						c0.7,0,1.9-0.3,1.9-1.5s-1.2-1.5-1.8-1.5h-1v3H389.5z"/>
					<path class="st0" d="M394.2,99.1c0-0.5,0-0.9-0.1-1.4h1l0.1,1.4h0.1c0.2-0.7,0.8-1.5,1.6-1.5c0.3,0,0.5,0.1,0.7,0.2v0.9
						c-0.2-0.1-0.4-0.1-0.6-0.1c-1,0-1.6,1-1.7,2.1v2.4h-1L394.2,99.1L394.2,99.1z"/>
					<path class="st0" d="M400.5,97.6c1.8,0,2.6,1.6,2.6,2.8c0,1.4-0.9,2.9-2.6,2.9s-2.7-1.4-2.7-2.9
						C397.8,99.2,398.6,97.6,400.5,97.6z M400.5,102.5c0.8,0,1.6-0.7,1.6-2.1s-0.7-2.1-1.6-2.1c-0.7,0-1.6,0.4-1.6,2.1
						C398.8,101.5,399.3,102.5,400.5,102.5z"/>
					<path class="st0" d="M403.6,97.7h0.9l0.2-1.6h0.8v1.6h1.5v0.8h-1.5v3c0,0.5,0.2,0.8,0.7,0.8c0.3,0,0.6-0.1,0.8-0.2v0.8
						c-0.2,0.1-0.5,0.3-0.9,0.3c-1,0-1.6-0.6-1.6-1.7v-3h-0.9V97.7z"/>
					<path class="st0" d="M410.2,97.6c1.8,0,2.6,1.6,2.6,2.8c0,1.4-0.9,2.9-2.6,2.9s-2.7-1.4-2.7-2.9
						C407.5,99.2,408.3,97.6,410.2,97.6z M410.2,102.5c0.8,0,1.6-0.7,1.6-2.1s-0.7-2.1-1.6-2.1c-0.7,0-1.6,0.4-1.6,2.1
						C408.6,101.5,409.1,102.5,410.2,102.5z"/>
					<path class="st0" d="M413.3,97.7h0.9l0.2-1.6h0.8v1.6h1.5v0.8h-1.5v3c0,0.5,0.2,0.8,0.7,0.8c0.3,0,0.6-0.1,0.8-0.2v0.8
						c-0.2,0.1-0.5,0.3-0.9,0.3c-1,0-1.6-0.6-1.6-1.7v-3h-0.9V97.7z"/>
					<path class="st0" d="M420,104.2c-0.3,0.8-0.9,1.1-1.5,1.1c-0.2,0-0.5,0-0.7-0.1v-0.9c0.2,0.1,0.4,0.1,0.6,0.1
						c0.3,0,0.6-0.1,0.7-0.4c0.1-0.2,0.3-0.7,0.3-0.9c0.1-0.2-0.1-0.4-0.3-0.4l-1.9-5h1.1l1.5,4.3h0.1l1.3-4.3h1.1
						C420.4,103.1,420.2,103.5,420,104.2z"/>
					<path class="st0" d="M423.9,105.2h-1v-6.6c0-0.2,0-0.6,0-0.8h0.9c0,0.2,0,0.6,0,0.8h0.1c0.4-0.6,0.9-0.9,1.6-0.9
						c1.5,0,2.3,1.3,2.3,2.8c0,1.6-0.8,2.8-2.2,2.8c-1,0-1.4-0.6-1.6-0.9h-0.1c0,0,0,0.4,0,0.7V105.2z M425.2,98.4
						c-0.7,0-1.3,0.8-1.4,1.3v1.3c0,0.6,0.6,1.4,1.4,1.4c1,0,1.4-0.9,1.4-2C426.7,99.2,426.2,98.4,425.2,98.4z"/>
					<path class="st0" d="M429.2,100.6c0,1.1,0.6,1.9,1.6,1.9c0.7,0,1.2-0.4,1.3-1h1c-0.1,0.9-0.9,1.8-2.3,1.8
						c-1.5,0-2.5-1.1-2.5-2.9c0-1.5,0.9-2.8,2.5-2.8c2,0,2.5,1.7,2.4,3H429.2L429.2,100.6z M432,99.8c0-0.5-0.3-1.5-1.4-1.5
						c-0.7,0-1.3,0.5-1.4,1.5H432z"/>
				</g>
				<g>
					<path class="st0" d="M388.4,105.5h4.3v0.9h-3.2v2.6h3v0.9h-3v3.4h-1.1V105.5z"/>
					<path class="st0" d="M398.2,107.8v4.5c0,0.3,0,0.6,0.1,0.9h-1c0-0.2,0-0.6,0-0.9h-0.1c-0.1,0.2-0.7,1-1.7,1
						c-0.7,0-1.8-0.4-1.8-2v-3.4h1v3.4c0,0.7,0.3,1.2,1,1.2c0.7,0,1.4-0.6,1.5-1.6v-3.1H398.2L398.2,107.8z"/>
					<path class="st0" d="M399.2,108.8c0-0.3,0-0.6-0.1-0.9h1v0.9h0.1c0.1-0.2,0.7-1,1.7-1c0.6,0,1.8,0.3,1.8,2v3.5h-1v-3.5
						c0-0.7-0.3-1.2-0.9-1.2c-0.7,0-1.4,0.7-1.6,1.6v3.1h-1V108.8z"/>
					<path class="st0" d="M408.3,105.5h1v6.9c0,0.2,0,0.6,0,0.8h-0.9c0-0.2,0-0.6,0-0.8h-0.1c-0.4,0.6-0.9,0.9-1.6,0.9
						c-1.5,0-2.3-1.3-2.3-2.8c0-1.6,0.8-2.8,2.2-2.8c1,0,1.4,0.6,1.6,0.9h0.1c0,0,0-0.4,0-0.7V105.5z M406.9,112.5
						c0.7,0,1.3-0.8,1.3-1.3v-1.3c0-0.6-0.6-1.4-1.4-1.4c-1,0-1.4,0.9-1.4,2C405.4,111.7,405.9,112.5,406.9,112.5z"/>
				</g>
			</g>
			<path id="XMLID_19_" class="st1" d="M418.5,34.6l6.6,0.8l7.8,15L425.1,63c0,0-8.9,2.3-12.3,3.2H405v20.3l6.3,2.2l-0.2,2.2
				l-11.2-0.2l-11.2,0.2l-0.2-2.2l6.3-2.2V38.9l-6.3-2.2l0.2-2.2L418.5,34.6z M405,61.9l6.5,1.2l10-7l3.1-5.7l-3.1-5.7l-10-6.6
				L405,39V61.9z"/>
		</g>
		<g id="Ebene_1">
		</g>
	</g>
	<g>
		<g>
			<path class="st2" d="M570.4,46.3c-2.2,0-3.7-1.6-3.7-3.6s1.5-3.6,3.7-3.6c2.2,0,3.7,1.6,3.7,3.6C574,44.7,572.6,46.3,570.4,46.3z
				 M570.4,40.4c-1.3,0-2,0.8-2,2.2s0.7,2.2,2,2.2c1.3,0,2-0.8,2-2.2C572.4,41.3,571.6,40.4,570.4,40.4z"/>
			<path class="st2" d="M578.5,43.9v2.4h-1.6v-7h2.5c2,0,2.8,1,2.8,2.3c0,1.4-0.9,2.4-2.8,2.4h-0.9V43.9z M578.5,42.6h0.8
				c0.8,0,1.2-0.4,1.2-1.2c0-0.6-0.4-1.1-1.2-1.1h-0.8V42.6z"/>
			<path class="st2" d="M589.7,39.2v1.3h-2.9v1.6h2.2v1.2h-2.2V45h2.9v1.3h-4.5v-7L589.7,39.2L589.7,39.2z"/>
			<path class="st2" d="M594.6,39.4l3.3,4.2c0-0.3,0-0.5,0-0.8v-3.7h1.4v7h-0.8c-0.2,0-0.4-0.1-0.6-0.3l-3.3-4.2c0,0.2,0,0.5,0,0.7
				v3.8h-1.4v-7h0.9C594.3,39.2,594.4,39.2,594.6,39.4z"/>
		</g>
		<g>
			<path class="st2" d="M568.7,55.1h0.3c0.2,0,0.4-0.1,0.5-0.2l1.6-2.3c0.2-0.2,0.4-0.3,0.7-0.3h1.4l-2.1,2.8
				c-0.2,0.2-0.3,0.3-0.5,0.4c0.2,0.1,0.4,0.2,0.6,0.5l2.1,3.3h-1.5c-0.4,0-0.5-0.1-0.6-0.3l-1.6-2.5c-0.1-0.2-0.3-0.2-0.6-0.2h-0.4
				v3H567v-7h1.6L568.7,55.1L568.7,55.1z"/>
			<path class="st2" d="M577.9,52.5l3.3,4.2c0-0.3,0-0.5,0-0.8v-3.7h1.4v7h-0.8c-0.2,0-0.4-0.1-0.6-0.3l-3.3-4.2c0,0.2,0,0.5,0,0.7
				v3.8h-1.4v-7h0.9C577.6,52.2,577.7,52.3,577.9,52.5z"/>
			<path class="st2" d="M589.4,59.3c-2.2,0-3.7-1.6-3.7-3.6s1.5-3.6,3.7-3.6c2.2,0,3.7,1.6,3.7,3.6S591.6,59.3,589.4,59.3z
				 M589.4,53.5c-1.3,0-2,0.8-2,2.2s0.7,2.2,2,2.2c1.2,0,2-0.8,2-2.2S590.6,53.5,589.4,53.5z"/>
			<path class="st2" d="M594.8,52.2h1.4c0.3,0,0.5,0.1,0.5,0.4l1,3.7c0.1,0.2,0.1,0.5,0.2,0.8c0.1-0.3,0.1-0.6,0.2-0.8l1.1-3.7
				c0.1-0.2,0.3-0.4,0.5-0.4h0.5c0.3,0,0.5,0.1,0.5,0.4l1.1,3.7c0.1,0.2,0.2,0.5,0.2,0.8c0.1-0.3,0.1-0.5,0.2-0.8l1-3.7
				c0.1-0.2,0.3-0.4,0.5-0.4h1.3l-2.2,7h-1.5l-1.3-4.4c0-0.1-0.1-0.3-0.1-0.5c0,0.2-0.1,0.3-0.1,0.5l-1.3,4.4H597L594.8,52.2z"/>
			<path class="st2" d="M609.7,58h2.6v1.3H608v-7h1.6V58H609.7z"/>
			<path class="st2" d="M620.3,52.2v1.3h-2.9v1.6h2.2v1.2h-2.2V58h2.9v1.3h-4.5v-7L620.3,52.2L620.3,52.2z"/>
			<path class="st2" d="M626.4,59.3h-2.7v-7h2.7c2.2,0,3.7,1.5,3.7,3.5S628.6,59.3,626.4,59.3z M626.4,53.5h-1.1V58h1.1
				c1.2,0,2-0.9,2-2.3C628.4,54.3,627.7,53.5,626.4,53.5z"/>
			<path class="st2" d="M637.4,57.9v-1.1h-0.7c-0.2,0-0.3-0.1-0.3-0.3v-0.9h2.5v3c-0.7,0.5-1.5,0.8-2.7,0.8c-2.1,0-3.6-1.5-3.6-3.6
				s1.5-3.6,3.7-3.6c1.2,0,2.1,0.4,2.6,0.9l-0.5,0.7c-0.1,0.1-0.2,0.2-0.4,0.2c-0.1,0-0.2,0-0.3-0.1c-0.5-0.3-0.9-0.4-1.5-0.4
				c-1.2,0-2,0.9-2,2.2c0,1.5,0.9,2.3,2.1,2.3C636.8,58.1,637.1,58,637.4,57.9z"/>
			<path class="st2" d="M646.7,52.2v1.3h-2.9v1.6h2.2v1.2h-2.2V58h2.9v1.3h-4.5v-7L646.7,52.2L646.7,52.2z"/>
		</g>
		<path class="st2" d="M571.6,65.3v1.3h-2.9v1.8h2.4v1.3h-2.4v2.7h-1.6v-7h4.5V65.3z"/>
		<path class="st2" d="M582.3,68.8c0,0.5-0.1,1-0.3,1.4c-0.2,0.4-0.4,0.8-0.7,1.1c-0.3,0.3-0.7,0.6-1.2,0.8
			c-0.5,0.2-0.9,0.3-1.5,0.3s-1.1-0.1-1.5-0.3c-0.5-0.2-0.8-0.4-1.2-0.8c-0.3-0.3-0.6-0.7-0.7-1.1c-0.2-0.4-0.3-0.9-0.3-1.4
			s0.1-1,0.3-1.4c0.2-0.4,0.4-0.8,0.7-1.1c0.3-0.3,0.7-0.6,1.2-0.8s0.9-0.3,1.5-0.3s1.1,0.1,1.5,0.3c0.4,0.2,0.8,0.4,1.2,0.8
			s0.6,0.7,0.7,1.1C582.2,67.8,582.3,68.3,582.3,68.8z M580.6,68.8c0-0.4,0-0.7-0.1-0.9c-0.1-0.3-0.2-0.5-0.4-0.7
			c-0.2-0.2-0.4-0.3-0.6-0.4s-0.5-0.2-0.8-0.2s-0.6,0.1-0.8,0.2c-0.2,0.1-0.5,0.2-0.6,0.4c-0.1,0.2-0.3,0.4-0.4,0.7
			c-0.1,0.3-0.1,0.6-0.1,0.9c0,0.4,0,0.7,0.1,0.9c0.1,0.3,0.2,0.5,0.4,0.7c0.2,0.2,0.4,0.3,0.6,0.4s0.5,0.2,0.8,0.2s0.6-0.1,0.8-0.2
			c0.2-0.1,0.5-0.2,0.6-0.4c0.2-0.2,0.3-0.4,0.4-0.7C580.6,69.5,580.6,69.1,580.6,68.8z"/>
		<path class="st2" d="M588.9,71c0.2,0,0.4,0,0.6-0.1s0.3-0.2,0.4-0.3c0.1-0.1,0.2-0.3,0.3-0.5c0.1-0.2,0.1-0.4,0.1-0.7v-4.2h1.6
			v4.2c0,0.4-0.1,0.8-0.2,1.2c-0.1,0.4-0.3,0.7-0.6,0.9s-0.6,0.5-0.9,0.6c-0.4,0.1-0.8,0.2-1.3,0.2s-0.9-0.1-1.3-0.2
			c-0.4-0.1-0.7-0.4-0.9-0.6c-0.3-0.3-0.5-0.6-0.6-0.9c-0.1-0.3-0.2-0.8-0.2-1.2v-4.2h1.6v4.2c0,0.2,0,0.5,0.1,0.7
			c0.1,0.2,0.2,0.4,0.3,0.5s0.3,0.2,0.4,0.3C588.5,71,588.7,71,588.9,71z"/>
		<path class="st2" d="M596.9,65.3C597,65.3,597,65.3,596.9,65.3c0.1,0,0.2,0,0.2,0.1l0.1,0.1l3.3,4.2c0-0.1,0-0.3,0-0.4
			s0-0.2,0-0.4v-3.7h1.4v7h-0.8c-0.1,0-0.2,0-0.3-0.1s-0.2-0.1-0.2-0.2l-3.3-4.2c0,0.1,0,0.2,0,0.4c0,0.1,0,0.2,0,0.3v3.8h-1.4v-7
			L596.9,65.3C596.8,65.3,596.9,65.3,596.9,65.3z"/>
		<path class="st2" d="M612.5,68.8c0,0.5-0.1,1-0.3,1.4s-0.4,0.8-0.7,1.1c-0.3,0.3-0.7,0.6-1.2,0.7c-0.5,0.2-0.9,0.3-1.5,0.3h-2.7
			v-7h2.7c0.5,0,1.1,0.1,1.5,0.3c0.4,0.2,0.8,0.4,1.2,0.7c0.3,0.3,0.6,0.7,0.7,1.1C612.4,67.8,612.5,68.3,612.5,68.8z M610.8,68.8
			c0-0.4,0-0.7-0.1-0.9c-0.1-0.3-0.2-0.5-0.4-0.7s-0.4-0.4-0.6-0.5c-0.2-0.1-0.5-0.2-0.8-0.2h-1.1V71h1.1c0.3,0,0.6-0.1,0.8-0.2
			c0.2-0.1,0.5-0.3,0.6-0.5s0.3-0.4,0.4-0.7C610.8,69.5,610.8,69.1,610.8,68.8z"/>
		<path class="st2" d="M622.7,72.3h-1.3c-0.1,0-0.3,0-0.4-0.1c-0.1-0.1-0.2-0.2-0.2-0.3l-0.4-1.2h-2.7l-0.4,1.2
			c0,0.1-0.1,0.2-0.2,0.2c-0.1,0.1-0.2,0.1-0.3,0.1h-1.3l2.7-7h1.7L622.7,72.3z M618.2,69.6h1.9l-0.6-1.9c0-0.1-0.1-0.3-0.1-0.4
			c-0.1-0.2-0.1-0.4-0.2-0.5c-0.1,0.2-0.1,0.4-0.2,0.5c-0.1,0.2-0.1,0.3-0.2,0.4L618.2,69.6z"/>
		<path class="st2" d="M631.3,65.3v1.3h-2v5.7h-1.6v-5.7h-2v-1.3H631.3z"/>
		<path class="st2" d="M636.7,72.3H635v-7h1.6v7H636.7z"/>
		<path class="st2" d="M647.8,68.8c0,0.5-0.1,1-0.3,1.4c-0.2,0.4-0.4,0.8-0.7,1.1c-0.3,0.3-0.7,0.6-1.2,0.8
			c-0.5,0.2-0.9,0.3-1.5,0.3s-1.1-0.1-1.5-0.3c-0.5-0.2-0.8-0.4-1.2-0.8c-0.3-0.3-0.6-0.7-0.7-1.1c-0.2-0.4-0.3-0.9-0.3-1.4
			s0.1-1,0.3-1.4c0.2-0.4,0.4-0.8,0.7-1.1c0.3-0.3,0.7-0.6,1.2-0.8c0.5-0.2,0.9-0.3,1.5-0.3s1.1,0.1,1.5,0.3s0.8,0.4,1.2,0.8
			s0.6,0.7,0.7,1.1C647.7,67.8,647.8,68.3,647.8,68.8z M646.2,68.8c0-0.4,0-0.7-0.1-0.9c-0.1-0.3-0.2-0.5-0.4-0.7s-0.4-0.3-0.6-0.4
			c-0.2-0.1-0.5-0.2-0.8-0.2c-0.3,0-0.6,0.1-0.8,0.2c-0.2,0.1-0.5,0.2-0.6,0.4s-0.3,0.4-0.4,0.7c-0.1,0.3-0.1,0.6-0.1,0.9
			c0,0.4,0,0.7,0.1,0.9c0.1,0.3,0.2,0.5,0.4,0.7c0.2,0.2,0.4,0.3,0.6,0.4c0.2,0.1,0.5,0.2,0.8,0.2c0.3,0,0.6-0.1,0.8-0.2
			c0.2-0.1,0.5-0.2,0.6-0.4c0.2-0.2,0.3-0.4,0.4-0.7C646.1,69.5,646.2,69.1,646.2,68.8z"/>
		<path class="st2" d="M652.5,65.3C652.6,65.3,652.6,65.3,652.5,65.3c0.1,0,0.2,0,0.2,0.1l0.1,0.1l3.3,4.2c0-0.1,0-0.3,0-0.4
			s0-0.2,0-0.4v-3.7h1.4v7h-0.8c-0.1,0-0.2,0-0.3-0.1s-0.2-0.1-0.2-0.2l-3.3-4.2c0,0.1,0,0.2,0,0.4c0,0.1,0,0.2,0,0.3v3.8h-1.4v-7
			L652.5,65.3C652.4,65.3,652.5,65.3,652.5,65.3z"/>
		
			<rect x="528.1" y="29.6" transform="matrix(0.5985 -0.8011 0.8011 0.5985 191.7672 444.5235)" class="st2" width="22.6" height="2.7"/>
		
			<rect x="525.4" y="31.1" transform="matrix(0.4459 -0.8951 0.8951 0.4459 265.0626 493.1532)" class="st2" width="10.9" height="2.7"/>
		
			<rect x="517.6" y="26" transform="matrix(0.2789 -0.9603 0.9603 0.2789 353.134 524.9321)" class="st2" width="17.1" height="2.7"/>
		<polygon class="st2" points="520.2,34.8 517.5,34.5 518.6,23.7 521.3,23.9 		"/>
		<polygon class="st2" points="512.5,34.7 511.6,22.5 514.3,22.3 515.2,34.5 		"/>
		<polygon class="st2" points="507.6,35.7 505.5,27.7 508.1,27 510.3,35 		"/>
		
			<rect x="501.7" y="31.7" transform="matrix(0.9066 -0.4219 0.4219 0.9066 32.4038 215.4572)" class="st2" width="2.7" height="5.6"/>
		<polygon class="st2" points="498.8,40.3 497.5,38.6 499.8,37 501,38.8 		"/>
		<polygon class="st2" points="495.2,43.8 488.8,37.5 490.7,35.5 497.1,41.8 		"/>
		<polygon class="st2" points="492.2,47.8 482.3,41 483.8,38.7 493.7,45.5 		"/>
		<polygon class="st2" points="490,52.3 483.7,49.5 484.9,47 491.1,49.8 		"/>
		<polygon class="st2" points="470.1,52.6 488.6,57 489.3,54.4 470.8,49.9 		"/>
		
			<rect x="479.9" y="53.4" transform="matrix(5.810185e-02 -0.9983 0.9983 5.810185e-02 393.0752 537.2535)" class="st2" width="2.7" height="13.8"/>
		
			<rect x="474.9" y="65.1" transform="matrix(0.9927 -0.1209 0.1209 0.9927 -4.5011 58.7181)" class="st2" width="13.5" height="2.7"/>
		
			<rect x="486.3" y="69.6" transform="matrix(0.9551 -0.2964 0.2964 0.9551 0.8869 147.7829)" class="st2" width="3.1" height="2.7"/>
		
			<rect x="480.6" y="76.4" transform="matrix(0.8869 -0.462 0.462 0.8869 19.0814 233.4426)" class="st2" width="11.3" height="2.7"/>
		<rect x="483" y="81.7" transform="matrix(0.7901 -0.613 0.613 0.7901 51.7381 317.2554)" class="st2" width="12.2" height="2.7"/>
		
			<rect x="487.4" y="86.1" transform="matrix(0.6678 -0.7443 0.7443 0.6678 98.8077 396.2223)" class="st2" width="11.9" height="2.7"/>
		
			<rect x="497.1" y="86.9" transform="matrix(0.5242 -0.8516 0.8516 0.5242 162.6951 467.6997)" class="st2" width="5.5" height="2.7"/>
		<polygon class="st2" points="503.2,98.7 500.7,97.7 504.6,87.7 507.1,88.7 		"/>
		
			<rect x="504.7" y="93" transform="matrix(0.1916 -0.9815 0.9815 0.1916 319.3767 576.4674)" class="st2" width="9.8" height="2.7"/>
		<polygon class="st2" points="516.9,96.9 514.1,96.9 514.2,90.1 516.9,90.1 		"/>
		<polygon class="st2" points="521.4,103 519.2,89.9 521.9,89.5 524.1,102.5 		"/>
		
			<rect x="525.4" y="88.2" transform="matrix(0.9408 -0.3389 0.3389 0.9408 -7.323896e-02 183.9715)" class="st2" width="2.7" height="8"/>
		<polygon class="st2" points="528.7,87 538.6,103.9 541,102.6 531.1,85.7 		"/>
		<polygon class="st2" points="534.5,86 533,84.4 535,82.5 536.5,84.1 		"/>
		<polygon class="st2" points="543.4,86.6 536.6,81 538.3,78.9 545.1,84.4 		"/>
		<polygon class="st2" points="546.6,80.9 539.6,77 540.9,74.6 547.9,78.5 		"/>
		<polygon class="st2" points="545.2,73.7 541.8,72.5 542.7,69.9 546.1,71.1 		"/>
		
			<rect x="547.4" y="61.9" transform="matrix(0.1474 -0.9891 0.9891 0.1474 401.4452 600.0114)" class="st2" width="2.7" height="10.6"/>
		<polygon class="st2" points="543.8,62.8 543.7,60.1 550.5,59.8 550.5,62.6 		"/>
		
			<rect x="543.1" y="54.2" transform="matrix(0.9778 -0.2096 0.2096 0.9778 0.5155 115.9565)" class="st2" width="8.5" height="2.7"/>
		<polygon class="st2" points="542.2,53 541.2,50.4 546.5,48.2 547.6,50.8 		"/>
		<polygon class="st2" points="540.1,48.4 538.6,46.1 552.9,37 554.4,39.3 		"/>
		<polygon class="st2" points="537.3,44.4 535.4,42.4 537.5,40.3 539.4,42.3 		"/>
		<g>
			<path class="st2" d="M513.9,60.2c-0.2-0.2-0.5-0.4-0.8-0.6c-0.3-0.1-0.7-0.2-1.1-0.2h-1.4v5.8h1.4c0.4,0,0.8-0.1,1.1-0.2
				c0.3-0.1,0.6-0.3,0.8-0.6c0.2-0.3,0.4-0.6,0.5-0.9c0.1-0.4,0.2-0.8,0.2-1.2s-0.1-0.9-0.2-1.2C514.2,60.8,514.1,60.5,513.9,60.2z"
				/>
			<path class="st2" d="M533.1,62.8l-0.1-2l-6,0.2l5.9-1.3l-0.4-2l-5.9,1.3l5.6-2.3l-0.8-1.8l-5.6,2.3l5.1-3.3l-1.1-1.7l-5.1,3.3
				l4.4-4.1l-1.4-1.5l-4.4,4.1l3.6-4.9l-1.6-1.2l-3.6,4.9l2.7-5.4l-1.8-0.9L520,52l1.7-5.8l-1.9-0.6l-1.7,5.8l0.6-6l-2-0.2l-0.7,6.2
				l-0.5-6.3l-2,0.2l0.5,6l-1.5-5.9l-1.9,0.5l1.5,5.9l-2.6-5.5l-1.8,0.8l2.6,5.5l-3.5-5l-1.6,1.2l3.5,5l-4.3-4.2L503,51l4.3,4.2
				l-5-3.4l-1.1,1.7l5,3.4l-5.5-2.5l-0.8,1.8l5.5,2.5l-5.9-1.4l-0.5,1.9l5.9,1.4l-6.1-0.4l-0.1,2l6.1,0.4l-6,0.7l0.2,2l6-0.7
				l-5.8,1.8l0.6,1.9l5.8-1.8l-5.4,2.8l0.9,1.8l5.4-2.8l-4.8,3.7l1.2,1.6l4.8-3.7l-4.1,4.5l1.5,1.3l4.1-4.5l-3.2,5.2l1.7,1.1
				l3.2-5.2l-2.2,5.7l1.9,0.7l2.2-5.7l-1.2,6l2,0.4l1.2-6l-0.1,6.1h2l0.1-6.1l1,6l2-0.3l-1-6l2.1,5.7l1.9-0.7l-2.1-5.7l3,5.2l1.7-1
				l-3-5.2l3.9,4.6l1.5-1.3l-3.9-4.6l4.7,3.8l1.3-1.5l-4.7-3.8l5.3,2.9l1-1.8l-5.3-2.9l5.7,2l0.6-1.9l-5.7-2l6,0.9l0.3-2l-6-0.9
				L533.1,62.8z M516.4,64.2c-0.2,0.6-0.5,1-1,1.4c-0.4,0.4-0.9,0.7-1.5,0.9c-0.6,0.2-1.2,0.3-1.9,0.3h-3.5v-9.1h3.5
				c0.7,0,1.4,0.1,1.9,0.3c0.6,0.2,1.1,0.5,1.5,0.9c0.4,0.4,0.7,0.9,1,1.4c0.3,0.5,0.3,1.2,0.3,1.8C516.7,63,516.6,63.6,516.4,64.2z
				 M523.5,59.4h-3.7v2.1h2.9v1.6h-2.9v2.2h3.7v1.6h-5.8v-9.1h5.8V59.4z"/>
		</g>
		<g>
			<path class="st2" d="M572.9,80.3c0,0.5-0.1,1-0.2,1.4c-0.2,0.4-0.4,0.8-0.7,1.1c-0.3,0.3-0.6,0.5-1.1,0.7
				c-0.4,0.2-0.9,0.2-1.4,0.2h-2.6v-6.9h2.6c0.5,0,1,0.1,1.4,0.2c0.4,0.2,0.8,0.4,1.1,0.7c0.3,0.3,0.5,0.7,0.7,1.1
				C572.8,79.3,572.9,79.8,572.9,80.3z M571.9,80.3c0-0.4-0.1-0.8-0.2-1.1c-0.1-0.3-0.3-0.6-0.5-0.8c-0.2-0.2-0.5-0.4-0.8-0.5
				c-0.3-0.1-0.6-0.2-1-0.2h-1.6V83h1.6c0.4,0,0.7-0.1,1-0.2c0.3-0.1,0.6-0.3,0.8-0.5c0.2-0.2,0.4-0.5,0.5-0.8
				C571.9,81.1,571.9,80.7,571.9,80.3z"/>
			<path class="st2" d="M581.3,76.9v0.8H578V80h2.7v0.7H578V83h3.3v0.8H577v-6.9H581.3L581.3,76.9z"/>
			<path class="st2" d="M588.1,83c0.3,0,0.5-0.1,0.8-0.1c0.2-0.1,0.4-0.2,0.6-0.4s0.3-0.4,0.4-0.6c0.1-0.2,0.1-0.5,0.1-0.8v-4.2h0.9
				v4.2c0,0.4-0.1,0.8-0.2,1.1c-0.1,0.3-0.3,0.6-0.5,0.9c-0.2,0.2-0.5,0.4-0.9,0.6c-0.3,0.1-0.7,0.2-1.1,0.2c-0.4,0-0.8-0.1-1.1-0.2
				c-0.3-0.1-0.6-0.3-0.9-0.6c-0.2-0.2-0.4-0.5-0.5-0.9c-0.1-0.3-0.2-0.7-0.2-1.1v-4.2h0.9v4.2c0,0.3,0,0.6,0.1,0.8
				c0.1,0.2,0.2,0.4,0.4,0.6s0.4,0.3,0.6,0.4C587.6,83,587.8,83,588.1,83z"/>
			<path class="st2" d="M600,76.9v0.8h-2.2v6.1h-0.9v-6.1h-2.2v-0.8H600L600,76.9z"/>
			<path class="st2" d="M607.4,78c0,0.1-0.1,0.1-0.1,0.1h-0.1c-0.1,0-0.1,0-0.2-0.1c-0.1-0.1-0.2-0.1-0.3-0.2s-0.2-0.1-0.4-0.2
				s-0.3-0.1-0.6-0.1c-0.2,0-0.4,0-0.6,0.1s-0.3,0.1-0.4,0.2c-0.1,0.1-0.2,0.2-0.2,0.3c-0.1,0.1-0.1,0.3-0.1,0.4
				c0,0.2,0.1,0.4,0.1,0.5c0.1,0.1,0.2,0.2,0.4,0.3c0.2,0.1,0.3,0.2,0.5,0.2c0.2,0.1,0.4,0.1,0.6,0.2c0.2,0.1,0.4,0.2,0.6,0.2
				c0.2,0.1,0.4,0.2,0.5,0.3c0.2,0.1,0.3,0.3,0.4,0.5c0.1,0.2,0.1,0.4,0.1,0.7c0,0.3-0.1,0.6-0.2,0.8c-0.1,0.3-0.2,0.5-0.5,0.7
				c-0.2,0.2-0.4,0.4-0.7,0.5s-0.6,0.2-1,0.2s-0.9-0.1-1.2-0.2c-0.4-0.2-0.7-0.4-0.9-0.7l0.3-0.4l0.1-0.1h0.1c0.1,0,0.1,0,0.2,0.1
				c0.1,0.1,0.2,0.2,0.3,0.2c0.1,0.1,0.3,0.2,0.5,0.2c0.2,0,0.4,0.1,0.7,0.1c0.2,0,0.4,0,0.6-0.1s0.3-0.1,0.4-0.3
				c0.1-0.2,0.2-0.2,0.3-0.4c0.1-0.2,0.1-0.3,0.1-0.5s-0.1-0.4-0.1-0.5s-0.2-0.2-0.4-0.3c-0.2-0.1-0.3-0.2-0.5-0.2
				c-0.2-0.1-0.4-0.1-0.6-0.2c-0.2-0.1-0.4-0.1-0.6-0.2s-0.4-0.2-0.5-0.3c-0.2-0.1-0.3-0.3-0.4-0.5c-0.1-0.2-0.1-0.5-0.1-0.8
				c0-0.2,0.1-0.5,0.1-0.7c0.1-0.2,0.2-0.4,0.4-0.6s0.4-0.3,0.7-0.4c0.3-0.1,0.6-0.2,0.9-0.2c0.4,0,0.7,0.1,1.1,0.2
				c0.3,0.1,0.6,0.3,0.8,0.5L607.4,78z"/>
			<path class="st2" d="M616.6,82.3c0.1,0,0.1,0,0.1,0.1l0.4,0.4c-0.3,0.3-0.6,0.6-1,0.8c-0.4,0.2-0.9,0.3-1.5,0.3
				c-0.5,0-0.9-0.1-1.4-0.3c-0.4-0.2-0.8-0.4-1-0.7c-0.3-0.3-0.5-0.7-0.7-1.1s-0.2-0.9-0.2-1.4s0.1-1,0.2-1.4
				c0.2-0.4,0.4-0.8,0.7-1.1c0.3-0.3,0.7-0.5,1.1-0.7c0.4-0.2,0.9-0.3,1.4-0.3s0.9,0.1,1.3,0.2c0.4,0.2,0.7,0.4,1,0.6l-0.3,0.4
				l-0.1,0.1h-0.1c0,0-0.1,0-0.1-0.1c-0.1,0-0.1-0.1-0.2-0.1c-0.1,0-0.1-0.1-0.2-0.1c-0.1-0.1-0.2-0.1-0.3-0.1s-0.3-0.1-0.4-0.1
				s-0.3-0.1-0.5-0.1c-0.4,0-0.7,0.1-1,0.2s-0.6,0.3-0.8,0.5s-0.4,0.5-0.5,0.9c-0.1,0.3-0.2,0.7-0.2,1.1s0.1,0.8,0.2,1.1
				s0.3,0.6,0.5,0.9c0.2,0.2,0.5,0.4,0.8,0.5s0.6,0.2,0.9,0.2c0.2,0,0.4,0,0.6,0s0.3-0.1,0.5-0.1c0.1-0.1,0.3-0.1,0.4-0.2
				c0.1-0.1,0.2-0.2,0.4-0.3C616.5,82.4,616.6,82.3,616.6,82.3z"/>
			<path class="st2" d="M626.8,83.8h-0.9v-3.1h-3.7v3.1h-0.9v-6.9h0.9V80h3.7v-3.1h0.9V83.8z"/>
			<path class="st2" d="M632.3,83h3v0.8h-3.9v-6.9h0.9V83z"/>
			<path class="st2" d="M644.8,83.8h-0.7c-0.1,0-0.2,0-0.2-0.1c-0.1,0-0.1-0.1-0.1-0.2l-0.6-1.7H640l-0.6,1.7c0,0.1-0.1,0.1-0.1,0.2
				c-0.1,0-0.1,0.1-0.2,0.1h-0.7l2.8-6.9h0.9L644.8,83.8z M640.3,81.2h2.6l-1.1-2.8c-0.1-0.2-0.1-0.4-0.2-0.6c0,0.1-0.1,0.2-0.1,0.4
				c0,0.1-0.1,0.2-0.1,0.3L640.3,81.2z"/>
			<path class="st2" d="M649.2,76.9l0.1,0.1l4,5.2c0-0.1,0-0.2,0-0.2c0-0.1,0-0.2,0-0.2v-4.9h0.8v6.9h-0.5c-0.1,0-0.1,0-0.2,0
				c-0.1,0-0.1-0.1-0.1-0.1l-4-5.2c0,0.1,0,0.2,0,0.2c0,0.1,0,0.1,0,0.2v4.9h-0.8v-6.9h0.5C649.1,76.9,649.1,76.9,649.2,76.9z"/>
			<path class="st2" d="M664.6,80.3c0,0.5-0.1,1-0.2,1.4c-0.2,0.4-0.4,0.8-0.7,1.1c-0.3,0.3-0.6,0.5-1.1,0.7
				c-0.4,0.2-0.9,0.2-1.4,0.2h-2.6v-6.9h2.6c0.5,0,1,0.1,1.4,0.2c0.4,0.2,0.8,0.4,1.1,0.7c0.3,0.3,0.5,0.7,0.7,1.1
				C664.5,79.3,664.6,79.8,664.6,80.3z M663.6,80.3c0-0.4-0.1-0.8-0.2-1.1c-0.1-0.3-0.3-0.6-0.5-0.8c-0.2-0.2-0.5-0.4-0.8-0.5
				c-0.3-0.1-0.6-0.2-1-0.2h-1.6V83h1.6c0.4,0,0.7-0.1,1-0.2c0.3-0.1,0.6-0.3,0.8-0.5c0.2-0.2,0.4-0.5,0.5-0.8
				C663.6,81.1,663.6,80.7,663.6,80.3z"/>
		</g>
	</g>
</g>
<g id="Ebene_2">
	<g>
		<path class="st3" d="M255.9,39c0,0.4,0,0.7-0.1,0.9c-0.1,0.3-0.2,0.5-0.4,0.7c-0.2,0.2-0.3,0.3-0.5,0.5c-0.2,0.1-0.4,0.2-0.6,0.3
			l0,0c0.3,0,0.5,0.1,0.8,0.3c0.2,0.1,0.4,0.3,0.6,0.5s0.3,0.5,0.4,0.7c0.1,0.3,0.2,0.6,0.2,0.9c0,0.4-0.1,0.8-0.2,1.1
			s-0.4,0.6-0.6,0.9c-0.3,0.2-0.7,0.4-1.1,0.6c-0.4,0.1-1,0.2-1.6,0.2h-2.1V36.4h2c0.6,0,1.1,0.1,1.6,0.2c0.4,0.1,0.8,0.3,1.1,0.5
			s0.5,0.5,0.6,0.8C255.8,38.2,255.9,38.6,255.9,39z M254.6,39c0-0.5-0.2-0.9-0.5-1.2c-0.3-0.3-0.9-0.5-1.6-0.5h-0.7v3.5h0.7
			c0.7,0,1.2-0.2,1.6-0.5C254.4,40.1,254.6,39.6,254.6,39z M254.8,43.7c0-0.6-0.2-1-0.5-1.3c-0.4-0.3-0.9-0.5-1.6-0.5h-0.9v3.6h0.8
			c0.8,0,1.3-0.2,1.7-0.5C254.6,44.8,254.8,44.3,254.8,43.7z M262.7,46.6h-1.1v-0.8l0,0c0,0.1-0.1,0.1-0.2,0.3
			c-0.1,0.1-0.2,0.2-0.4,0.3s-0.3,0.2-0.6,0.3c-0.2,0.1-0.5,0.1-0.7,0.1c-0.3,0-0.6,0-0.9-0.1c-0.3-0.1-0.5-0.2-0.6-0.5
			c-0.2-0.2-0.3-0.5-0.4-0.8c-0.1-0.3-0.1-0.7-0.1-1.2v-4.7h1.2v4.6c0,0.6,0.1,1,0.3,1.3c0.2,0.3,0.5,0.4,0.9,0.4
			c0.3,0,0.6-0.1,0.9-0.3c0.2-0.2,0.4-0.3,0.6-0.5v-5.5h1.2L262.7,46.6L262.7,46.6z M268.5,46.6V42c0-0.6-0.1-1-0.3-1.3
			c-0.2-0.3-0.5-0.4-0.9-0.4c-0.4,0-0.7,0.1-0.9,0.3c-0.2,0.2-0.4,0.4-0.6,0.5v5.5h-1.2v-7.1h1.1v0.8l0,0c0-0.1,0.1-0.1,0.2-0.3
			c0.1-0.1,0.2-0.2,0.4-0.3s0.3-0.2,0.6-0.3c0.2-0.1,0.5-0.1,0.7-0.1c0.3,0,0.6,0,0.9,0.1c0.3,0.1,0.5,0.2,0.7,0.5
			c0.2,0.2,0.3,0.5,0.4,0.8c0.1,0.3,0.1,0.7,0.1,1.2v4.7C269.7,46.6,268.5,46.6,268.5,46.6z M271.1,43.1c0-0.7,0.1-1.3,0.3-1.8
			c0.2-0.5,0.4-0.9,0.7-1.2c0.3-0.3,0.6-0.5,1-0.6s0.8-0.2,1.1-0.2c0.2,0,0.4,0,0.6,0.1c0.2,0,0.3,0.1,0.4,0.1v-3.4l1.2-0.1v10.6
			h-1.1v-0.8l0,0c0,0.1-0.1,0.1-0.2,0.2c-0.1,0.1-0.2,0.2-0.3,0.3c-0.1,0.1-0.3,0.2-0.5,0.3c-0.2,0.1-0.5,0.1-0.7,0.1
			c-0.3,0-0.7-0.1-1-0.2c-0.3-0.1-0.6-0.3-0.8-0.6c-0.2-0.3-0.4-0.7-0.5-1.1C271.2,44.4,271.1,43.8,271.1,43.1z M274,45.7
			c0.2,0,0.4,0,0.5-0.1c0.1,0,0.3-0.1,0.4-0.2c0.1-0.1,0.2-0.1,0.3-0.2c0.1-0.1,0.1-0.1,0.2-0.2v-4.4c-0.1-0.1-0.2-0.1-0.4-0.2
			c-0.1,0-0.3-0.1-0.5-0.1c-0.3,0-0.5,0-0.8,0.1c-0.2,0.1-0.5,0.2-0.6,0.5c-0.2,0.2-0.3,0.5-0.4,0.8c-0.1,0.3-0.2,0.8-0.2,1.3
			s0,0.9,0.1,1.2s0.2,0.6,0.3,0.8s0.3,0.3,0.5,0.4C273.6,45.7,273.8,45.7,274,45.7z M282.9,41.9c0,0.3,0,0.6,0,0.8s0,0.4-0.1,0.6
			h-3.6c0,0.8,0.2,1.5,0.5,1.9c0.3,0.4,0.8,0.6,1.4,0.6c0.2,0,0.4,0,0.6-0.1c0.2,0,0.3-0.1,0.4-0.2c0.1-0.1,0.2-0.1,0.3-0.2
			c0.1-0.1,0.1-0.1,0.2-0.2l0.4,0.8c0,0.1-0.1,0.1-0.2,0.2c-0.1,0.1-0.2,0.2-0.4,0.3c-0.2,0.1-0.4,0.2-0.6,0.2
			c-0.2,0.1-0.5,0.1-0.9,0.1c-0.4,0-0.9-0.1-1.2-0.2c-0.4-0.1-0.7-0.4-0.9-0.7c-0.3-0.3-0.4-0.7-0.6-1.2c-0.1-0.4-0.2-1-0.2-1.6
			s0.1-1.2,0.2-1.6c0.1-0.5,0.3-0.8,0.6-1.1c0.2-0.3,0.5-0.5,0.9-0.7c0.3-0.1,0.7-0.2,1.1-0.2c0.7,0,1.2,0.2,1.6,0.6
			C282.7,40.4,282.9,41,282.9,41.9z M280.7,40.3c-0.4,0-0.8,0.2-1,0.5c-0.3,0.4-0.4,0.9-0.4,1.5h2.6c0,0,0-0.1,0-0.2
			c0-0.1,0-0.2,0-0.3c0-0.5-0.1-0.9-0.3-1.2C281.3,40.4,281,40.3,280.7,40.3z M287.6,40.9c-0.1-0.1-0.2-0.2-0.4-0.4
			c-0.2-0.2-0.5-0.2-0.8-0.2s-0.6,0.1-0.7,0.2c-0.2,0.1-0.3,0.3-0.3,0.5c0,0.3,0.1,0.5,0.2,0.7c0.2,0.2,0.4,0.4,0.7,0.6l0.4,0.3
			c0.5,0.3,0.9,0.6,1.1,0.9c0.3,0.3,0.4,0.8,0.4,1.3c0,0.6-0.2,1-0.6,1.4c-0.4,0.4-1,0.6-1.7,0.6c-0.3,0-0.5,0-0.8-0.1
			c-0.2-0.1-0.4-0.1-0.6-0.2c-0.2-0.1-0.3-0.2-0.4-0.3c-0.1-0.1-0.2-0.2-0.3-0.3l0.6-1c0.1,0.1,0.1,0.1,0.2,0.2
			c0.1,0.1,0.2,0.2,0.3,0.2c0.1,0.1,0.3,0.1,0.4,0.2c0.1,0,0.3,0.1,0.5,0.1c0.4,0,0.6-0.1,0.8-0.2c0.2-0.2,0.3-0.4,0.3-0.6
			c0-0.2,0-0.3-0.1-0.4c0-0.1-0.1-0.2-0.2-0.3s-0.2-0.2-0.3-0.3c-0.1-0.1-0.3-0.2-0.4-0.3l-0.4-0.3c-0.4-0.3-0.8-0.6-1-0.9
			c-0.3-0.3-0.4-0.7-0.4-1.2c0-0.3,0.1-0.5,0.2-0.7s0.2-0.4,0.4-0.6c0.2-0.2,0.4-0.3,0.7-0.4c0.3-0.1,0.5-0.1,0.8-0.1
			c0.3,0,0.5,0,0.7,0.1c0.2,0.1,0.4,0.1,0.5,0.2c0.1,0.1,0.3,0.2,0.4,0.3s0.2,0.2,0.2,0.2L287.6,40.9z M293.5,46.6V42
			c0-0.6-0.1-1-0.3-1.3c-0.2-0.3-0.4-0.4-0.8-0.4c-0.2,0-0.4,0-0.5,0.1c-0.2,0-0.3,0.1-0.4,0.2c-0.1,0.1-0.2,0.2-0.3,0.2
			c-0.1,0.2-0.2,0.2-0.3,0.3v5.5h-1.2v-7.1h1.1v0.8l0,0c0-0.1,0.1-0.2,0.2-0.3s0.2-0.2,0.4-0.3c0.1-0.1,0.3-0.2,0.5-0.3
			c0.2-0.1,0.4-0.1,0.7-0.1c0.8,0,1.4,0.3,1.7,1c0.1-0.1,0.2-0.2,0.3-0.3s0.3-0.2,0.4-0.3c0.2-0.1,0.3-0.2,0.5-0.2
			c0.2-0.1,0.4-0.1,0.7-0.1c1.4,0,2.2,0.8,2.2,2.5v4.8h-1.2V42c0-0.6-0.1-1-0.3-1.3c-0.2-0.3-0.5-0.4-0.9-0.4
			c-0.3,0-0.6,0.1-0.8,0.2c-0.2,0.2-0.4,0.3-0.5,0.5c0,0.1,0,0.2,0,0.3s0,0.3,0,0.4v4.8L293.5,46.6L293.5,46.6z M301.4,46.6h-1.2
			v-7.1h1.2V46.6z M300.8,37.8c-0.2,0-0.4-0.1-0.6-0.2c-0.1-0.2-0.2-0.4-0.2-0.6c0-0.2,0.1-0.5,0.2-0.6c0.1-0.2,0.3-0.2,0.6-0.2
			c0.2,0,0.4,0.1,0.6,0.2c0.1,0.2,0.2,0.4,0.2,0.6c0,0.3-0.1,0.5-0.2,0.6C301.3,37.7,301.1,37.8,300.8,37.8z M307.2,46.6V42
			c0-0.6-0.1-1-0.3-1.3c-0.2-0.3-0.5-0.4-0.9-0.4c-0.4,0-0.7,0.1-0.9,0.3c-0.2,0.2-0.4,0.4-0.6,0.5v5.5h-1.2v-7.1h1.1v0.8l0,0
			c0-0.1,0.1-0.1,0.2-0.3c0.1-0.1,0.2-0.2,0.4-0.3c0.2-0.1,0.3-0.2,0.6-0.3c0.2-0.1,0.5-0.1,0.7-0.1c0.3,0,0.6,0,0.9,0.1
			c0.3,0.1,0.5,0.2,0.7,0.5c0.2,0.2,0.3,0.5,0.4,0.8s0.1,0.7,0.1,1.2v4.7C308.4,46.6,307.2,46.6,307.2,46.6z M311.4,46.6h-1.2v-7.1
			h1.2V46.6z M310.8,37.8c-0.2,0-0.4-0.1-0.6-0.2c-0.1-0.2-0.2-0.4-0.2-0.6c0-0.2,0.1-0.5,0.2-0.6c0.2-0.2,0.3-0.2,0.6-0.2
			c0.2,0,0.4,0.1,0.6,0.2c0.1,0.2,0.2,0.4,0.2,0.6c0,0.3-0.1,0.5-0.2,0.6C311.2,37.7,311,37.8,310.8,37.8z M316.3,40.9
			c-0.1-0.1-0.2-0.2-0.4-0.4c-0.2-0.2-0.5-0.2-0.8-0.2c-0.3,0-0.6,0.1-0.7,0.2c-0.2,0.1-0.3,0.3-0.3,0.5c0,0.3,0.1,0.5,0.2,0.7
			c0.2,0.2,0.4,0.4,0.7,0.6l0.4,0.3c0.5,0.3,0.9,0.6,1.1,0.9c0.3,0.3,0.4,0.8,0.4,1.3c0,0.6-0.2,1-0.6,1.4c-0.4,0.4-1,0.6-1.7,0.6
			c-0.3,0-0.5,0-0.8-0.1c-0.2-0.1-0.4-0.1-0.6-0.2c-0.2-0.1-0.3-0.2-0.4-0.3c-0.1-0.1-0.2-0.2-0.3-0.3l0.6-1
			c0.1,0.1,0.1,0.1,0.2,0.2c0.1,0.1,0.2,0.2,0.3,0.2c0.1,0.1,0.3,0.1,0.4,0.2c0.1,0,0.3,0.1,0.5,0.1c0.4,0,0.6-0.1,0.8-0.2
			c0.2-0.2,0.3-0.4,0.3-0.6c0-0.2,0-0.3-0.1-0.4c0-0.1-0.1-0.2-0.2-0.3c-0.1-0.1-0.2-0.2-0.3-0.3s-0.3-0.2-0.4-0.3l-0.4-0.3
			c-0.4-0.3-0.8-0.6-1-0.9c-0.3-0.3-0.4-0.7-0.4-1.2c0-0.3,0.1-0.5,0.2-0.7c0.1-0.2,0.2-0.4,0.4-0.6c0.2-0.2,0.4-0.3,0.7-0.4
			c0.3-0.1,0.5-0.1,0.8-0.1s0.5,0,0.7,0.1c0.2,0.1,0.4,0.1,0.5,0.2c0.1,0.1,0.3,0.2,0.4,0.3c0.1,0.1,0.2,0.2,0.2,0.2L316.3,40.9z
			 M321.5,40.5h-1.6v4c0,0.5,0.1,0.8,0.2,1s0.3,0.3,0.7,0.3c0.2,0,0.3,0,0.5-0.1c0.1,0,0.2-0.1,0.3-0.1l0.2,1c0,0-0.2,0.1-0.4,0.2
			c-0.2,0.1-0.4,0.1-0.8,0.1c-0.6,0-1.1-0.2-1.4-0.5c-0.3-0.3-0.5-0.9-0.5-1.7v-4.1h-0.9v-0.8l0.9-0.2l0.1-2h1.1v2h1.7L321.5,40.5z
			 M327.3,41.9c0,0.3,0,0.6,0,0.8s0,0.4-0.1,0.6h-3.6c0,0.8,0.2,1.5,0.5,1.9c0.3,0.4,0.8,0.6,1.4,0.6c0.2,0,0.4,0,0.6-0.1
			c0.2,0,0.3-0.1,0.4-0.2c0.1-0.1,0.2-0.1,0.3-0.2c0.1-0.1,0.1-0.1,0.2-0.2l0.4,0.8c0,0.1-0.1,0.1-0.2,0.2c-0.1,0.1-0.2,0.2-0.4,0.3
			s-0.4,0.2-0.6,0.2c-0.2,0.1-0.5,0.1-0.9,0.1s-0.8-0.1-1.2-0.2c-0.4-0.1-0.7-0.4-0.9-0.7c-0.3-0.3-0.4-0.7-0.6-1.2
			c-0.1-0.5-0.2-1.1-0.2-1.7c0-0.6,0.1-1.2,0.2-1.6c0.1-0.5,0.3-0.8,0.6-1.1c0.2-0.3,0.5-0.5,0.9-0.7c0.3-0.1,0.7-0.2,1.1-0.2
			c0.7,0,1.2,0.2,1.6,0.6C327.1,40.4,327.3,41,327.3,41.9z M325,40.3c-0.4,0-0.8,0.2-1,0.5c-0.3,0.4-0.4,0.9-0.4,1.5h2.6
			c0,0,0-0.1,0-0.2c0-0.1,0-0.2,0-0.3c0-0.5-0.1-0.9-0.3-1.2C325.7,40.4,325.4,40.3,325,40.3z M332,40.5c0,0-0.1,0-0.2-0.1
			c-0.1,0-0.2,0-0.4,0c-0.4,0-0.7,0.1-0.9,0.3c-0.2,0.2-0.4,0.4-0.5,0.7v5.2h-1.2v-7.1h1.1v1l0,0c0.1-0.1,0.1-0.3,0.2-0.4
			c0.1-0.1,0.2-0.3,0.3-0.4c0.1-0.1,0.3-0.2,0.4-0.2c0.2-0.1,0.4-0.1,0.6-0.1s0.3,0,0.4,0s0.2,0.1,0.2,0.1V40.5z M334.4,46.6h-1.2
			v-7.1h1.2V46.6z M333.8,37.8c-0.2,0-0.4-0.1-0.6-0.2c-0.1-0.2-0.2-0.4-0.2-0.6c0-0.2,0.1-0.5,0.2-0.6c0.2-0.2,0.3-0.2,0.6-0.2
			c0.2,0,0.4,0.1,0.6,0.2c0.1,0.2,0.2,0.4,0.2,0.6c0,0.3-0.1,0.5-0.2,0.6C334.3,37.7,334.1,37.8,333.8,37.8z M341.3,46.6h-1.1v-0.8
			l0,0c0,0.1-0.1,0.1-0.2,0.3c-0.1,0.1-0.2,0.2-0.4,0.3s-0.3,0.2-0.6,0.3c-0.2,0.1-0.5,0.1-0.7,0.1c-0.3,0-0.6,0-0.9-0.1
			c-0.3-0.1-0.5-0.2-0.6-0.5c-0.2-0.2-0.3-0.5-0.4-0.8c-0.1-0.3-0.1-0.7-0.1-1.2v-4.7h1.2v4.6c0,0.6,0.1,1,0.3,1.3
			c0.2,0.3,0.5,0.4,0.9,0.4c0.3,0,0.6-0.1,0.9-0.3c0.2-0.2,0.4-0.3,0.6-0.5v-5.5h1.2v7.1H341.3z M346.8,46.6V42c0-0.6-0.1-1-0.3-1.3
			s-0.4-0.4-0.8-0.4c-0.2,0-0.4,0-0.5,0.1c-0.2,0-0.3,0.1-0.4,0.2c-0.1,0.1-0.2,0.2-0.3,0.2c-0.1,0.1-0.2,0.2-0.2,0.2v5.5h-1.2v-7.1
			h1.1v0.8l0,0c0-0.1,0.1-0.2,0.2-0.3c0.1-0.1,0.2-0.2,0.4-0.3c0.1-0.1,0.3-0.2,0.5-0.3c0.2-0.1,0.4-0.1,0.7-0.1
			c0.8,0,1.4,0.3,1.7,1c0.1-0.1,0.2-0.2,0.3-0.3s0.3-0.2,0.4-0.3c0.2-0.1,0.3-0.2,0.5-0.2c0.2-0.1,0.4-0.1,0.7-0.1
			c1.4,0,2.2,0.8,2.2,2.5v4.8h-1.2V42c0-0.6-0.1-1-0.3-1.3s-0.5-0.4-0.9-0.4c-0.3,0-0.6,0.1-0.8,0.2c-0.2,0.2-0.4,0.3-0.5,0.5
			c0,0.1,0,0.2,0,0.3s0,0.3,0,0.4v4.8L346.8,46.6L346.8,46.6z M253.3,55.4h-1.5v6.2h-1.2v-6.2h-0.9v-0.8l0.9-0.2V53
			c0-0.4,0.1-0.7,0.2-1c0.1-0.3,0.3-0.5,0.4-0.7c0.2-0.2,0.4-0.3,0.6-0.4c0.2-0.1,0.5-0.1,0.8-0.1c0.3,0,0.5,0,0.7,0.1
			s0.3,0.1,0.4,0.2l-0.3,1c-0.1,0-0.1-0.1-0.3-0.1c-0.1,0-0.2-0.1-0.4-0.1c-0.3,0-0.5,0.1-0.7,0.3c-0.1,0.2-0.2,0.5-0.2,1v1.3h1.6
			L253.3,55.4z M259.4,61.6h-1.1v-0.8l0,0c0,0.1-0.1,0.1-0.2,0.3c-0.1,0.1-0.2,0.2-0.4,0.3c-0.2,0.1-0.3,0.2-0.6,0.3
			c-0.2,0.1-0.5,0.1-0.7,0.1c-0.3,0-0.6,0-0.9-0.1c-0.3-0.1-0.5-0.2-0.6-0.5c-0.2-0.2-0.3-0.5-0.4-0.8c-0.1-0.3-0.1-0.7-0.1-1.2
			v-4.7h1.2v4.6c0,0.6,0.1,1,0.3,1.3s0.5,0.4,0.9,0.4c0.3,0,0.6-0.1,0.9-0.3c0.2-0.2,0.4-0.3,0.6-0.5v-5.5h1.2v7.1H259.4z
			 M256.5,52.4c0,0.2-0.1,0.4-0.2,0.5c-0.1,0.1-0.3,0.2-0.5,0.2s-0.4-0.1-0.5-0.2c-0.1-0.1-0.2-0.3-0.2-0.5s0.1-0.4,0.2-0.5
			c0.1-0.1,0.3-0.2,0.5-0.2s0.4,0.1,0.5,0.2C256.4,52,256.5,52.2,256.5,52.4z M258.8,52.4c0,0.2-0.1,0.4-0.2,0.5s-0.3,0.2-0.5,0.2
			s-0.4-0.1-0.5-0.2c-0.1-0.1-0.2-0.3-0.2-0.5s0.1-0.4,0.2-0.5s0.3-0.2,0.5-0.2s0.4,0.1,0.5,0.2C258.7,52,258.8,52.2,258.8,52.4z
			 M264.4,55.5c0,0-0.1,0-0.2-0.1c-0.1,0-0.2,0-0.4,0c-0.4,0-0.7,0.1-0.9,0.3c-0.2,0.2-0.4,0.4-0.5,0.7v5.2h-1.2v-7.1h1.1v1l0,0
			c0-0.1,0.1-0.3,0.2-0.4c0.1-0.1,0.2-0.3,0.3-0.4c0.1-0.1,0.3-0.2,0.4-0.2c0.2-0.1,0.4-0.1,0.6-0.1c0.2,0,0.3,0,0.4,0
			c0.1,0,0.2,0.1,0.2,0.1V55.5z M274,54c0,0.4,0,0.7-0.1,0.9c-0.1,0.3-0.2,0.5-0.4,0.7s-0.3,0.3-0.5,0.5c-0.2,0.1-0.4,0.2-0.6,0.3
			l0,0c0.3,0,0.5,0.1,0.7,0.3c0.2,0.1,0.4,0.3,0.6,0.5c0.2,0.2,0.3,0.5,0.4,0.7c0.1,0.3,0.2,0.6,0.2,0.9c0,0.4-0.1,0.8-0.2,1.1
			c-0.1,0.3-0.4,0.6-0.6,0.9c-0.3,0.2-0.7,0.4-1.1,0.6c-0.4,0.1-1,0.2-1.6,0.2h-2.1V51.3h2c0.6,0,1.1,0.1,1.6,0.2
			c0.4,0.1,0.8,0.3,1.1,0.5c0.3,0.2,0.5,0.5,0.6,0.8C274,53.2,274,53.6,274,54z M272.7,54c0-0.5-0.2-0.9-0.5-1.2
			c-0.3-0.3-0.9-0.5-1.6-0.5H270v3.5h0.7c0.7,0,1.2-0.2,1.6-0.5C272.6,55.1,272.7,54.6,272.7,54z M272.9,58.7c0-0.6-0.2-1-0.5-1.3
			c-0.4-0.3-0.9-0.5-1.6-0.5H270v3.6h0.8c0.8,0,1.3-0.2,1.7-0.5C272.8,59.8,272.9,59.3,272.9,58.7z M277.1,61.6h-1.2v-7.1h1.2V61.6z
			 M276.5,52.7c-0.2,0-0.4-0.1-0.6-0.2c-0.1-0.2-0.2-0.4-0.2-0.6c0-0.2,0.1-0.4,0.2-0.6c0.1-0.2,0.3-0.2,0.6-0.2
			c0.2,0,0.4,0.1,0.6,0.2c0.1,0.2,0.2,0.4,0.2,0.6c0,0.3-0.1,0.5-0.2,0.6C276.9,52.7,276.7,52.7,276.5,52.7z M280.1,59.9
			c0,0.3,0,0.5,0.1,0.6c0.1,0.1,0.2,0.2,0.4,0.2c0.1,0,0.2,0,0.3,0s0.1,0,0.2-0.1l0.1,0.9c-0.1,0-0.2,0.1-0.3,0.1
			c-0.2,0.1-0.4,0.1-0.6,0.1c-0.4,0-0.7-0.1-1-0.4c-0.2-0.2-0.4-0.7-0.4-1.3v-8.9l1.2-0.1C280.1,51,280.1,59.9,280.1,59.9z
			 M282,58.1c0-0.7,0.1-1.3,0.3-1.8c0.2-0.5,0.4-0.9,0.7-1.2s0.6-0.5,1-0.6s0.8-0.2,1.1-0.2c0.2,0,0.4,0,0.6,0.1
			c0.2,0,0.3,0.1,0.4,0.1v-3.4l1.2-0.1v10.6h-1.1v-0.8l0,0c0,0.1-0.1,0.1-0.2,0.2s-0.2,0.2-0.3,0.3c-0.1,0.1-0.3,0.2-0.5,0.3
			c-0.2,0.1-0.5,0.1-0.7,0.1c-0.3,0-0.7-0.1-1-0.2s-0.6-0.3-0.8-0.6c-0.2-0.3-0.4-0.7-0.5-1.1C282.1,59.3,282,58.8,282,58.1z
			 M284.8,60.7c0.2,0,0.4,0,0.5-0.1c0.1,0,0.3-0.1,0.4-0.2c0.1-0.1,0.2-0.2,0.3-0.2c0.1-0.1,0.1-0.1,0.2-0.2v-4.4
			c-0.1-0.1-0.2-0.1-0.4-0.2c-0.1,0-0.3-0.1-0.5-0.1c-0.3,0-0.5,0-0.8,0.1c-0.2,0.1-0.5,0.3-0.6,0.5c-0.2,0.2-0.3,0.5-0.4,0.8
			s-0.2,0.8-0.2,1.3s0,0.9,0.1,1.2c0.1,0.3,0.2,0.6,0.4,0.8c0.1,0.2,0.3,0.3,0.5,0.4C284.4,60.7,284.6,60.7,284.8,60.7z M294.2,61.6
			h-1.1v-0.8l0,0c0,0.1-0.1,0.1-0.2,0.3c-0.1,0.1-0.2,0.2-0.4,0.3c-0.2,0.1-0.3,0.2-0.6,0.3c-0.2,0.1-0.5,0.1-0.7,0.1
			c-0.3,0-0.6,0-0.9-0.1c-0.3-0.1-0.5-0.2-0.6-0.5c-0.2-0.2-0.3-0.5-0.4-0.8c-0.1-0.3-0.1-0.7-0.1-1.2v-4.7h1.2v4.6
			c0,0.6,0.1,1,0.3,1.3c0.2,0.3,0.5,0.4,0.9,0.4c0.3,0,0.6-0.1,0.9-0.3c0.2-0.2,0.4-0.3,0.6-0.5v-5.5h1.2L294.2,61.6L294.2,61.6z
			 M299.9,61.6V57c0-0.6-0.1-1-0.3-1.3c-0.2-0.3-0.5-0.4-0.9-0.4c-0.4,0-0.7,0.1-0.9,0.3c-0.2,0.2-0.4,0.4-0.6,0.5v5.5H296v-7.1h1.1
			v0.8l0,0c0-0.1,0.1-0.1,0.2-0.3c0.1-0.1,0.2-0.2,0.4-0.3c0.2-0.1,0.3-0.2,0.6-0.3c0.2-0.1,0.5-0.1,0.7-0.1c0.3,0,0.6,0,0.9,0.1
			s0.5,0.2,0.7,0.5c0.2,0.2,0.3,0.5,0.4,0.8c0.1,0.3,0.1,0.7,0.1,1.2v4.7H299.9z M308,55.4h-0.9c0.2,0.4,0.3,0.8,0.3,1.3
			c0,0.4-0.1,0.7-0.2,1c-0.1,0.3-0.3,0.6-0.5,0.8c-0.2,0.2-0.5,0.4-0.8,0.5c-0.3,0.1-0.6,0.2-1,0.2c-0.1,0-0.1,0-0.2,0
			c-0.1,0-0.1,0-0.2,0c-0.1,0.1-0.2,0.1-0.4,0.2c-0.1,0.1-0.2,0.3-0.2,0.4s0.1,0.3,0.2,0.4s0.3,0.1,0.6,0.1h0.9c0.3,0,0.6,0,0.9,0.1
			c0.3,0.1,0.5,0.2,0.7,0.3c0.2,0.2,0.4,0.3,0.5,0.6c0.1,0.2,0.2,0.5,0.2,0.9s-0.1,0.7-0.2,1.1c-0.2,0.3-0.4,0.6-0.7,0.8
			c-0.3,0.2-0.7,0.4-1.1,0.5c-0.4,0.1-0.9,0.2-1.4,0.2c-0.8,0-1.3-0.2-1.7-0.5s-0.6-0.8-0.6-1.4c0-0.3,0-0.5,0.1-0.7
			s0.2-0.4,0.3-0.5s0.3-0.3,0.4-0.3c0.1-0.1,0.2-0.2,0.3-0.2l0,0c-0.3-0.2-0.5-0.6-0.5-1c0-0.2,0-0.4,0.1-0.5
			c0.1-0.1,0.2-0.3,0.3-0.3c0.1-0.1,0.2-0.2,0.3-0.2c0.1-0.1,0.2-0.1,0.2-0.1l0,0c-0.4-0.2-0.7-0.4-0.9-0.8
			c-0.2-0.4-0.3-0.8-0.3-1.4c0-0.4,0.1-0.7,0.2-1s0.3-0.6,0.5-0.8s0.5-0.3,0.8-0.4c0.3-0.1,0.6-0.1,0.9-0.1c0.3,0,0.7,0.1,0.9,0.2
			h2.2V55.4z M304.7,61.4c-0.2,0-0.4,0-0.5,0c-0.1,0.1-0.2,0.1-0.3,0.2s-0.2,0.2-0.2,0.3c-0.1,0.1-0.1,0.2-0.2,0.3
			c0,0.1-0.1,0.3-0.1,0.5c0,0.8,0.4,1.1,1.3,1.1c0.7,0,1.3-0.1,1.6-0.4c0.3-0.3,0.5-0.6,0.5-1c0-0.3-0.1-0.6-0.3-0.7
			s-0.5-0.2-0.9-0.2h-0.9V61.4z M306.3,56.7c0-0.5-0.1-0.9-0.4-1.1c-0.2-0.2-0.5-0.3-0.9-0.3c-0.3,0-0.6,0.1-0.9,0.3
			c-0.2,0.2-0.4,0.6-0.4,1.1s0.1,0.9,0.4,1.1c0.2,0.2,0.5,0.3,0.9,0.3c0.3,0,0.6-0.1,0.9-0.3C306.2,57.6,306.3,57.2,306.3,56.7z
			 M255.2,76.6h-1.1v-0.8l0,0c0,0.1-0.1,0.1-0.2,0.3c-0.1,0.1-0.2,0.2-0.4,0.3c-0.2,0.1-0.3,0.2-0.6,0.3c-0.2,0.1-0.5,0.1-0.7,0.1
			c-0.3,0-0.6,0-0.9-0.1s-0.5-0.2-0.6-0.5c-0.2-0.2-0.3-0.5-0.4-0.8c-0.1-0.3-0.1-0.7-0.1-1.2v-4.7h1.2V74c0,0.6,0.1,1,0.3,1.3
			s0.5,0.4,0.9,0.4c0.3,0,0.6-0.1,0.9-0.3c0.2-0.2,0.4-0.3,0.6-0.5v-5.5h1.2v7.2H255.2z M261,76.6V72c0-0.6-0.1-1-0.3-1.3
			c-0.2-0.3-0.5-0.4-0.9-0.4c-0.4,0-0.7,0.1-0.9,0.3c-0.2,0.2-0.4,0.4-0.6,0.5v5.5h-1.2v-7.1h1.1v0.8l0,0c0-0.1,0.1-0.1,0.2-0.3
			c0.1-0.1,0.2-0.2,0.4-0.3c0.2-0.1,0.3-0.2,0.6-0.3c0.2-0.1,0.5-0.1,0.7-0.1c0.3,0,0.6,0,0.9,0.1c0.3,0.1,0.5,0.2,0.7,0.5
			c0.2,0.2,0.3,0.5,0.4,0.8c0.1,0.3,0.1,0.7,0.1,1.2v4.7C262.2,76.6,261,76.6,261,76.6z M263.7,73.1c0-0.7,0.1-1.3,0.3-1.8
			s0.4-0.9,0.7-1.2c0.3-0.3,0.6-0.5,1-0.6c0.4-0.1,0.8-0.2,1.1-0.2c0.2,0,0.4,0,0.6,0.1c0.2,0,0.3,0.1,0.4,0.1v-3.4L269,66v10.6
			h-1.1v-0.8l0,0c0,0.1-0.1,0.1-0.2,0.2c-0.1,0.1-0.2,0.2-0.3,0.3c-0.1,0.1-0.3,0.2-0.5,0.3c-0.2,0.1-0.5,0.1-0.7,0.1
			c-0.3,0-0.7-0.1-1-0.2c-0.3-0.1-0.6-0.3-0.8-0.6c-0.2-0.3-0.4-0.7-0.5-1.1C263.7,74.3,263.7,73.8,263.7,73.1z M266.5,75.7
			c0.2,0,0.4,0,0.5-0.1s0.3-0.1,0.4-0.2s0.2-0.2,0.3-0.2c0.1-0.1,0.1-0.1,0.2-0.2v-4.4c-0.1-0.1-0.2-0.1-0.4-0.2
			c-0.1-0.1-0.3-0.1-0.5-0.1c-0.3,0-0.5,0-0.8,0.1c-0.2,0.1-0.5,0.3-0.6,0.5c-0.2,0.2-0.3,0.5-0.4,0.8c-0.1,0.3-0.2,0.8-0.2,1.3
			s0,0.9,0.1,1.2c0.1,0.3,0.2,0.6,0.3,0.8c0.1,0.2,0.3,0.3,0.5,0.4C266.1,75.6,266.3,75.7,266.5,75.7z M274.3,76.6V66.3h5l-0.1,1
			h-3.7v3.8h3.4v1h-3.4v4.4L274.3,76.6L274.3,76.6z M280.2,73c0-0.7,0.1-1.2,0.2-1.7c0.2-0.5,0.4-0.9,0.6-1.2
			c0.3-0.3,0.6-0.5,0.9-0.7c0.3-0.1,0.7-0.2,1.1-0.2c0.4,0,0.8,0.1,1.1,0.2c0.3,0.1,0.6,0.4,0.9,0.7c0.2,0.3,0.4,0.7,0.6,1.2
			c0.1,0.5,0.2,1,0.2,1.7s-0.1,1.2-0.2,1.7c-0.1,0.5-0.4,0.9-0.6,1.2c-0.3,0.3-0.6,0.5-0.9,0.7c-0.3,0.1-0.7,0.2-1.1,0.2
			c-0.4,0-0.8-0.1-1.1-0.2c-0.3-0.1-0.6-0.4-0.9-0.7c-0.2-0.3-0.4-0.7-0.6-1.2C280.3,74.3,280.2,73.7,280.2,73z M284.6,73
			c0-1-0.1-1.6-0.4-2.1c-0.3-0.4-0.7-0.6-1.2-0.6s-0.9,0.2-1.2,0.6c-0.3,0.4-0.4,1.1-0.4,2.1s0.1,1.6,0.4,2c0.3,0.4,0.7,0.6,1.2,0.6
			s0.9-0.2,1.2-0.6C284.5,74.6,284.6,74,284.6,73z M290.5,70.5c0,0-0.1,0-0.2-0.1c-0.1,0-0.2,0-0.4,0c-0.4,0-0.7,0.1-0.9,0.3
			c-0.2,0.2-0.4,0.4-0.5,0.7v5.2h-1.2v-7.1h1.1v1l0,0c0-0.1,0.1-0.3,0.2-0.4s0.2-0.3,0.3-0.4s0.3-0.2,0.4-0.2
			c0.2-0.1,0.4-0.1,0.6-0.1c0.2,0,0.3,0,0.4,0c0.1,0,0.2,0.1,0.2,0.1V70.5z M294.7,70.9c-0.1-0.1-0.2-0.2-0.4-0.4
			c-0.2-0.2-0.5-0.2-0.8-0.2c-0.3,0-0.6,0.1-0.7,0.2c-0.2,0.1-0.3,0.3-0.3,0.5c0,0.3,0.1,0.5,0.2,0.7c0.2,0.2,0.4,0.4,0.7,0.6
			l0.4,0.3c0.5,0.3,0.9,0.6,1.1,0.9c0.3,0.3,0.4,0.8,0.4,1.3c0,0.6-0.2,1-0.6,1.4s-1,0.6-1.7,0.6c-0.3,0-0.5,0-0.8-0.1
			c-0.2-0.1-0.4-0.1-0.6-0.2c-0.2-0.1-0.3-0.2-0.4-0.3c-0.1-0.1-0.2-0.2-0.3-0.3l0.6-1c0.1,0.1,0.1,0.1,0.2,0.2s0.2,0.2,0.3,0.2
			c0.1,0.1,0.3,0.1,0.4,0.2s0.3,0.1,0.5,0.1c0.4,0,0.6-0.1,0.8-0.2c0.2-0.2,0.3-0.3,0.3-0.6c0-0.2,0-0.3-0.1-0.4
			c0-0.1-0.1-0.2-0.2-0.3c-0.1-0.1-0.2-0.2-0.3-0.3c-0.1-0.1-0.3-0.2-0.4-0.3l-0.4-0.3c-0.4-0.3-0.8-0.6-1-0.9
			c-0.3-0.3-0.4-0.7-0.4-1.2c0-0.3,0.1-0.5,0.2-0.7s0.2-0.4,0.4-0.6s0.4-0.3,0.7-0.4c0.3-0.1,0.5-0.1,0.8-0.1s0.5,0,0.7,0.1
			c0.2,0.1,0.4,0.1,0.5,0.2c0.1,0.1,0.3,0.2,0.4,0.3c0.1,0.1,0.2,0.2,0.2,0.2L294.7,70.9z M300.8,70.8L300.8,70.8
			c-0.2-0.2-0.2-0.2-0.3-0.3c-0.1-0.1-0.2-0.1-0.4-0.2c-0.1,0-0.3-0.1-0.5-0.1c-0.3,0-0.5,0-0.7,0.1c-0.2,0.1-0.4,0.2-0.6,0.5
			c-0.2,0.2-0.3,0.5-0.4,0.8c-0.1,0.3-0.1,0.7-0.1,1.2s0,1,0.1,1.3c0.1,0.4,0.2,0.6,0.3,0.9c0.1,0.2,0.3,0.4,0.5,0.5
			s0.4,0.1,0.7,0.1c0.4,0,0.6-0.1,0.8-0.2s0.3-0.2,0.4-0.3l0.5,0.8c0,0.1-0.1,0.1-0.2,0.2c-0.1,0.1-0.2,0.2-0.4,0.2
			c-0.1,0.1-0.3,0.1-0.5,0.2c-0.2,0.1-0.5,0.1-0.7,0.1c-0.4,0-0.8-0.1-1.1-0.2s-0.6-0.3-0.9-0.6c-0.3-0.3-0.5-0.7-0.6-1.2
			c-0.1-0.5-0.2-1.1-0.2-1.8c0-0.7,0.1-1.3,0.3-1.7c0.2-0.5,0.4-0.9,0.7-1.2c0.3-0.3,0.6-0.5,1-0.6s0.7-0.2,1.1-0.2
			c0.3,0,0.5,0,0.7,0.1c0.2,0,0.4,0.1,0.5,0.2s0.3,0.2,0.4,0.2c0.1,0.1,0.2,0.2,0.2,0.2L300.8,70.8z M306.4,76.6V72
			c0-0.6-0.1-1-0.3-1.3c-0.2-0.3-0.5-0.4-0.9-0.4c-0.4,0-0.7,0.1-0.9,0.3c-0.2,0.2-0.4,0.4-0.6,0.5v5.5h-1.2V66.1l1.2-0.1v4.2l0,0
			c0-0.1,0.1-0.1,0.2-0.2s0.2-0.2,0.3-0.3c0.1-0.1,0.3-0.2,0.5-0.3c0.2-0.1,0.5-0.1,0.8-0.1c0.6,0,1.1,0.2,1.5,0.6s0.6,1.1,0.6,2
			v4.7C307.6,76.6,306.4,76.6,306.4,76.6z M314.4,76.6h-1.1v-0.8l0,0c0,0.1-0.1,0.1-0.2,0.3c-0.1,0.1-0.2,0.2-0.4,0.3
			c-0.2,0.1-0.3,0.2-0.6,0.3c-0.2,0.1-0.5,0.1-0.7,0.1c-0.3,0-0.6,0-0.9-0.1c-0.3-0.1-0.5-0.2-0.6-0.5c-0.2-0.2-0.3-0.5-0.4-0.8
			c-0.1-0.3-0.1-0.7-0.1-1.2v-4.7h1.2V74c0,0.6,0.1,1,0.3,1.3c0.2,0.3,0.5,0.4,0.9,0.4c0.3,0,0.6-0.1,0.9-0.3
			c0.2-0.2,0.4-0.3,0.6-0.5v-5.5h1.2v7.2H314.4z M320.2,76.6V72c0-0.6-0.1-1-0.3-1.3c-0.2-0.3-0.5-0.4-0.9-0.4
			c-0.4,0-0.7,0.1-0.9,0.3c-0.2,0.2-0.4,0.4-0.6,0.5v5.5h-1.2v-7.1h1.1v0.8l0,0c0-0.1,0.1-0.1,0.2-0.3c0.1-0.1,0.2-0.2,0.4-0.3
			c0.2-0.1,0.3-0.2,0.6-0.3c0.2-0.1,0.5-0.1,0.7-0.1c0.3,0,0.6,0,0.9,0.1c0.3,0.1,0.5,0.2,0.7,0.5c0.2,0.2,0.3,0.5,0.4,0.8
			s0.1,0.7,0.1,1.2v4.7C321.4,76.6,320.2,76.6,320.2,76.6z M328.3,70.4h-0.9c0.2,0.4,0.3,0.8,0.3,1.3c0,0.4-0.1,0.7-0.2,1
			c-0.1,0.3-0.3,0.6-0.5,0.8c-0.2,0.2-0.5,0.4-0.8,0.5s-0.6,0.2-1,0.2c-0.1,0-0.1,0-0.2,0c-0.1,0-0.1,0-0.2,0
			c-0.1,0.1-0.2,0.1-0.4,0.2c-0.1,0.1-0.2,0.3-0.2,0.4s0.1,0.3,0.2,0.4c0.1,0.1,0.3,0.1,0.6,0.1h0.9c0.3,0,0.7,0,0.9,0.1
			c0.3,0.1,0.5,0.2,0.8,0.3c0.2,0.2,0.4,0.3,0.5,0.6c0.1,0.2,0.2,0.5,0.2,0.9s-0.1,0.7-0.2,1.1c-0.2,0.3-0.4,0.6-0.7,0.8
			c-0.3,0.2-0.7,0.4-1.1,0.5s-0.9,0.2-1.4,0.2c-0.8,0-1.3-0.2-1.7-0.5c-0.4-0.3-0.6-0.8-0.6-1.4c0-0.3,0-0.5,0.1-0.7
			c0.1-0.2,0.2-0.4,0.3-0.5s0.3-0.3,0.4-0.3c0.1-0.1,0.2-0.2,0.3-0.2l0,0c-0.3-0.2-0.5-0.6-0.5-1c0-0.2,0-0.4,0.1-0.5
			c0.1-0.1,0.2-0.2,0.3-0.3c0.1-0.1,0.2-0.2,0.3-0.2c0.1-0.1,0.2-0.1,0.2-0.1l0,0c-0.4-0.2-0.7-0.4-0.9-0.8s-0.3-0.8-0.3-1.4
			c0-0.4,0.1-0.7,0.2-1c0.1-0.3,0.3-0.6,0.5-0.8c0.2-0.2,0.5-0.3,0.8-0.4c0.3-0.1,0.6-0.1,0.9-0.1s0.7,0.1,1,0.2h2.2L328.3,70.4z
			 M325,76.4c-0.2,0-0.4,0-0.5,0s-0.2,0.1-0.3,0.2c-0.1,0.1-0.2,0.2-0.2,0.3c-0.1,0.1-0.1,0.2-0.2,0.3c0,0.1-0.1,0.3-0.1,0.5
			c0,0.8,0.4,1.1,1.3,1.1c0.7,0,1.3-0.1,1.6-0.4s0.5-0.6,0.5-1c0-0.3-0.1-0.6-0.3-0.7c-0.2-0.1-0.5-0.2-0.9-0.2H325V76.4z
			 M326.6,71.7c0-0.5-0.1-0.9-0.4-1.1c-0.2-0.2-0.5-0.3-0.9-0.3c-0.3,0-0.6,0.1-0.9,0.3c-0.2,0.2-0.4,0.6-0.4,1.1s0.1,0.9,0.4,1.1
			c0.2,0.2,0.5,0.3,0.9,0.3c0.3,0,0.6-0.1,0.9-0.3C326.4,72.5,326.6,72.2,326.6,71.7z"/>
		<polygon class="st4" points="239.3,86.6 241.2,86.6 241.2,111.5 236.8,111.5 236.8,86.6 		"/>
		<polygon class="st5" points="239.3,61.5 241.2,61.5 241.2,86.6 236.8,86.6 236.8,61.5 		"/>
		<g>
			<path class="st3" d="M225.5,45.4c1.3,2,2.3,2,3.8,2c-1.3-1-2.1-2.2-2.5-2.8l-2.3-3.7c-0.2-1.2-0.8-2.2-1.7-3
				c0.3-0.1,0.5-0.2,0.7-0.3c-1.5,0-3-0.8-3.9-0.8c-0.5,0-0.9,0.3-0.9,0.7c0,0.5,0.5,0.9,1.4,0.9c0.2,0,0.5,0,0.7-0.1
				c0.5,0.7,0.9,1.3,0.9,2.2c0,1.6-2,2.9-3.9,2.9c-0.1,0-0.2,0-0.3,0c-0.2-0.4-0.8-1.1-0.8-1.9c0-1.3,0.8-2.4,0.8-3.6
				c0-0.8-0.4-1.3-0.5-1.5c0.2-0.2,0.5-0.5,0.6-0.7c-0.1,0.1-0.3,0.1-0.6,0.1c-0.9,0-1.7-0.2-2.5-0.2c-0.4,0-0.5,0.1-0.5,0.3V36
				c-0.2-0.1-0.3-0.1-0.5-0.1s-0.5-0.1-0.7-0.1c-0.9,0-1.2,0.4-1.2,0.7s0.2,0.8,0.5,1.2c0.4-0.2,0.8-0.3,1-0.3c0.5,0,0.9,0.5,1.1,1
				c-0.3,0-0.4,0.1-0.7,0.1c-0.9,0-1.5-0.3-1.6-0.3l0,0c0,0.1,0.3,0.5,0.7,0.6c0.7,0.2,1.6,0.3,1.8,0.4c0,0-0.2,0.3-0.4,0.4h-0.1
				c-0.7-0.1-0.9-0.2-1.7-0.5l0,0c0,0.3,0.9,1.1,1.7,1.4c-0.7,0.9-1.5,1.7-1.9,3c-0.1,0-0.2,0-0.3,0c-2,0-3.9-1.3-3.9-2.9
				c0-0.9,0.4-1.5,0.9-2.2c0.3,0,0.5,0.1,0.7,0.1c0.9,0,1.4-0.5,1.4-0.9s-0.3-0.7-0.9-0.7c-0.8,0-2.3,0.8-3.9,0.8
				c0.2,0.1,0.4,0.2,0.7,0.3c-0.9,0.8-1.5,1.9-1.7,3l-2.3,3.7c-0.4,0.6-1.2,1.9-2.5,2.8c1.5,0,2.5,0,3.8-2l1.2-1.9
				c0.1,0.2,0.2,0.5,0.3,0.7L203,48c-0.4,0.6-1.2,1.8-2.5,2.8c1.5,0,2.5,0,3.8-2l2-3.3c0.2,0.2,0.3,0.3,0.5,0.5l-2.8,4.6
				c-0.4,0.6-1.2,1.8-2.5,2.8c1.5,0,2.5,0,3.8-2l2.8-4.5c0.2,0.1,0.4,0.2,0.6,0.3l-3.4,5.5c-0.4,0.6-1.2,1.8-2.5,2.8
				c1.5,0,2.5,0,3.8-2l3.5-5.7c0.2,0.1,0.4,0.2,0.6,0.2l-4,6.4c-0.4,0.6-1.2,1.9-2.5,2.8c1.5,0,2.5,0,3.8-2l4.3-6.8h0.1
				c0.1,0.4,0.2,0.7,0.2,1.1c0,2.1-1.4,4-3.1,5.5c0.1,0,0.3,0.1,0.5,0.1c0.3,0,0.6,0,0.7,0c-0.4,0.9-1.2,2-1.7,2.6
				c-0.6-0.1-1.4-0.2-1.9-0.2c-0.6,0-0.6,0.3-0.6,0.6c0,0.5,0.2,0.9,0.5,1.1c0.1-0.3,0.3-0.6,1.3-0.6h0.1c-0.3,0.3-1.2,1.1-1.2,1.7
				c0,0.4,0.4,1,1,1c0-0.1,0-0.2,0-0.3c0-0.5,0.4-1.1,0.8-1.5c0,0.1,0,0.1,0,0.2c0,1.2,0.1,1.7,0.8,1.7c0.4,0,0.6-0.2,0.7-0.3
				c-0.5-0.4-0.5-0.8-0.5-1.4c0-0.2,0-0.3,0-0.6c0-0.1,0-0.3,0-0.5c0.3,0,0.4,0,0.6,0c0,0,1-0.1,1.3,0.5c0.3-0.3,0.7-0.6,0.7-1
				c0-0.3-0.1-0.6-0.7-0.6c-0.2,0-0.8,0.1-1.4,0.1c0.1-0.3,0.8-1.3,1.3-1.9c0.1,0.3,0.2,0.6,0.5,0.8c0-0.4,0.3-1.8,1-2.6
				c0.1,0.5,0.2,1.1,0.2,2.3c0,2.9-0.7,5-2.2,5.4c0.2,0.3,0.6,0.6,1,0.6c0.5,0,0.8-0.6,1.1-1.2c0.2,0.4,0.6,1.5,1,1.5
				c0.4,0,0.9-1,1-1.5c0.3,0.6,0.6,1.2,1.1,1.2c0.4,0,0.8-0.3,1-0.6c-1.5-0.4-2.2-2.5-2.2-5.4c0-1.2,0.1-1.8,0.2-2.3
				c0.7,0.8,0.9,2.2,1,2.6c0.3-0.2,0.4-0.5,0.5-0.8c0.6,0.7,1.2,1.6,1.3,1.9c-0.5,0-1.2-0.1-1.4-0.1c-0.5,0-0.7,0.3-0.7,0.6
				c0,0.4,0.4,0.8,0.7,1c0.3-0.5,1.3-0.5,1.3-0.5c0.2,0,0.3,0,0.6,0c0,0.1,0,0.3,0,0.5c0,0.2,0,0.4,0,0.6c0,0.7,0,1-0.5,1.4
				c0.1,0.1,0.3,0.3,0.7,0.3c0.7,0,0.8-0.5,0.8-1.7c0-0.1,0-0.1,0-0.2c0.4,0.4,0.8,1,0.8,1.5c0,0.1,0,0.2,0,0.3c0.6,0,1-0.6,1-1
				c0-0.6-0.9-1.4-1.2-1.7h0.1c1,0,1.2,0.3,1.3,0.6c0.3-0.2,0.5-0.6,0.5-1.1c0-0.3-0.1-0.6-0.6-0.6s-1.3,0.1-1.9,0.2
				c-0.4-0.6-1.3-1.7-1.7-2.6c0.2,0,0.4,0,0.7,0c0.2,0,0.4,0,0.5-0.1c-1.7-1.5-3.1-3.4-3.1-5.5c0-0.3,0.1-0.7,0.2-1.1h0.1l4.3,6.8
				c1.3,2,2.3,2,3.8,2c-1.2-1-2.1-2.2-2.5-2.8l-4-6.4c0.2-0.1,0.4-0.1,0.6-0.2l3.5,5.7c1.3,2,2.3,2,3.8,2c-1.3-1-2.1-2.2-2.5-2.8
				l-3.4-5.5c0.2-0.1,0.4-0.2,0.6-0.3l2.8,4.5c1.3,2,2.3,2,3.8,2c-1.3-1-2.1-2.2-2.5-2.8l-2.3-4.6c0.2-0.2,0.3-0.3,0.5-0.5l2,3.3
				c1.3,2,2.3,2,3.8,2c-1.3-1-2.1-2.2-2.5-2.8l-2.4-3.8c0.1-0.2,0.2-0.5,0.3-0.7L225.5,45.4z M206.4,41c0-1.4,1-2.6,1.4-2.9
				c0.1,0,0.2,0,0.3,0.1c-0.4,0.5-1.1,1.3-1.1,2.3c0,2.1,2.2,3.9,4.7,3.9c0,0.2,0,0.4,0,0.6c0,0.3,0,0.6,0,0.9
				C208.9,45.8,206.4,43.5,206.4,41z M210.2,58L210.2,58L210.2,58c0.8,0,1.2,0,1.5,0c0.1,0,0.2,0,0.3,0c0.2,0,0.4,0,0.4,0.3
				c0,0.2-0.2,0.4-0.4,0.6c-0.3-0.3-0.7-0.3-1.3-0.3c-0.3,0-0.6,0-0.8,0.1l0,0l0,0v0.1c0,0.2,0.1,0.4,0.1,0.7v0.3v0.3
				c0,0.7,0.1,1.1,0.3,1.4c-0.1,0-0.2,0-0.2,0c-0.4,0-0.5-0.2-0.5-1.4c0-0.2,0-0.5,0-0.6v-0.2h-0.1c-0.6,0.5-1.3,1.3-1.3,2
				c-0.2-0.1-0.4-0.4-0.4-0.6c0-0.3,0.5-0.9,1.1-1.5l0.3-0.3l0,0h-0.1c-0.1,0-0.4-0.1-0.6-0.1c-0.7,0-1.1,0.1-1.4,0.4
				c-0.1-0.1-0.2-0.5-0.2-0.6s0-0.2,0.1-0.3s0.2-0.1,0.2-0.1l0,0c0.8,0,1.6,0.1,2,0.2l0,0l0,0c0.1-0.1,1.5-2,1.9-3
				c0.1,0,0.2-0.1,0.3-0.1c0.3,0,0.4,0.2,0.4,0.5C211,56.6,210.4,57.5,210.2,58z M217.9,55c0.1,0,0.2,0,0.3,0.1c0.4,1,1.8,2.9,1.9,3
				l0,0l0,0c0.3-0.1,1.2-0.2,2-0.2l0,0c0.1,0,0.2,0,0.2,0.1c0,0,0.1,0.1,0.1,0.3s-0.1,0.5-0.2,0.6c-0.3-0.3-0.7-0.4-1.4-0.4
				c-0.2,0-0.4,0.1-0.6,0.1h-0.1H220l0.4,0.4c0.6,0.6,1.1,1.1,1.1,1.5c0,0.2-0.2,0.5-0.4,0.6c0-0.6-0.7-1.5-1.3-2L220,59v0.2
				c0,0.2,0,0.4,0,0.6c0,1.2-0.1,1.4-0.5,1.4c-0.1,0-0.2,0-0.2,0c0.2-0.3,0.3-0.7,0.3-1.4v-0.3v-0.3c0-0.3,0-0.5,0.1-0.7v-0.1h-0.1
				c-0.2,0-0.6-0.1-0.8-0.1c-0.6,0-1,0.1-1.3,0.3c-0.2-0.2-0.4-0.4-0.4-0.6c0-0.3,0.2-0.3,0.4-0.3c0.1,0,0.2,0,0.3,0
				c0.3,0,0.6,0.1,1.4,0.1l0,0l0,0c-0.2-0.6-0.8-1.4-1.7-2.5C217.6,55.2,217.6,55,217.9,55z M214.6,38.4c-0.1-0.4-0.3-0.7-0.5-1
				c-0.2-0.3-0.6-0.6-1.1-0.6c-0.2,0-0.6,0.1-0.8,0.2c-0.1-0.2-0.3-0.6-0.3-0.7c0-0.2,0.3-0.4,0.9-0.4c1.3,0,2.1,0.6,2.1,1.6
				C214.9,37.8,214.7,38.2,214.6,38.4z M215.2,37.2c0-0.3-0.2-0.5-0.3-0.7c0-0.3,0.1-0.5,0.5-0.3c-0.2,0.2-0.1,0.6-0.1,0.6
				s0.4-0.2,0.4-0.5C216.4,36.4,215.9,37.3,215.2,37.2z M217.7,45.8c0-0.3,0.1-0.6,0.1-0.9c0-0.2,0-0.3,0-0.6c2.5,0,4.7-1.8,4.7-3.9
				c0-1-0.7-1.8-1.1-2.3c0.1,0,0.2,0,0.3-0.1c0.3,0.4,1.3,1.5,1.3,3C223,43.4,220.5,45.7,217.7,45.8z"/>
		</g>
		<polygon class="st3" points="241.2,36.6 241.2,61.6 239.3,61.6 236.8,61.6 236.8,36.6 		"/>
	</g>
</g>
<g>
	<g>
		<path class="st6" d="M12.2,87h-0.9c-0.1,0-0.2,0-0.2-0.2v-3.3c0-1.5,0.1-2.9,0.1-3.7l-0.1,0c-0.1,0.2-0.2,0.8-0.4,1.1l-2,4.5
			c0,0.1-0.1,0.1-0.1,0.1H8.2c-0.1,0-0.1,0-0.1-0.1l-2-4.5c-0.1-0.3-0.3-0.8-0.4-1.1l-0.1,0c0.1,0.8,0.1,2.1,0.1,3.7v3.3
			c0,0.1,0,0.2-0.2,0.2H4.7c-0.1,0-0.2,0-0.2-0.2v-9.7c0-0.1,0-0.2,0.2-0.2h0.9c0.1,0,0.1,0,0.1,0.1L8.2,83c0,0.1,0.2,0.5,0.2,0.6h0
			c0-0.1,0.2-0.5,0.2-0.6l2.5-5.8c0-0.1,0.1-0.1,0.1-0.1h0.9c0.1,0,0.2,0,0.2,0.2v9.7C12.4,87,12.3,87,12.2,87z"/>
		<path class="st6" d="M20.3,83.6h-4c-0.1,0-0.2,0-0.2,0.2v0.7c0,0.8,0.7,1.6,1.6,1.6c0.5,0,1.1-0.3,1.4-0.9c0-0.1,0.1-0.1,0.2-0.1
			l0.8,0.4c0.1,0,0.1,0.1,0.1,0.2c-0.1,0.3-0.3,0.5-0.5,0.7c-0.4,0.4-1,0.7-2,0.7c-1.7,0-2.8-1.1-2.8-2.6v-2.1
			c0-1.5,1.1-2.6,2.8-2.6c1.7,0,2.8,1.1,2.8,2.6v1C20.5,83.6,20.4,83.6,20.3,83.6z M19.2,82.4c0-0.8-0.6-1.5-1.6-1.5
			c-1,0-1.6,0.7-1.6,1.6v0.2c0,0.1,0.1,0.1,0.2,0.1H19c0.1,0,0.2,0,0.2-0.2V82.4z"/>
		<path class="st6" d="M27.7,87h-0.8c-0.1,0-0.2,0-0.2-0.2v-0.4c0-0.2-0.2-0.2-0.3-0.1C26,86.8,25.4,87,25,87
			c-1.7,0-2.8-1.1-2.8-2.6v-1.8c0-1.6,1.2-2.6,2.6-2.6c0.5,0,1,0.2,1.4,0.7c0.1,0.1,0.3,0.1,0.3-0.1v-3.3c0-0.1,0-0.2,0.2-0.2h0.9
			c0.1,0,0.2,0,0.2,0.2v9.7C27.8,87,27.8,87,27.7,87z M26.6,82.6c0-0.8-0.7-1.6-1.6-1.6s-1.6,0.7-1.6,1.6v1.8c0,0.8,0.7,1.6,1.6,1.6
			c0.8,0,1.6-0.7,1.6-1.6V82.6z"/>
		<path class="st6" d="M31,78.5c-0.4,0-0.8-0.3-0.8-0.8c0-0.4,0.3-0.8,0.8-0.8c0.4,0,0.8,0.3,0.8,0.8C31.8,78.1,31.5,78.5,31,78.5z
			 M31.5,87h-0.9c-0.1,0-0.2,0-0.2-0.2v-6.8c0-0.1,0-0.2,0.2-0.2h0.9c0.1,0,0.2,0,0.2,0.2v6.8C31.7,87,31.6,87,31.5,87z"/>
		<path class="st6" d="M39.4,83.6h-4c-0.1,0-0.2,0-0.2,0.2v0.7c0,0.8,0.7,1.6,1.6,1.6c0.5,0,1.1-0.3,1.4-0.9c0-0.1,0.1-0.1,0.2-0.1
			l0.8,0.4c0.1,0,0.1,0.1,0.1,0.2c-0.1,0.3-0.3,0.5-0.5,0.7c-0.4,0.4-1,0.7-2,0.7c-1.7,0-2.8-1.1-2.8-2.6v-2.1
			c0-1.5,1.1-2.6,2.8-2.6c1.7,0,2.8,1.1,2.8,2.6v1C39.6,83.6,39.5,83.6,39.4,83.6z M38.3,82.4c0-0.8-0.6-1.5-1.6-1.5
			c-1,0-1.6,0.7-1.6,1.6v0.2c0,0.1,0.1,0.1,0.2,0.1h2.8c0.1,0,0.2,0,0.2-0.2V82.4z"/>
		<path class="st6" d="M47.4,87h-0.9c-0.1,0-0.2,0-0.2-0.2v-4.3c0-0.8-0.7-1.6-1.6-1.6c-0.9,0-1.6,0.7-1.6,1.6v4.3
			c0,0.1,0,0.2-0.2,0.2h-0.9c-0.1,0-0.2,0-0.2-0.2v-6.8c0-0.1,0-0.2,0.2-0.2h0.8c0.1,0,0.2,0,0.2,0.2v0.4c0,0.2,0.2,0.3,0.3,0.1
			c0.4-0.5,1-0.7,1.4-0.7c1.7,0,2.8,1.1,2.8,2.6v4.3C47.5,87,47.5,87,47.4,87z"/>
		<path class="st6" d="M50.7,78.5c-0.4,0-0.8-0.3-0.8-0.8c0-0.4,0.3-0.8,0.8-0.8c0.4,0,0.8,0.3,0.8,0.8
			C51.4,78.1,51.1,78.5,50.7,78.5z M51.1,87h-0.9c-0.1,0-0.2,0-0.2-0.2v-6.8c0-0.1,0-0.2,0.2-0.2h0.9c0.1,0,0.2,0,0.2,0.2v6.8
			C51.3,87,51.2,87,51.1,87z"/>
		<path class="st6" d="M59.3,87h-0.9c-0.1,0-0.2,0-0.2-0.2v-4.3c0-0.8-0.7-1.6-1.6-1.6c-0.9,0-1.6,0.7-1.6,1.6v4.3
			c0,0.1,0,0.2-0.2,0.2H54c-0.1,0-0.2,0-0.2-0.2v-6.8c0-0.1,0-0.2,0.2-0.2h0.8c0.1,0,0.2,0,0.2,0.2v0.4c0,0.2,0.2,0.3,0.3,0.1
			c0.4-0.5,1-0.7,1.4-0.7c1.7,0,2.8,1.1,2.8,2.6v4.3C59.5,87,59.4,87,59.3,87z"/>
		<path class="st6" d="M67.4,87h-0.9c-0.1,0-0.2,0-0.2-0.2v-4.3c0-0.8-0.7-1.6-1.6-1.6c-0.9,0-1.6,0.7-1.6,1.6v4.3
			c0,0.1,0,0.2-0.2,0.2h-0.9C62,87,62,87,62,86.9v-6.8c0-0.1,0-0.2,0.2-0.2h0.8c0.1,0,0.2,0,0.2,0.2v0.4c0,0.2,0.2,0.3,0.3,0.1
			c0.4-0.5,1-0.7,1.4-0.7c1.7,0,2.8,1.1,2.8,2.6v4.3C67.6,87,67.5,87,67.4,87z"/>
		<path class="st6" d="M72.6,87.2c-1.7,0-2.8-1.1-2.8-2.6v-2.1c0-1.5,1.1-2.6,2.8-2.6c1.7,0,2.8,1.1,2.8,2.6v2.1
			C75.5,86.1,74.4,87.2,72.6,87.2z M74.2,82.4c0-0.8-0.6-1.5-1.6-1.5c-1,0-1.6,0.7-1.6,1.6v2.2c0,0.8,0.6,1.5,1.6,1.5
			c1,0,1.6-0.7,1.6-1.6V82.4z"/>
		<path class="st6" d="M80.6,86.9c0,0.1-0.1,0.1-0.1,0.1h-0.8c-0.1,0-0.1,0-0.1-0.1l-2.7-6.8C76.8,80,76.8,80,77,80h1
			c0.1,0,0.1,0,0.1,0.1l1.8,4.5c0,0.1,0.2,0.5,0.2,0.6h0.1c0-0.1,0.1-0.5,0.2-0.6l1.8-4.5c0-0.1,0.1-0.1,0.1-0.1h1
			c0.1,0,0.2,0.1,0.1,0.2L80.6,86.9z"/>
		<path class="st6" d="M89.8,87h-0.8c-0.1,0-0.2,0-0.2-0.2v-0.4c0-0.2-0.2-0.3-0.3-0.1c-0.5,0.5-1,0.7-1.4,0.7h-0.6
			c-1.1,0-2.1-0.8-2.1-1.9V85c0-1.2,0.9-1.9,2.1-1.9h1.9c0.1,0,0.2,0,0.2-0.2v-0.5c0-0.9-0.7-1.5-1.6-1.5c-0.5,0-1,0.3-1.4,0.9
			c0,0.1-0.1,0.1-0.2,0.1l-0.8-0.4c-0.1,0-0.1-0.1-0.1-0.2c0.2-0.3,0.4-0.6,0.6-0.8c0.4-0.4,1-0.6,1.8-0.6c1.7,0,2.8,1,2.8,2.6v4.5
			C90,87,90,87,89.8,87z M88.7,84.2c0-0.1,0-0.2-0.2-0.2h-1.9c-0.5,0-0.8,0.4-0.8,0.8v0.3c0,0.4,0.4,0.8,0.8,0.8h0.6
			c0.7,0,1.3-0.6,1.5-1.3V84.2z"/>
		<path class="st6" d="M95.2,87.2c-0.6-0.1-1.2-0.3-1.6-0.6c-0.6-0.5-0.9-1.2-0.9-2v-3.3c0-0.1,0-0.2-0.2-0.2h-0.9
			c-0.1,0-0.2,0-0.2-0.2v-0.4l1.8-1.9c0,0,0.1,0,0.1,0h0.4c0.1,0,0.2,0,0.2,0.2v1.1c0,0.1,0,0.2,0.2,0.2h1.1c0.1,0,0.2,0,0.2,0.2
			v0.8c0,0.1,0,0.2-0.2,0.2h-1.1c-0.1,0-0.2,0-0.2,0.2v3.3c0,0.7,0.5,1.4,1.3,1.5c0.1,0,0.1,0.1,0.1,0.2V87
			C95.4,87.1,95.3,87.2,95.2,87.2z"/>
		<path class="st6" d="M98.1,78.5c-0.4,0-0.8-0.3-0.8-0.8c0-0.4,0.3-0.8,0.8-0.8c0.4,0,0.8,0.3,0.8,0.8
			C98.9,78.1,98.6,78.5,98.1,78.5z M98.6,87h-0.9c-0.1,0-0.2,0-0.2-0.2v-6.8c0-0.1,0-0.2,0.2-0.2h0.9c0.1,0,0.2,0,0.2,0.2v6.8
			C98.8,87,98.7,87,98.6,87z"/>
		<path class="st6" d="M103.9,87.2c-1.7,0-2.8-1.1-2.8-2.6v-2.1c0-1.5,1.1-2.6,2.8-2.6c1.7,0,2.8,1.1,2.8,2.6v2.1
			C106.7,86.1,105.6,87.2,103.9,87.2z M105.5,82.4c0-0.8-0.6-1.5-1.6-1.5c-1,0-1.6,0.7-1.6,1.6v2.2c0,0.8,0.6,1.5,1.6,1.5
			c1,0,1.6-0.7,1.6-1.6V82.4z"/>
		<path class="st6" d="M114.2,87h-0.9c-0.1,0-0.2,0-0.2-0.2v-4.3c0-0.8-0.7-1.6-1.6-1.6c-0.9,0-1.6,0.7-1.6,1.6v4.3
			c0,0.1,0,0.2-0.2,0.2h-0.9c-0.1,0-0.2,0-0.2-0.2v-6.8c0-0.1,0-0.2,0.2-0.2h0.8c0.1,0,0.2,0,0.2,0.2v0.4c0,0.2,0.2,0.3,0.3,0.1
			c0.4-0.5,1-0.7,1.4-0.7c1.7,0,2.8,1.1,2.8,2.6v4.3C114.3,87,114.3,87,114.2,87z"/>
		<path class="st6" d="M119.4,87.2h-0.5c-0.9,0-1.5-0.3-1.9-0.6c-0.3-0.2-0.5-0.5-0.6-0.8c0-0.1,0-0.2,0.1-0.2l0.8-0.4
			c0.1,0,0.2,0,0.2,0.1c0.3,0.5,0.9,0.9,1.4,0.9h0.5c0.9,0,1.3-0.5,1.3-1.1c0-0.8-1-0.9-2.1-1.1c-1-0.2-2.2-0.7-2.2-2
			c0-1.4,1.1-2.2,2.5-2.2h0.5c0.8,0,1.4,0.2,1.8,0.6c0.3,0.2,0.5,0.5,0.7,0.8c0,0.1,0,0.2-0.1,0.2l-0.8,0.4c-0.1,0-0.2,0-0.2-0.1
			c-0.3-0.5-0.8-0.9-1.4-0.9h-0.5c-0.9,0-1.3,0.4-1.3,1c0,0.9,1,1,2.1,1.2c1.2,0.3,2.2,0.6,2.2,1.9C122,86.2,121.1,87.2,119.4,87.2z
			"/>
		<path class="st6" d="M129,87h-5.3c-0.2,0-0.2-0.1-0.1-0.2l3.3-5.5c0.1-0.1,0-0.2-0.1-0.2h-2.9c-0.1,0-0.2,0-0.2-0.2v-0.8
			c0-0.1,0-0.2,0.2-0.2h5c0.2,0,0.2,0.1,0.1,0.2l-3.3,5.5c-0.1,0.1,0,0.2,0.1,0.2h3.3c0.1,0,0.2,0,0.2,0.2v0.8
			C129.1,87,129.1,87,129,87z"/>
		<path class="st6" d="M136.3,83.6h-4c-0.1,0-0.2,0-0.2,0.2v0.7c0,0.8,0.7,1.6,1.6,1.6c0.5,0,1.1-0.3,1.4-0.9c0-0.1,0.1-0.1,0.2-0.1
			l0.8,0.4c0.1,0,0.1,0.1,0.1,0.2c-0.1,0.3-0.3,0.5-0.5,0.7c-0.4,0.4-1,0.7-2,0.7c-1.7,0-2.8-1.1-2.8-2.6v-2.1
			c0-1.5,1.1-2.6,2.8-2.6c1.7,0,2.8,1.1,2.8,2.6v1C136.4,83.6,136.4,83.6,136.3,83.6z M135.2,82.4c0-0.8-0.6-1.5-1.6-1.5
			c-1,0-1.6,0.7-1.6,1.6v0.2c0,0.1,0.1,0.1,0.2,0.1h2.8c0.1,0,0.2,0,0.2-0.2V82.4z"/>
		<path class="st6" d="M143.9,87H143c-0.1,0-0.2,0-0.2-0.2v-4.3c0-0.8-0.7-1.6-1.6-1.6c-0.9,0-1.6,0.7-1.6,1.6v4.3
			c0,0.1,0,0.2-0.2,0.2h-0.9c-0.1,0-0.2,0-0.2-0.2v-6.8c0-0.1,0-0.2,0.2-0.2h0.8c0.1,0,0.2,0,0.2,0.2v0.4c0,0.2,0.2,0.3,0.3,0.1
			c0.4-0.5,1-0.7,1.4-0.7c1.7,0,2.8,1.1,2.8,2.6v4.3C144.1,87,144,87,143.9,87z"/>
		<path class="st6" d="M149.2,87.2c-0.6-0.1-1.2-0.3-1.6-0.6c-0.6-0.5-0.9-1.2-0.9-2v-3.3c0-0.1,0-0.2-0.2-0.2h-0.9
			c-0.1,0-0.2,0-0.2-0.2v-0.4l1.8-1.9c0,0,0.1,0,0.1,0h0.4c0.1,0,0.2,0,0.2,0.2v1.1c0,0.1,0,0.2,0.2,0.2h1.1c0.1,0,0.2,0,0.2,0.2
			v0.8c0,0.1,0,0.2-0.2,0.2h-1.1c-0.1,0-0.2,0-0.2,0.2v3.3c0,0.7,0.5,1.4,1.3,1.5c0.1,0,0.1,0.1,0.1,0.2V87
			C149.4,87.1,149.4,87.2,149.2,87.2z"/>
		<path class="st6" d="M154.7,81.3c-0.1,0-0.2,0-0.3,0c-0.9,0-1.6,0.6-1.6,1.5v4.1c0,0.1,0,0.2-0.2,0.2h-0.9c-0.1,0-0.2,0-0.2-0.2
			v-6.8c0-0.1,0-0.2,0.2-0.2h0.8c0.1,0,0.2,0,0.2,0.2v0.6c0,0.2,0.2,0.3,0.3,0.1c0.4-0.6,1-0.9,1.4-0.9h0.3c0.1,0,0.1,0.1,0.1,0.2v1
			C154.9,81.3,154.8,81.3,154.7,81.3z"/>
		<path class="st6" d="M161.8,87H161c-0.1,0-0.2,0-0.2-0.2v-0.4c0-0.2-0.2-0.3-0.3-0.1c-0.4,0.5-1,0.7-1.4,0.7
			c-1.7,0-2.8-1.1-2.8-2.6v-4.3c0-0.1,0-0.2,0.2-0.2h0.9c0.1,0,0.2,0,0.2,0.2v4.3c0,0.8,0.7,1.6,1.6,1.6c0.9,0,1.6-0.7,1.6-1.6v-4.3
			c0-0.1,0-0.2,0.2-0.2h0.9c0.1,0,0.2,0,0.2,0.2v6.8C161.9,87,161.9,87,161.8,87z"/>
		<path class="st6" d="M173,87h-0.9c-0.1,0-0.2,0-0.2-0.2v-4.3c0-0.9-0.7-1.6-1.4-1.6c-0.6,0-1.4,0.7-1.4,1.6v4.3
			c0,0.1,0,0.2-0.2,0.2H168c-0.1,0-0.2,0-0.2-0.2v-4.3c0-0.9-0.7-1.6-1.4-1.6c-0.6,0-1.4,0.7-1.4,1.6v4.3c0,0.1,0,0.2-0.2,0.2H164
			c-0.1,0-0.2,0-0.2-0.2v-6.8c0-0.1,0-0.2,0.2-0.2h0.8c0.1,0,0.2,0,0.2,0.2v0.4c0,0.2,0.1,0.3,0.3,0.1c0.4-0.5,1-0.7,1.5-0.7
			c0.6,0,1.3,0.2,1.7,0.8c0.1,0.1,0.2,0.1,0.3,0c0.5-0.6,1.2-0.8,1.9-0.8c1.5,0,2.6,1.1,2.6,2.6v4.3C173.2,87,173.1,87,173,87z"/>
		<path class="st6" d="M7.8,104.4H4.7c-0.1,0-0.2,0-0.2-0.2v-9.7c0-0.1,0-0.2,0.2-0.2h3.1c1.7,0,2.8,1.1,2.8,2.8v0.2
			c0,0.6-0.5,1.5-1.1,1.8c-0.1,0.1-0.1,0.2,0,0.3c0.5,0.3,1.1,1.1,1.1,1.9v0.2C10.6,103.3,9.5,104.4,7.8,104.4z M9.4,97.1
			c0-0.8-0.7-1.6-1.6-1.6H6c-0.1,0-0.2,0-0.2,0.2v3c0,0.1,0,0.2,0.2,0.2h1.9c0.9,0,1.6-0.7,1.6-1.6V97.1z M9.4,101.4
			c0-0.8-0.7-1.5-1.6-1.5H6c-0.1,0-0.2,0-0.2,0.2v3.1c0,0.1,0,0.2,0.2,0.2h1.9c0.9,0,1.6-0.7,1.6-1.6V101.4z"/>
		<path class="st6" d="M17.9,104.4h-0.8c-0.1,0-0.2,0-0.2-0.2v-0.4c0-0.2-0.2-0.3-0.3-0.1c-0.5,0.5-1,0.7-1.4,0.7h-0.6
			c-1.1,0-2.1-0.8-2.1-1.9v-0.1c0-1.2,0.9-1.9,2.1-1.9h1.9c0.1,0,0.2,0,0.2-0.2v-0.5c0-0.9-0.7-1.5-1.6-1.5c-0.5,0-1,0.3-1.4,0.9
			c0,0.1-0.1,0.1-0.2,0.1l-0.8-0.4c-0.1,0-0.1-0.1-0.1-0.2c0.2-0.3,0.4-0.6,0.6-0.8c0.4-0.4,1-0.6,1.8-0.6c1.7,0,2.8,1,2.8,2.6v4.5
			C18,104.4,18,104.4,17.9,104.4z M16.8,101.6c0-0.1,0-0.2-0.2-0.2h-1.9c-0.5,0-0.8,0.4-0.8,0.8v0.3c0,0.4,0.4,0.8,0.8,0.8h0.6
			c0.7,0,1.3-0.6,1.5-1.3V101.6z"/>
		<path class="st6" d="M23,104.4c-0.4,0-1-0.2-1.4-0.7c-0.1-0.1-0.3-0.1-0.3,0.1v0.4c0,0.1,0,0.2-0.2,0.2h-0.8c-0.1,0-0.2,0-0.2-0.2
			v-9.7c0-0.1,0-0.2,0.2-0.2h0.9c0.1,0,0.2,0,0.2,0.2v3.3c0,0.2,0.2,0.2,0.3,0.1c0.4-0.5,1-0.7,1.4-0.7c1.5,0,2.7,1.1,2.7,2.6v1.8
			C25.8,103.3,24.7,104.4,23,104.4z M24.6,100c0-0.8-0.7-1.6-1.6-1.6c-0.9,0-1.6,0.7-1.6,1.6v1.8c0,0.8,0.7,1.6,1.6,1.6
			c0.8,0,1.6-0.7,1.6-1.6V100z"/>
		<path class="st6" d="M33.4,101h-4c-0.1,0-0.2,0-0.2,0.2v0.7c0,0.8,0.7,1.6,1.6,1.6c0.5,0,1.1-0.3,1.4-0.9c0-0.1,0.1-0.1,0.2-0.1
			l0.8,0.4c0.1,0,0.1,0.1,0.1,0.2c-0.1,0.3-0.3,0.5-0.5,0.7c-0.4,0.4-1,0.7-2,0.7c-1.7,0-2.8-1.1-2.8-2.6v-2.1
			c0-1.5,1.1-2.6,2.8-2.6c1.7,0,2.8,1.1,2.8,2.6v1C33.5,101,33.5,101,33.4,101z M32.3,99.7c0-0.8-0.6-1.5-1.6-1.5
			c-1,0-1.6,0.7-1.6,1.6v0.2c0,0.1,0.1,0.1,0.2,0.1h2.8c0.1,0,0.2,0,0.2-0.2V99.7z"/>
		<path class="st6" d="M36.6,104.4h-0.9c-0.1,0-0.2,0-0.2-0.2v-9.7c0-0.1,0-0.2,0.2-0.2h0.9c0.1,0,0.2,0,0.2,0.2v9.7
			C36.8,104.4,36.7,104.4,36.6,104.4z"/>
		<path class="st6" d="M41.9,104.6h-0.5c-0.9,0-1.5-0.3-1.9-0.6c-0.3-0.2-0.5-0.5-0.6-0.8c0-0.1,0-0.2,0.1-0.2l0.8-0.4
			c0.1,0,0.2,0,0.2,0.1c0.3,0.5,0.9,0.9,1.4,0.9h0.5c0.9,0,1.3-0.5,1.3-1.1c0-0.8-1-0.9-2.1-1.1c-1-0.2-2.2-0.7-2.2-2
			c0-1.4,1.1-2.2,2.5-2.2h0.5c0.8,0,1.4,0.2,1.8,0.6c0.3,0.2,0.5,0.5,0.7,0.8c0,0.1,0,0.2-0.1,0.2l-0.8,0.4c-0.1,0-0.2,0-0.2-0.1
			c-0.3-0.5-0.8-0.9-1.4-0.9h-0.5c-0.9,0-1.3,0.4-1.3,1c0,0.9,1,1,2.1,1.2c1.2,0.3,2.2,0.6,2.2,1.9
			C44.5,103.5,43.6,104.6,41.9,104.6z"/>
		<path class="st6" d="M49.4,104.4c-0.4,0-1-0.2-1.4-0.7c-0.1-0.1-0.3-0.1-0.3,0.1v0.4c0,0.1,0,0.2-0.2,0.2h-0.8
			c-0.1,0-0.2,0-0.2-0.2v-9.7c0-0.1,0-0.2,0.2-0.2h0.9c0.1,0,0.2,0,0.2,0.2v3.3c0,0.2,0.2,0.2,0.3,0.1c0.4-0.5,1-0.7,1.4-0.7
			c1.5,0,2.7,1.1,2.7,2.6v1.8C52.2,103.3,51.1,104.4,49.4,104.4z M51,100c0-0.8-0.7-1.6-1.6-1.6c-0.9,0-1.6,0.7-1.6,1.6v1.8
			c0,0.8,0.7,1.6,1.6,1.6c0.8,0,1.6-0.7,1.6-1.6V100z"/>
		<path class="st6" d="M59.8,101h-4c-0.1,0-0.2,0-0.2,0.2v0.7c0,0.8,0.7,1.6,1.6,1.6c0.5,0,1.1-0.3,1.4-0.9c0-0.1,0.1-0.1,0.2-0.1
			l0.8,0.4c0.1,0,0.1,0.1,0.1,0.2c-0.1,0.3-0.3,0.5-0.5,0.7c-0.4,0.4-1,0.7-2,0.7c-1.7,0-2.8-1.1-2.8-2.6v-2.1
			c0-1.5,1.1-2.6,2.8-2.6c1.7,0,2.8,1.1,2.8,2.6v1C59.9,101,59.9,101,59.8,101z M58.7,99.7c0-0.8-0.6-1.5-1.6-1.5
			c-1,0-1.6,0.7-1.6,1.6v0.2c0,0.1,0.1,0.1,0.2,0.1h2.8c0.1,0,0.2,0,0.2-0.2V99.7z"/>
		<path class="st6" d="M65,98.7c-0.1,0-0.2,0-0.3,0c-0.9,0-1.6,0.6-1.6,1.5v4.1c0,0.1,0,0.2-0.2,0.2h-0.9c-0.1,0-0.2,0-0.2-0.2v-6.8
			c0-0.1,0-0.2,0.2-0.2h0.8c0.1,0,0.2,0,0.2,0.2v0.6c0,0.2,0.2,0.3,0.3,0.1c0.4-0.6,1-0.9,1.4-0.9h0.3c0.1,0,0.1,0.1,0.1,0.2v1
			C65.2,98.6,65.2,98.7,65,98.7z"/>
		<path class="st6" d="M70.6,108h-2.2c-1.1,0-2.1-0.7-2.1-1.9v-0.1c0-0.6,0.4-1.1,0.9-1.5c0.1-0.1,0.1-0.1,0.1-0.2
			c-0.2-0.3-0.3-0.5-0.3-0.8c0-0.4,0.1-0.7,0.3-1c0.1-0.1,0-0.2,0-0.2c-0.7-0.5-1-1.2-1-2.1V100c0-1.6,1.2-2.6,2.8-2.6
			c0.4,0,1,0.2,1.4,0.7c0.1,0.1,0.3,0.1,0.3-0.1v-0.4c0-0.1,0-0.2,0.2-0.2h0.8c0.1,0,0.2,0,0.2,0.2v2.6c0,1.6-1.2,2.6-2.8,2.6
			c-0.1,0-0.3,0-0.5,0c-0.3,0.1-0.5,0.4-0.5,0.6c0,0.3,0.2,0.6,0.5,0.6h1.9c1.2,0,2.1,0.7,2.1,1.9v0.1C72.6,107.2,71.7,108,70.6,108
			z M70.7,100c0-0.8-0.7-1.6-1.6-1.6c-0.9,0-1.6,0.7-1.6,1.6v0.2c0,0.8,0.7,1.6,1.6,1.6c0.8,0,1.6-0.7,1.6-1.6V100z M71.4,105.9
			c0-0.4-0.4-0.8-0.8-0.8h-2.2c-0.4,0-0.8,0.3-0.8,0.8v0.1c0,0.5,0.3,0.8,0.8,0.8h2.2c0.5,0,0.8-0.4,0.8-0.8V105.9z"/>
	</g>
	<g>
		<path class="st7" d="M56.3,69.8h-7.1c-0.5,0-0.8-0.2-0.8-0.8V36c0-0.5,0.2-0.8,0.8-0.8h7.1c0.5,0,0.8,0.2,0.8,0.8v33
			C57.1,69.5,56.9,69.8,56.3,69.8z"/>
	</g>
	<g>
		<path class="st6" d="M94.1,37.6L80.9,59.6c-0.5,0.8-0.8,1.4-0.8,1.7c0,0.4,0.3,0.6,0.8,0.6h13c0.5,0,0.8,0.2,0.8,0.8V69
			c0,0.5-0.2,0.8-0.8,0.8H65.8c-0.5,0-0.8-0.2-0.8-0.6c0-0.3,0.3-0.8,0.8-1.7l13.2-21.9c0.5-0.8,0.9-1.5,0.9-1.8
			c0-0.4-0.3-0.6-0.8-0.6H67.3c-0.5,0-0.8-0.2-0.8-0.8v-6.4c0-0.5,0.2-0.8,0.8-0.8h26.9c0.5,0,0.8,0.2,0.8,0.6
			C95,36.1,94.7,36.8,94.1,37.6z"/>
	</g>
	<path class="st6" d="M38.3,35.2h-7.1c-0.1,0-0.1,0-0.2,0H31c0,0-0.1,0-0.1,0c0,0,0,0,0,0c-0.2,0.1-0.4,0.2-0.5,0.4
		c-0.1,0.2-0.4,0.8-0.6,1.2l-6.4,12.9l0,0c-1,2.1-1.5,3.2-1.5,3.2h-0.3c0,0-0.4-1.2-1.5-3.2l-6.4-13.1c-0.2-0.4-0.5-0.9-0.6-1.1
		c-0.1-0.2-0.4-0.4-0.7-0.4H5.3c0,0,0,0,0,0c-0.1,0-0.1,0-0.2,0c-0.4,0.1-0.6,0.3-0.6,0.7v33c0,0.5,0.2,0.8,0.8,0.8h7.1
		c0.5,0,0.8-0.2,0.8-0.8v-1.3c0-8.3-0.1-14.6-0.1-14.6h0.2c1.2,3.3,1.9,3.8,3.7,7.7l0,0l0.2,0.3c0.2,0.4,0.6,0.7,1,0.7
		c0.1,0,0.1,0,0.2,0c0,0,0,0,0,0h6.9c0,0,0,0,0,0c0.1,0,0.1,0,0.2,0c0.4-0.1,0.9-0.4,1-0.7l0.1-0.3l0,0c1.8-3.9,2.6-4.5,3.7-7.7h0.2
		c0,0-0.1,6.4-0.1,14.6V69c0,0.5,0.2,0.8,0.8,0.8h7.1c0.5,0,0.8-0.2,0.8-0.8V36C39.1,35.5,38.9,35.2,38.3,35.2z"/>
</g>
<g>
	<path d="M11.4,15.5L11.4,15.5c-0.2,1-1.1,1.7-2.6,1.7c-2.3,0-4-1.8-4-5c0-3.3,1.8-5.1,4.4-5.1c1.7,0,3,0.8,3.7,2.2l-1.5,0.9
		c-0.4-0.8-1-1.5-2.2-1.5c-1.4,0-2.4,0.9-2.4,2.6v1.6c0,1.7,1,2.6,2.4,2.6c1.1,0,2.1-0.6,2.1-1.7v-0.6H9.3v-1.6H13V17h-1.6V15.5z"/>
	<path d="M14.5,13.3c0-2.3,1.2-3.8,3.4-3.8c2.3,0,3.3,1.7,3.3,3.7v0.6h-4.9V14c0,1.1,0.6,1.8,1.8,1.8c0.9,0,1.4-0.4,1.9-1l1,1.1
		c-0.6,0.8-1.7,1.3-3,1.3C15.8,17.2,14.5,15.7,14.5,13.3z M16.4,12.6v0.1h3v-0.1c0-1-0.5-1.7-1.4-1.7C17,10.9,16.4,11.6,16.4,12.6z"
		/>
	<path d="M23.2,11.1h-1.1V9.7h1.1V8.6c0-1.3,0.7-2,2-2h1.3v1.4H25v1.6h1.5v1.4H25V17h-1.8V11.1z"/>
	<path d="M27.2,13.3c0-2.3,1.3-3.8,3.4-3.8c2.1,0,3.4,1.5,3.4,3.8c0,2.4-1.3,3.8-3.4,3.8C28.5,17.2,27.2,15.7,27.2,13.3z M28.1,7.7
		V7.4c0-0.5,0.3-0.8,1-0.8s1,0.4,1,0.8v0.3c0,0.5-0.3,0.8-1,0.8S28.1,8.2,28.1,7.7z M32.1,14v-1.4c0-1.1-0.6-1.7-1.5-1.7
		c-0.9,0-1.5,0.6-1.5,1.7V14c0,1.1,0.6,1.7,1.5,1.7C31.5,15.7,32.1,15.1,32.1,14z M31,7.7V7.4c0-0.5,0.3-0.8,1-0.8
		c0.7,0,1,0.4,1,0.8v0.3c0,0.5-0.3,0.8-1,0.8C31.3,8.5,31,8.2,31,7.7z"/>
	<path d="M35.5,17V9.7h1.8v1.5h0.1c0.2-0.8,0.8-1.5,1.9-1.5h0.4v1.7h-0.6c-1.2,0-1.8,0.3-1.8,1.1V17H35.5z"/>
	<path d="M45.5,15.8L45.5,15.8c-0.3,0.8-1.1,1.4-2.1,1.4c-1.8,0-2.9-1.4-2.9-3.8c0-2.4,1-3.8,2.9-3.8c1,0,1.8,0.5,2,1.4h0.1V6.6h1.8
		V17h-1.8V15.8z M45.5,14.5v-2.3c0-0.7-0.7-1.2-1.5-1.2c-0.9,0-1.6,0.7-1.6,1.7V14c0,1,0.6,1.7,1.6,1.7
		C44.9,15.7,45.5,15.2,45.5,14.5z"/>
	<path d="M48.9,13.3c0-2.3,1.2-3.8,3.4-3.8c2.3,0,3.3,1.7,3.3,3.7v0.6h-4.9V14c0,1.1,0.6,1.8,1.8,1.8c0.9,0,1.4-0.4,1.9-1l1,1.1
		c-0.6,0.8-1.7,1.3-3,1.3C50.2,17.2,48.9,15.7,48.9,13.3z M50.7,12.6v0.1h3v-0.1c0-1-0.5-1.7-1.4-1.7C51.4,10.9,50.7,11.6,50.7,12.6
		z"/>
	<path d="M57.2,17V9.7H59v1.5H59c0.2-0.8,0.8-1.5,1.9-1.5h0.4v1.7h-0.6c-1.2,0-1.8,0.3-1.8,1.1V17H57.2z"/>
	<path d="M63.1,15.1v-4h-1.1V9.7h0.6c0.5,0,0.7-0.3,0.7-0.8V7.7h1.6v2h1.5v1.4h-1.5v4.5h1.4V17H65C63.8,17,63.1,16.3,63.1,15.1z"/>
	<path d="M75.8,15.8L75.8,15.8c-0.3,0.8-1.1,1.4-2.1,1.4c-1.8,0-2.9-1.4-2.9-3.8c0-2.4,1-3.8,2.9-3.8c1,0,1.8,0.5,2,1.4h0.1V6.6h1.8
		V17h-1.8V15.8z M75.8,14.5v-2.3c0-0.7-0.7-1.2-1.5-1.2c-0.9,0-1.6,0.7-1.6,1.7V14c0,1,0.6,1.7,1.6,1.7
		C75.2,15.7,75.8,15.2,75.8,14.5z"/>
	<path d="M84.1,15.8L84.1,15.8c-0.3,0.7-0.9,1.4-2.1,1.4c-1.5,0-2.3-1-2.3-2.9V9.7h1.8v4.4c0,1,0.4,1.6,1.2,1.6
		c0.7,0,1.4-0.4,1.4-1.2V9.7h1.8V17h-1.8V15.8z"/>
	<path d="M87.9,17V9.7h1.8v1.5h0.1c0.2-0.8,0.8-1.5,1.9-1.5h0.4v1.7h-0.6c-1.2,0-1.8,0.3-1.8,1.1V17H87.9z"/>
	<path d="M92.9,13.3c0-2.3,1.2-3.8,3.4-3.8c1.5,0,2.4,0.7,2.9,1.8L97.6,12C97.5,11.4,97,11,96.2,11c-1,0-1.5,0.7-1.5,1.7V14
		c0,1,0.5,1.7,1.5,1.7c0.9,0,1.3-0.5,1.5-1.1l1.4,0.7c-0.5,1.3-1.5,1.9-2.9,1.9C94.1,17.2,92.9,15.7,92.9,13.3z"/>
	<path d="M100.5,6.6h1.8v4.3h0.1c0.3-0.8,0.9-1.4,2-1.4c1.5,0,2.3,1,2.3,2.9V17H105v-4.4c0-1-0.4-1.6-1.2-1.6
		c-0.7,0-1.5,0.4-1.5,1.2V17h-1.8V6.6z"/>
</g>
</svg>
