<?xml version="1.0" encoding="utf-8"?>
<!-- Generator: Adobe Illustrator 20.1.0, SVG Export Plug-In . SVG Version: 6.00 Build 0)  -->
<svg version="1.1" id="Layer_1" xmlns="http://www.w3.org/2000/svg" xmlns:xlink="http://www.w3.org/1999/xlink" x="0px" y="0px"
	 viewBox="0 0 470 200" style="enable-background:new 0 0 470 200;" xml:space="preserve">
<style type="text/css">
	.st0{fill:#A4CFDA;}
	.st1{fill:#44707F;}
	.st2{fill:#D9EAED;stroke:#44707F;stroke-miterlimit:10;}
	.st3{fill:#6BACBE;stroke:#44707F;stroke-linecap:square;stroke-miterlimit:10;}
	.st4{fill:#98D4E2;}
	.st5{fill:#FFFFFF;stroke:#44707F;stroke-miterlimit:10;}
	.st6{fill:#8EC4D0;}
	.st7{fill:#D9EAED;}
	.st8{fill:#79A5AE;stroke:#44707F;stroke-miterlimit:10;}
	.st9{fill:#79A5AE;}
	.st10{fill:#8EB4B6;}
	.st11{fill:#6BACBE;stroke:#44707F;stroke-miterlimit:10;}
	.st12{fill:#8EC4D0;stroke:#44707F;stroke-miterlimit:10;}
</style>
<g>
	<rect x="162" y="91.7" class="st0" width="163.1" height="61"/>
	<rect x="64.2" y="116" class="st0" width="163.1" height="61"/>
	<polygon class="st0" points="64.2,116.2 127.5,199.8 0.8,199.8 	"/>
	<polygon class="st0" points="147.6,59.3 252.8,198.4 42.3,198.4 	"/>
	<polygon class="st0" points="293.1,11.8 435.7,200.1 150.6,200.1 	"/>
	<polygon class="st0" points="352.4,47.2 468.5,199.6 236.3,199.6 	"/>
	<g>
		<g>
			
				<rect x="54.4" y="129.7" transform="matrix(-1 -4.472967e-11 4.472967e-11 -1 114.7824 268.9513)" class="st1" width="6" height="9.5"/>
			<g>
				
					<rect x="53.9" y="139.7" transform="matrix(-1 -4.500856e-11 4.500856e-11 -1 114.7244 280.3327)" class="st1" width="6.8" height="1"/>
			</g>
		</g>
		
			<rect x="92.4" y="162.1" transform="matrix(-1 -3.515156e-11 3.515156e-11 -1 248.3568 361.3394)" class="st2" width="63.5" height="37.2"/>
		
			<rect x="35.2" y="158.6" transform="matrix(-1 -3.094204e-11 3.094204e-11 -1 127.6107 357.8146)" class="st2" width="57.2" height="40.7"/>
		<polygon class="st3" points="32.3,164.3 158.9,163.9 158.9,134.8 32.3,135.2 		"/>
		
			<rect x="35.6" y="164.7" transform="matrix(-1 1.875079e-06 -1.875079e-06 -1 127.6139 331.317)" class="st4" width="56.5" height="1.9"/>
		<g>
			
				<rect x="74.6" y="174.8" transform="matrix(-1 -4.442547e-11 4.442547e-11 -1 155.2006 358.9802)" class="st5" width="6" height="9.5"/>
			<g>
				
					<rect x="74.2" y="184.7" transform="matrix(-1 -4.474255e-11 4.474255e-11 -1 155.1426 370.3617)" class="st6" width="6.8" height="1"/>
			</g>
		</g>
		<g>
			
				<rect x="61.2" y="174.8" transform="matrix(-1 -4.472967e-11 4.472967e-11 -1 128.3839 358.9802)" class="st5" width="6" height="9.5"/>
			<g>
				
					<rect x="60.7" y="184.7" transform="matrix(-1 -4.474255e-11 4.474255e-11 -1 128.326 370.3617)" class="st6" width="6.8" height="1"/>
			</g>
		</g>
		<g>
			
				<rect x="47.8" y="174.8" transform="matrix(-1 -4.442547e-11 4.442547e-11 -1 101.5673 358.9802)" class="st5" width="6" height="9.5"/>
			<g>
				
					<rect x="47.3" y="184.7" transform="matrix(-1 -4.474255e-11 4.474255e-11 -1 101.5094 370.3617)" class="st6" width="6.8" height="1"/>
			</g>
		</g>
		
			<rect x="35.2" y="191.6" transform="matrix(-1 -4.897538e-12 4.897538e-12 -1 127.6107 390.8472)" class="st2" width="57.2" height="7.7"/>
		<polygon class="st7" points="124.2,138.6 153.7,165.1 94.7,165.1 		"/>
		<polygon class="st3" points="124.2,135.1 89.7,165.1 91.7,167.1 124.2,138.1 156.5,166.9 158.8,164.8 		"/>
		<g>
			
				<rect x="102.9" y="164.7" transform="matrix(-1 -4.803059e-11 4.803059e-11 -1 227.597 363.8505)" class="st2" width="21.8" height="34.4"/>
		</g>
		<g>
			
				<rect x="123.8" y="164.7" transform="matrix(-1 -4.803059e-11 4.803059e-11 -1 269.2934 363.8505)" class="st2" width="21.8" height="34.4"/>
		</g>
	</g>
	<g>
		<g>
			
				<rect x="208.6" y="154.1" transform="matrix(-1 -1.224647e-16 1.224647e-16 -1 420.6965 354.2133)" class="st1" width="3.5" height="45.9"/>
			<g>
				<path class="st6" d="M208,173.2c9.8,0,17.8-8.3,17.8-18.4v-15.6c0-12.6-9.9-22.9-22.1-22.9c-5.3,0-9.6,4.5-9.6,10v37
					c0,5.5,4.3,10,9.6,10H208z"/>
				<path class="st1" d="M203.8,116.8c-4.9,0-9,4.2-9,9.3v37c0,5.1,4,9.3,9,9.3h4.3c9.4,0,17.2-8,17.2-17.8v-15.6
					C225.2,126.8,215.5,116.8,203.8,116.8 M203.8,115.6c12.5,0,22.7,10.5,22.7,23.5v15.6c0,10.5-8.2,19.1-18.4,19.1h-4.3
					c-5.6,0-10.2-4.8-10.2-10.6v-37C193.5,120.3,198.1,115.6,203.8,115.6L203.8,115.6z"/>
			</g>
			<path class="st8" d="M203.8,170h4.3c9.4,0,17.2-8,17.2-17.8v-13.1c0-12.2-9.6-22.2-21.4-22.2h0c-4.9,0-9,4.2-9,9.3v34.5
				C194.8,165.8,198.8,170,203.8,170z"/>
		</g>
		<g>
			<rect x="194.7" y="150.1" class="st1" width="3.8" height="49.6"/>
			<g>
				<g>
					<path class="st9" d="M197.2,171.1c-11.3,0-20.4-9.2-20.4-20.4v-16.9c0-13.9,11.3-25.2,25.2-25.2c6.2,0,11.3,5.1,11.3,11.3v40
						c0,6.2-5.1,11.3-11.3,11.3H197.2z"/>
					<path class="st1" d="M202,109.1c5.9,0,10.8,4.8,10.8,10.8v40c0,5.9-4.8,10.8-10.8,10.8h-4.8c-11,0-19.9-8.9-19.9-19.9v-16.9
						C177.3,120.2,188.4,109.1,202,109.1 M202,108.1c-14.2,0-25.7,11.5-25.7,25.7v16.9c0,11.5,9.4,20.9,20.9,20.9h4.8
						c6.5,0,11.8-5.3,11.8-11.8v-40C213.8,113.4,208.5,108.1,202,108.1L202,108.1z"/>
				</g>
			</g>
			<path class="st10" d="M202,167.2h-4.8c-10.6,0-19.2-8.7-19.2-19.2v-14.2c0-13.2,10.8-24,24-24h0c5.5,0,10.1,4.5,10.1,10.1v37.3
				C212.1,162.6,207.6,167.2,202,167.2z"/>
		</g>
		<g>
			<rect x="202.1" y="160.6" class="st1" width="3.4" height="39.1"/>
			<g>
				<path class="st9" d="M202.8,180.7c-5.4,0-9.8-4.4-9.8-9.8v-28.7c0-5.4,4.4-9.8,9.8-9.8h7.2c10,0,18.2,8.2,18.2,18.2v7.5
					c0,12.5-10.1,22.6-22.6,22.6H202.8z"/>
				<path class="st1" d="M210,132.9c9.7,0,17.7,8,17.7,17.7v7.5c0,12.2-9.9,22.1-22.1,22.1h-2.7c-5.1,0-9.3-4.2-9.3-9.3v-28.7
					c0-5.1,4.2-9.3,9.3-9.3H210 M210,131.9h-7.2c-5.7,0-10.3,4.6-10.3,10.3V171c0,5.7,4.6,10.3,10.3,10.3h2.7
					c12.7,0,23.1-10.4,23.1-23.1v-7.5C228.6,140.3,220.3,131.9,210,131.9L210,131.9z"/>
			</g>
			<path class="st10" d="M202.8,133h7.2c9.7,0,17.7,8,17.7,17.7v3.5c0,12.2-9.9,22.1-22.1,22.1h-2.7c-5.1,0-9.3-4.2-9.3-9.3v-24.7
				C193.5,137.2,197.7,133,202.8,133z"/>
		</g>
	</g>
	<g>
		<g>
			<g>
				<rect x="321" y="120.4" class="st1" width="6" height="9.5"/>
				<g>
					<rect x="320.6" y="130.3" class="st1" width="6.8" height="1"/>
				</g>
			</g>
			<rect x="283.3" y="171.7" class="st2" width="30.2" height="27.5"/>
			<g>
				<rect x="301.4" y="181.3" class="st5" width="6" height="17.8"/>
				<g>
					<rect x="302.7" y="182.7" class="st6" width="3.4" height="15.1"/>
				</g>
			</g>
			<rect x="282.1" y="169" class="st11" width="31.5" height="2.5"/>
			<rect x="313.5" y="141.3" class="st2" width="46.8" height="57.9"/>
			<rect x="313.5" y="138.8" class="st11" width="46.8" height="2.5"/>
			<path class="st12" d="M313.5,169h-30.2c0.1-1.4,30.2-20.1,30.2-20.1S313.5,162.3,313.5,169z"/>
			<rect x="313.5" y="125.8" class="st12" width="46.8" height="13"/>
			<rect x="314.2" y="141.9" class="st4" width="45.4" height="1.9"/>
			<rect x="284" y="172.6" class="st4" width="28.8" height="1.9"/>
			<g>
				<rect x="288.8" y="181.4" class="st5" width="6" height="9.5"/>
				<g>
					<rect x="288.4" y="191.3" class="st6" width="6.8" height="1"/>
				</g>
			</g>
			<g>
				<rect x="321.1" y="181.3" class="st5" width="6" height="9.5"/>
				<g>
					<rect x="320.7" y="191.3" class="st6" width="6.8" height="1"/>
				</g>
			</g>
			<g>
				<rect x="334.1" y="181.4" class="st5" width="6" height="9.5"/>
				<g>
					<rect x="333.7" y="191.3" class="st6" width="6.8" height="1"/>
				</g>
			</g>
			<g>
				<rect x="347.1" y="181.3" class="st5" width="6" height="9.5"/>
				<g>
					<rect x="346.7" y="191.3" class="st6" width="6.8" height="1"/>
				</g>
			</g>
			<g>
				<rect x="321.1" y="157.1" class="st5" width="6" height="9.5"/>
				<g>
					<rect x="320.7" y="167" class="st6" width="6.8" height="1"/>
				</g>
			</g>
			<g>
				<rect x="334.1" y="157.1" class="st5" width="6" height="9.5"/>
				<g>
					<rect x="333.7" y="167" class="st6" width="6.8" height="1"/>
				</g>
			</g>
			<g>
				<rect x="347" y="157.1" class="st5" width="6" height="9.5"/>
				<g>
					<rect x="346.7" y="167" class="st6" width="6.8" height="1"/>
				</g>
			</g>
		</g>
		<g>
			<g>
				
					<rect x="346.3" y="150.6" transform="matrix(-1 -4.486823e-11 4.486823e-11 -1 739.4911 350.355)" class="st5" width="46.8" height="49.1"/>
				
					<rect x="346.3" y="148.1" transform="matrix(-1 -4.486823e-11 4.486823e-11 -1 739.4911 298.7086)" class="st11" width="46.8" height="2.5"/>
				
					<rect x="346.3" y="135.1" transform="matrix(-1 -4.486823e-11 4.486823e-11 -1 739.4911 283.2385)" class="st12" width="46.8" height="13"/>
				
					<rect x="347" y="151.2" transform="matrix(-1 -4.491175e-11 4.491175e-11 -1 739.4874 304.3671)" class="st4" width="45.4" height="1.9"/>
				<g>
					
						<rect x="380.3" y="160.2" transform="matrix(-1 -4.505564e-11 4.505564e-11 -1 764.6877 342.6352)" class="st5" width="4" height="22.3"/>
				</g>
				<g>
					
						<rect x="367.7" y="160.2" transform="matrix(-1 -4.505564e-11 4.505564e-11 -1 739.5015 342.6352)" class="st5" width="4" height="22.3"/>
				</g>
				<g>
					
						<rect x="355.1" y="160.2" transform="matrix(-1 -4.505564e-11 4.505564e-11 -1 714.3153 342.6352)" class="st5" width="4" height="22.3"/>
				</g>
				
					<rect x="346.3" y="190.2" transform="matrix(-1 -4.486823e-11 4.486823e-11 -1 739.5015 389.9911)" class="st2" width="46.8" height="9.5"/>
				<g>
					
						<rect x="380" y="183.3" transform="matrix(-1 -4.456137e-11 4.456137e-11 -1 764.6736 367.5611)" class="st6" width="4.6" height="0.9"/>
				</g>
				<g>
					
						<rect x="367.4" y="183.3" transform="matrix(-1 -4.535007e-11 4.535007e-11 -1 739.4874 367.4987)" class="st6" width="4.6" height="0.9"/>
				</g>
				<g>
					
						<rect x="354.8" y="183.4" transform="matrix(-1 -4.495572e-11 4.495572e-11 -1 714.3012 367.6236)" class="st6" width="4.6" height="0.9"/>
				</g>
				<g>
					
						<rect x="411.1" y="170.4" transform="matrix(-1 -4.505564e-11 4.505564e-11 -1 826.1714 363.2031)" class="st5" width="4" height="22.3"/>
				</g>
				<g>
					
						<rect x="398.5" y="170.4" transform="matrix(-1 -4.505564e-11 4.505564e-11 -1 800.9852 363.2031)" class="st5" width="4" height="22.3"/>
				</g>
				<g>
					
						<rect x="410.8" y="193.6" transform="matrix(-1 -4.456137e-11 4.456137e-11 -1 826.1573 388.129)" class="st6" width="4.6" height="0.9"/>
				</g>
				<g>
					
						<rect x="398.2" y="193.6" transform="matrix(-1 -4.495572e-11 4.495572e-11 -1 800.9711 388.0666)" class="st6" width="4.6" height="0.9"/>
				</g>
			</g>
			<g>
				
					<rect x="393.3" y="108.8" transform="matrix(-1 -4.492019e-11 4.492019e-11 -1 814.0215 308.5305)" class="st5" width="27.5" height="91"/>
				
					<rect x="394.1" y="109.7" transform="matrix(-1 -4.489976e-11 4.489976e-11 -1 814.0745 221.2227)" class="st4" width="25.8" height="1.9"/>
				<polygon class="st12" points="407,68.2 393.3,108.8 420.7,108.8 				"/>
				
					<rect x="392.4" y="104.8" transform="matrix(-1 -4.486956e-11 4.486956e-11 -1 814.4158 213.9937)" class="st11" width="29.7" height="4.5"/>
				<ellipse class="st1" cx="407" cy="67.8" rx="3.1" ry="2.6"/>
				
					<rect x="406.3" y="58.6" transform="matrix(-1 -4.438018e-11 4.438018e-11 -1 814.0745 129.0195)" class="st1" width="1.4" height="11.9"/>
				
					<rect x="406.4" y="58.9" transform="matrix(-4.539498e-11 1 -1 -4.539498e-11 469.113 -344.9615)" class="st1" width="1.2" height="6.4"/>
				<g>
					
						<rect x="404.8" y="123.7" transform="matrix(-1 -4.460533e-11 4.460533e-11 -1 813.5641 258.4806)" class="st5" width="4" height="11.2"/>
				</g>
				<g>
					
						<rect x="404.8" y="147.5" transform="matrix(-1 -4.505564e-11 4.505564e-11 -1 813.5641 306.1364)" class="st5" width="4" height="11.2"/>
				</g>
			</g>
			<g>
				
					<rect x="407.4" y="176.9" transform="matrix(-1 -4.505564e-11 4.505564e-11 -1 818.873 376.0584)" class="st5" width="4" height="22.3"/>
			</g>
			<g>
				
					<rect x="403.1" y="176.9" transform="matrix(-1 -4.505564e-11 4.505564e-11 -1 810.183 376.0584)" class="st5" width="4" height="22.3"/>
			</g>
			<g>
				
					<rect x="404.6" y="159.2" transform="matrix(-1 -4.495572e-11 4.495572e-11 -1 813.8347 319.3572)" class="st6" width="4.6" height="0.9"/>
			</g>
			<g>
				
					<rect x="404.4" y="135.4" transform="matrix(-1 -4.456137e-11 4.456137e-11 -1 813.3601 271.7639)" class="st6" width="4.6" height="0.9"/>
			</g>
		</g>
	</g>
</g>
</svg>
