<?xml version="1.0" encoding="utf-8"?>
<!-- Generator: Adobe Illustrator 22.1.0, SVG Export Plug-In . SVG Version: 6.00 Build 0)  -->
<svg version="1.1" id="Layer_2" xmlns="http://www.w3.org/2000/svg" xmlns:xlink="http://www.w3.org/1999/xlink" x="0px" y="0px"
	 viewBox="0 0 738.2 517.9" style="enable-background:new 0 0 738.2 517.9;" xml:space="preserve">
<style type="text/css">
	.st0{fill:#6EACBD;}
	.st1{fill:#90C4CF;}
	.st2{fill:#46707E;}
	.st3{fill:#FFFFFF;}
	.st4{fill:#C6E5F0;stroke:#000000;stroke-miterlimit:10;}
	.st5{fill:#A5CFD9;stroke:#46707E;stroke-width:3.5;stroke-miterlimit:10;}
</style>
<g>
	<rect x="97.3" y="137.6" class="st0" width="82" height="41"/>
	<rect x="97.3" y="161.1" class="st1" width="82" height="41"/>
	<path class="st2" d="M181.3,135.1h-12.8l3.6-2.1c1-0.5,1.3-1.8,0.7-2.7l-13.9-24.2c-0.3-0.5-0.7-0.8-1.2-0.9s-1.1-0.1-1.5,0.2
		l-41.7,23.8c-0.5,0.3-0.8,0.7-0.9,1.2c-0.1,0.5-0.1,1.1,0.2,1.5l1.8,3.2H95.3c-1.1,0-2,0.9-2,2v67c0,1.1,0.9,2,2,2h86
		c1.1,0,2-0.9,2-2v-67C183.3,136,182.4,135.1,181.3,135.1z M156.4,109.8l11.9,20.8l-27,15.5h-14.8l-8.2-14.4L156.4,109.8z
		 M179.3,202.1h-82v-41h82V202.1z M179.3,157.1h-82v-18h20.6l4,7h-12.6c-1.1,0-2,0.9-2,2c0,1.1,0.9,2,2,2h58c1.1,0,2-0.9,2-2
		c0-1.1-0.9-2-2-2h-18l12.2-7h17.8V157.1z"/>
	<polygon class="st3" points="118.3,131.7 156.4,109.8 168.3,130.6 141.3,146.1 126.5,146.1 	"/>
	<path class="st3" d="M190.2,114.1"/>
</g>
<g>
	<rect x="399.6" y="320.4" class="st0" width="82" height="41"/>
	<rect x="399.6" y="343.9" class="st1" width="82" height="41"/>
	<path class="st2" d="M483.6,317.9h-12.8l3.6-2.1c1-0.5,1.3-1.8,0.7-2.7l-13.9-24.2c-0.3-0.5-0.7-0.8-1.2-0.9
		c-0.5-0.1-1.1-0.1-1.5,0.2L416.8,312c-0.5,0.3-0.8,0.7-0.9,1.2s-0.1,1.1,0.2,1.5l1.8,3.2h-20.3c-1.1,0-2,0.9-2,2v67
		c0,1.1,0.9,2,2,2h86c1.1,0,2-0.9,2-2v-67C485.6,318.8,484.7,317.9,483.6,317.9z M458.7,292.6l11.9,20.8l-27,15.5h-14.8l-8.2-14.4
		L458.7,292.6z M481.6,384.9h-82v-41h82V384.9z M481.6,339.9h-82v-18h20.6l4,7h-12.6c-1.1,0-2,0.9-2,2c0,1.1,0.9,2,2,2h58
		c1.1,0,2-0.9,2-2c0-1.1-0.9-2-2-2h-18l12.2-7h17.8V339.9z"/>
	<polygon class="st3" points="420.6,314.5 458.7,292.6 470.6,313.4 443.6,328.9 428.8,328.9 	"/>
	<path class="st3" d="M492.4,296.8"/>
</g>
<g>
	<path class="st1" d="M651.8,267.5c2.7,0,4.8,2.2,4.8,4.8v27.6c0,2.7-2.2,4.8-4.8,4.8h-55.2c-2.7,0-4.8-2.2-4.8-4.8v-27.6
		c0-2.7,2.2-4.8,4.8-4.8H651.8z"/>
	<path class="st2" d="M587.6,272.3v27.6c0,4.9,4,9,9,9h55.2c4.9,0,9-4,9-9v-27.6c0-4.9-4-9-9-9h-55.2
		C591.6,263.4,587.6,267.4,587.6,272.3z M651.8,267.5c2.7,0,4.8,2.2,4.8,4.8v27.6c0,2.7-2.2,4.8-4.8,4.8h-55.2
		c-2.7,0-4.8-2.2-4.8-4.8v-27.6c0-2.7,2.2-4.8,4.8-4.8H651.8z M598.3,280.6c1.1,0,2.1,0.9,2.1,2.1v6.9c0,1.1-0.9,2.1-2.1,2.1
		s-2.1-0.9-2.1-2.1v-6.9C596.2,281.5,597.2,280.6,598.3,280.6z M648.9,282.7c1.9,0,3.4,1.5,3.4,3.4s-1.5,3.4-3.4,3.4
		c-1.9,0-3.4-1.5-3.4-3.4S647,282.7,648.9,282.7z"/>
</g>
<g>
	<path class="st1" d="M170.9,304.4c2.7,0,4.8,2.2,4.8,4.8v27.6c0,2.7-2.2,4.8-4.8,4.8h-55.2c-2.7,0-4.8-2.2-4.8-4.8v-27.6
		c0-2.7,2.2-4.8,4.8-4.8H170.9z"/>
	<path class="st2" d="M106.8,309.2v27.6c0,4.9,4,9,9,9h55.2c4.9,0,9-4,9-9v-27.6c0-4.9-4-9-9-9h-55.2
		C110.8,300.3,106.8,304.3,106.8,309.2z M170.9,304.4c2.7,0,4.8,2.2,4.8,4.8v27.6c0,2.7-2.2,4.8-4.8,4.8h-55.2
		c-2.7,0-4.8-2.2-4.8-4.8v-27.6c0-2.7,2.2-4.8,4.8-4.8H170.9z M117.5,317.5c1.1,0,2.1,0.9,2.1,2.1v6.9c0,1.1-0.9,2.1-2.1,2.1
		s-2.1-0.9-2.1-2.1v-6.9C115.4,318.4,116.3,317.5,117.5,317.5z M168.1,319.6c1.9,0,3.4,1.5,3.4,3.4s-1.5,3.4-3.4,3.4
		s-3.4-1.5-3.4-3.4S166.2,319.6,168.1,319.6z"/>
</g>
<g>
	<path class="st3" d="M270.2,255.2c24.4,0,44.3,19.7,44.3,43.9c0,24.2-19.9,43.9-44.3,43.9c-9.5,0-18.5-2.9-26.2-8.4
		c-0.6-0.4-1.4-0.4-2,0c-0.1,0.1-12.9,9.4-22.6,1.7c4.6-2.3,14.1-8.1,11.5-16.3c0-0.1-0.1-0.2-0.1-0.2c-2.4-4.9-4.3-11.2-4.8-16.1
		c0-0.1-1.1-8.5,0.9-16.3c2.1-0.2,4.2-0.6,6.2-1.2c1.5,1.2,4.8,3.4,9.9,3.4c2.7,0,5.8-0.6,9.3-2.3c0.6-0.3,1-0.9,0.9-1.5
		c0-0.6-0.4-1.2-1-1.5c-1.1-0.5-4.1-2.2-4.6-4.3c-0.2-0.9,0.1-1.9,0.9-2.9c0.2-0.2,0.5-0.5,0.7-0.7c5.5-5.7,8.8-12.6,9.9-19.7
		C262.9,255.7,266.5,255.2,270.2,255.2z"/>
	<g>
		<path class="st4" d="M198.6,274.5c-6.3-6.4-9.8-14.8-9.7-23.7c0.1-8.9,3.7-17.3,10.1-23.6c13.3-12.9,34.7-12.7,47.8,0.4
			c12.9,13,13,33.5,0.3,46.6c-0.2,0.2-0.5,0.5-0.7,0.7c0,0-0.1,0.1-0.1,0.1c-2,2.4-2,4.5-1.7,5.9c0.5,2,2,3.6,3.4,4.7
			c-8.4,2.6-13-2.1-13.2-2.3c-0.3-0.3-0.8-0.5-1.2-0.5c-0.2,0-0.3,0-0.5,0.1C220.8,286.8,207.6,283.5,198.6,274.5z"/>
		<path class="st2" d="M241.8,265.2c0-0.9-0.7-1.7-1.7-1.7h-1.9v-17h1.9c0.7,0,1.3-0.4,1.6-1.1c0.2-0.7,0-1.4-0.5-1.8l-17.4-13.7
			c-0.6-0.5-1.4-0.5-2,0l-17.4,13.7c-0.6,0.4-0.8,1.2-0.5,1.8c0.2,0.7,0.9,1.1,1.6,1.1h1.9v17h-1.9c-0.9,0-1.7,0.7-1.7,1.7
			c0,0.9,0.7,1.7,1.7,1.7h34.8C241,266.9,241.8,266.1,241.8,265.2z M234.9,263.5H229v-17h5.9V263.5z M225.7,246.5v17h-5.9v-17H225.7
			z M222.7,233.3l12.6,9.9h-25.2L222.7,233.3z M210.5,246.5h5.9v17h-5.9V246.5z"/>
		<path class="st2" d="M249.2,225c-14.3-14.4-37.9-14.7-52.5-0.5c-7.1,6.9-11,16.1-11.1,25.9c-0.1,9.8,3.7,19.1,10.6,26.1
			c7.3,7.4,17.2,11.2,27.3,11c-1.8,8-0.8,16.1-0.7,16.4c0.5,5.2,2.5,11.8,5.1,17.1c2.2,7.5-11.8,13.1-11.9,13.2
			c-0.5,0.2-0.9,0.6-1,1.2c-0.1,0.5,0,1.1,0.4,1.5c10.1,10.9,23.9,3.4,27.7,1c8,5.5,17.4,8.4,27.2,8.4c26.3,0,47.6-21.2,47.6-47.2
			s-21.4-47.2-47.6-47.2c-3.5,0-7,0.4-10.4,1.2C260.4,243.1,256.9,232.8,249.2,225z M198.6,274.2c-6.3-6.4-9.8-14.8-9.7-23.7
			c0.1-11.6,3.6-17.3,10.1-23.6c13.3-12.9,34.7-12.7,47.8,0.4c12.9,13,13,33.5,0.3,46.6c-0.2,0.2-0.5,0.5-0.7,0.7
			c0,0-0.1,0.1-0.1,0.1c-2,2.4-2,4.5-1.7,5.9c0.5,2,2,3.6,3.4,4.7c-8.4,2.6-13-2.1-13.2-2.3c-0.3-0.3-0.8-0.5-1.2-0.5
			c-0.2,0-0.3,0-0.5,0.1C220.8,286.5,207.6,283.3,198.6,274.2z M270.2,255.2c24.4,0,44.3,19.7,44.3,43.9c0,24.2-19.9,43.9-44.3,43.9
			c-9.5,0-18.5-2.9-26.2-8.4c-0.6-0.4-1.4-0.4-2,0c-0.1,0.1-12.9,9.4-22.6,1.7c4.6-2.3,14.1-8.1,11.5-16.3c0-0.1-0.1-0.2-0.1-0.2
			c-2.4-4.9-4.3-11.2-4.8-16.1c0-0.1-1.1-8.5,0.9-16.3c2.1-0.2,4.2-0.6,6.2-1.2c1.5,1.2,4.8,3.4,9.9,3.4c2.7,0,5.8-0.6,9.3-2.3
			c0.6-0.3,1-0.9,0.9-1.5c0-0.6-0.4-1.2-1-1.5c-1.1-0.5-4.1-2.2-4.6-4.3c-0.2-0.9,0.1-1.9,0.9-2.9c0.2-0.2,0.5-0.5,0.7-0.7
			c5.5-5.7,8.8-12.6,9.9-19.7C262.9,255.7,266.5,255.2,270.2,255.2z"/>
		<path class="st2" d="M256.9,297.6h29.8c0.9,0,1.7-0.7,1.7-1.7s-0.7-1.7-1.7-1.7h-29.8c-0.9,0-1.7,0.7-1.7,1.7
			S256,297.6,256.9,297.6z"/>
		<path class="st2" d="M256.9,310.4h29.8c0.9,0,1.7-0.7,1.7-1.7s-0.7-1.7-1.7-1.7h-29.8c-0.9,0-1.7,0.7-1.7,1.7
			S256,310.4,256.9,310.4z"/>
	</g>
</g>
<g>
	<path class="st1" d="M487,172.3c1.2,7.2,4.4,14.1,9.9,19.7c0.2,0.2,0.5,0.5,0.7,0.7c0.9,1.1,1.2,2,0.9,2.9
		c-0.5,2.1-3.5,3.8-4.6,4.3c-0.6,0.3-1,0.8-1,1.5s0.4,1.2,0.9,1.5c3.5,1.7,6.7,2.3,9.3,2.3c5.1,0,8.5-2.2,9.9-3.4
		c2.1,0.6,4.1,1,6.2,1.2c2,7.7,0.9,16.2,0.9,16.3c-0.5,4.9-2.4,11.2-4.8,16.1c0,0.1-0.1,0.1-0.1,0.2c-2.6,8.2,6.9,14,11.5,16.3
		c-9.6,7.7-22.4-1.6-22.6-1.7c-0.6-0.4-1.4-0.4-2,0c-7.6,5.5-16.7,8.4-26.2,8.4c-24.4,0-44.3-19.7-44.3-43.9
		c0-24.2,19.9-43.9,44.3-43.9C479.8,171,483.5,171.5,487,172.3z"/>
	<g>
		<path class="st3" d="M513.3,198.6c-0.2-0.1-0.3-0.1-0.5-0.1c-0.4,0-0.9,0.2-1.2,0.5c-0.2,0.2-4.8,4.9-13.2,2.3
			c1.4-1.1,2.9-2.7,3.4-4.7c0.3-1.4,0.3-3.5-1.7-5.9c0,0-0.1-0.1-0.1-0.1c-0.2-0.2-0.5-0.5-0.7-0.7c-12.7-13.1-12.6-33.6,0.3-46.6
			c13.1-13.2,34.5-13.4,47.8-0.4c6.4,6.3,10,14.6,10.1,23.6c0.1,8.9-3.4,17.4-9.7,23.7C538.8,199.3,525.5,202.5,513.3,198.6z"/>
		<path class="st2" d="M506.3,182.6h34.8c0.9,0,1.7-0.7,1.7-1.7s-0.7-1.7-1.7-1.7h-1.9v-17h1.9c0.7,0,1.3-0.4,1.6-1.1
			c0.2-0.7,0-1.4-0.5-1.8l-17.4-13.7c-0.6-0.5-1.4-0.5-2,0l-17.4,13.7c-0.6,0.4-0.8,1.2-0.5,1.8c0.2,0.7,0.9,1.1,1.6,1.1h1.9v17
			h-1.9c-0.9,0-1.7,0.7-1.7,1.7S505.4,182.6,506.3,182.6z M511.4,162.3h5.9v17h-5.9V162.3z M526.6,162.3v17h-5.9v-17H526.6z
			 M536.3,159h-25.2l12.6-9.9L536.3,159z M535.9,179.3h-5.9v-17h5.9V179.3z"/>
		<path class="st2" d="M486.6,168.9c-3.4-0.7-6.9-1.2-10.4-1.2c-26.3,0-47.6,21.2-47.6,47.2s21.4,47.2,47.6,47.2
			c9.8,0,19.2-2.9,27.2-8.4c3.8,2.4,17.6,9.8,27.7-1c0.4-0.4,0.5-1,0.4-1.5c-0.1-0.5-0.5-1-1-1.2c-0.1-0.1-14.1-5.7-11.9-13.2
			c2.6-5.2,4.5-11.9,5.1-17.1c0-0.3,1.1-8.4-0.7-16.4c10.1,0.2,19.9-3.6,27.3-11c6.9-7,10.7-16.3,10.6-26.1c-0.1-9.8-4-19-11.1-25.9
			c-14.6-14.2-38.1-14-52.5,0.5C489.5,148.6,486,158.8,486.6,168.9z M513.3,198.4c-0.2-0.1-0.3-0.1-0.5-0.1c-0.4,0-0.9,0.2-1.2,0.5
			c-0.2,0.2-4.8,4.9-13.2,2.3c1.4-1.1,2.9-2.7,3.4-4.7c0.3-1.4,0.3-3.5-1.7-5.9c0,0-0.1-0.1-0.1-0.1c-0.2-0.2-0.5-0.5-0.7-0.7
			c-12.7-13.1-12.6-33.6,0.3-46.6c13.1-13.2,34.5-13.4,47.8-0.4c6.5,6.3,10,11.9,10.1,23.6c0.1,8.9-3.4,17.4-9.7,23.7
			C538.8,199.1,525.5,202.3,513.3,198.4z M487,172.3c1.2,7.2,4.4,14.1,9.9,19.7c0.2,0.2,0.5,0.5,0.7,0.7c0.9,1.1,1.2,2,0.9,2.9
			c-0.5,2.1-3.5,3.8-4.6,4.3c-0.6,0.3-1,0.8-1,1.5s0.4,1.2,0.9,1.5c3.5,1.7,6.7,2.3,9.3,2.3c5.1,0,8.5-2.2,9.9-3.4
			c2.1,0.6,4.1,1,6.2,1.2c2,7.7,0.9,16.2,0.9,16.3c-0.5,4.9-2.4,11.2-4.8,16.1c0,0.1-0.1,0.1-0.1,0.2c-2.6,8.2,6.9,14,11.5,16.3
			c-9.6,7.7-22.4-1.6-22.6-1.7c-0.6-0.4-1.4-0.4-2,0c-7.6,5.5-16.7,8.4-26.2,8.4c-24.4,0-44.3-19.7-44.3-43.9
			c0-24.2,19.9-43.9,44.3-43.9C479.8,171,483.5,171.5,487,172.3z"/>
		<path class="st2" d="M491.2,211.7c0-0.9-0.7-1.7-1.7-1.7h-29.8c-0.9,0-1.7,0.7-1.7,1.7c0,0.9,0.7,1.7,1.7,1.7h29.8
			C490.4,213.3,491.2,212.6,491.2,211.7z"/>
		<path class="st2" d="M491.2,224.5c0-0.9-0.7-1.7-1.7-1.7h-29.8c-0.9,0-1.7,0.7-1.7,1.7s0.7,1.7,1.7,1.7h29.8
			C490.4,226.2,491.2,225.4,491.2,224.5z"/>
	</g>
</g>
<g>
	<polygon class="st1" points="292.6,216.4 314.4,185 334.5,199 353.3,172 387.4,195.7 393.6,200.3 393.7,223.7 292.6,224 	"/>
	<g transform="translate(0,-952.36218)">
		<path class="st2" d="M290.6,1092.3c-1.1,0-2,0.9-2,2v84c0,1.1,0.9,2,2,2h111c1.1,0,2-0.9,2-2s-0.9-2-2-2h-109v-82
			C292.6,1093.2,291.7,1092.3,290.6,1092.3z M379.6,1111.3c-3.8,0-7,3.2-7,7c0,1.6,0.5,3,1.4,4.2l-11.9,17c-0.5-0.1-1-0.2-1.6-0.2
			c-2,0-3.7,0.8-5,2.1l-10.4-6.9c0.2-0.7,0.4-1.4,0.4-2.2c0-3.8-3.2-7-7-7c-3.8,0-7,3.2-7,7c0,1.6,0.5,3,1.4,4.2l-12.9,17
			c-0.5-0.1-1-0.2-1.6-0.2c-3.8,0-7,3.2-7,7s3.2,7,7,7c3.8,0,7-3.2,7-7c0-1.9-0.8-3.6-2-4.9l12.6-16.6c0.7,0.3,1.5,0.4,2.4,0.4
			c1.6,0,3.1-0.6,4.3-1.5l10.8,7.2c-0.1,0.4-0.2,0.9-0.2,1.4c0,3.8,3.2,7,7,7c3.8,0,7-3.2,7-7c0-1.9-0.8-3.6-2-4.9l11.6-16.6
			c0.7,0.3,1.5,0.4,2.4,0.4c3.8,0,7-3.2,7-7S383.4,1111.3,379.6,1111.3z M379.6,1115.3c1.7,0,3,1.3,3,3s-1.3,3-3,3c-1.7,0-3-1.3-3-3
			S377.9,1115.3,379.6,1115.3z M338.6,1129.3c1.7,0,3,1.3,3,3s-1.3,3-3,3c-1.7,0-3-1.3-3-3S336.9,1129.3,338.6,1129.3z
			 M360.6,1143.3c1.7,0,3,1.3,3,3c0,1.7-1.3,3-3,3c-1.7,0-3-1.3-3-3C357.6,1144.6,358.9,1143.3,360.6,1143.3z M318.6,1157.3
			c1.7,0,3,1.3,3,3s-1.3,3-3,3c-1.7,0-3-1.3-3-3S316.9,1157.3,318.6,1157.3z"/>
	</g>
	<circle class="st3" cx="318.6" cy="208" r="3"/>
	<circle class="st3" cx="338.6" cy="180" r="3"/>
	<circle class="st3" cx="360.6" cy="194" r="3"/>
	<circle class="st3" cx="379.6" cy="166" r="3"/>
</g>
<g>
	<path class="st3" d="M255.5,163.4c0,2.7-2.2,4.8-4.8,4.8h-27.6c-2.7,0-4.8-2.2-4.8-4.8v-55.2c0-2.7,2.2-4.8,4.8-4.8h27.6
		c2.7,0,4.8,2.2,4.8,4.8V163.4z"/>
	<path class="st2" d="M250.7,99.2h-27.6c-4.9,0-9,4-9,9v55.2c0,4.9,4,9,9,9h27.6c4.9,0,9-4,9-9v-55.2
		C259.6,103.2,255.6,99.2,250.7,99.2z M255.5,163.4c0,2.7-2.2,4.8-4.8,4.8h-27.6c-2.7,0-4.8-2.2-4.8-4.8v-55.2
		c0-2.7,2.2-4.8,4.8-4.8h27.6c2.7,0,4.8,2.2,4.8,4.8V163.4z M242.4,109.9c0,1.1-0.9,2.1-2.1,2.1h-6.9c-1.1,0-2.1-0.9-2.1-2.1
		c0-1.1,0.9-2.1,2.1-2.1h6.9C241.5,107.8,242.4,108.8,242.4,109.9z M240.3,160.5c0,1.9-1.5,3.4-3.4,3.4s-3.4-1.5-3.4-3.4
		s1.5-3.4,3.4-3.4S240.3,158.6,240.3,160.5z"/>
</g>
<g>
	<path class="st0" d="M365.1,416c0,2.7-2.2,4.8-4.8,4.8h-27.6c-2.7,0-4.8-2.2-4.8-4.8v-55.2c0-2.7,2.2-4.8,4.8-4.8h27.6
		c2.7,0,4.8,2.2,4.8,4.8V416z"/>
	<path class="st2" d="M360.3,351.8h-27.6c-4.9,0-9,4-9,9V416c0,4.9,4,9,9,9h27.6c4.9,0,9-4,9-9v-55.2
		C369.3,355.9,365.2,351.8,360.3,351.8z M365.1,416c0,2.7-2.2,4.8-4.8,4.8h-27.6c-2.7,0-4.8-2.2-4.8-4.8v-55.2
		c0-2.7,2.2-4.8,4.8-4.8h27.6c2.7,0,4.8,2.2,4.8,4.8V416z M352,362.5c0,1.1-0.9,2.1-2.1,2.1h-6.9c-1.1,0-2.1-0.9-2.1-2.1
		c0-1.1,0.9-2.1,2.1-2.1h6.9C351.1,360.5,352,361.4,352,362.5z M349.9,413.1c0,1.9-1.5,3.4-3.4,3.4s-3.4-1.5-3.4-3.4
		s1.5-3.4,3.4-3.4S349.9,411.2,349.9,413.1z"/>
</g>
<g>
	
		<rect x="467.6" y="67.9" transform="matrix(0.7071 0.7071 -0.7071 0.7071 200.7138 -334.9408)" class="st1" width="74.2" height="13.9"/>
	
		<rect x="467.6" y="67.9" transform="matrix(0.7071 -0.7071 0.7071 0.7071 94.9128 378.765)" class="st1" width="74.2" height="13.9"/>
</g>
<g>
	
		<rect x="162.6" y="401.6" transform="matrix(0.7071 0.7071 -0.7071 0.7071 347.3751 -21.5109)" class="st3" width="74.2" height="13.9"/>
	
		<rect x="162.6" y="401.6" transform="matrix(0.7071 -0.7071 0.7071 0.7071 -230.4208 260.8418)" class="st3" width="74.2" height="13.9"/>
</g>
<g>
	
		<rect x="623.6" y="175" transform="matrix(0.7071 0.7071 -0.7071 0.7071 322.1882 -413.9058)" class="st3" width="74.2" height="13.9"/>
	
		<rect x="623.6" y="175" transform="matrix(0.7071 -0.7071 0.7071 0.7071 64.8541 520.4971)" class="st3" width="74.2" height="13.9"/>
</g>
<g>
	
		<rect x="107" y="244.4" transform="matrix(0.7071 0.7071 -0.7071 0.7071 214.9497 -20.5953)" class="st1" width="50.8" height="9.5"/>
	
		<rect x="107" y="244.4" transform="matrix(0.7071 -0.7071 0.7071 0.7071 -137.4294 166.5554)" class="st1" width="50.8" height="9.5"/>
</g>
<g>
	
		<rect x="399.7" y="431.2" transform="matrix(0.7071 0.7071 -0.7071 0.7071 432.8002 -172.8755)" class="st1" width="50.8" height="9.5"/>
	
		<rect x="399.7" y="431.2" transform="matrix(0.7071 -0.7071 0.7071 0.7071 -183.7945 428.2774)" class="st1" width="50.8" height="9.5"/>
</g>
<g>
	
		<rect x="645" y="355.1" transform="matrix(0.7071 0.7071 -0.7071 0.7071 450.8106 -368.6418)" class="st1" width="50.8" height="9.5"/>
	
		<rect x="645" y="355.1" transform="matrix(0.7071 -0.7071 0.7071 0.7071 -58.1022 579.4403)" class="st1" width="50.8" height="9.5"/>
</g>
<g>
	<rect x="297" y="465" transform="matrix(0.7071 0.7071 -0.7071 0.7071 423.7035 -85.9067)" class="st1" width="37.1" height="7"/>
	<rect x="297" y="465" transform="matrix(0.7071 -0.7071 0.7071 0.7071 -238.8584 360.3488)" class="st1" width="37.1" height="7"/>
</g>
<g>
	
		<rect x="588.2" y="99.6" transform="matrix(0.7071 0.7071 -0.7071 0.7071 250.614 -398.8822)" class="st2" width="37.1" height="7"/>
	
		<rect x="588.2" y="99.6" transform="matrix(0.7071 -0.7071 0.7071 0.7071 104.8414 459.2632)" class="st2" width="37.1" height="7"/>
</g>
<g>
	
		<rect x="261.5" y="375.4" transform="matrix(0.7071 0.7071 -0.7071 0.7071 349.9078 -87.0409)" class="st2" width="37.1" height="7"/>
	
		<rect x="261.5" y="375.4" transform="matrix(0.7071 -0.7071 0.7071 0.7071 -185.875 308.9694)" class="st2" width="37.1" height="7"/>
</g>
<g>
	
		<rect x="27.2" y="289.6" transform="matrix(0.7071 0.7071 -0.7071 0.7071 220.6332 53.4823)" class="st2" width="37.1" height="7"/>
	
		<rect x="27.2" y="289.6" transform="matrix(0.7071 -0.7071 0.7071 0.7071 -193.8289 118.1936)" class="st2" width="37.1" height="7"/>
</g>
<g>
	
		<rect x="350.1" y="274.1" transform="matrix(0.7071 0.7071 -0.7071 0.7071 306.3719 -182.5558)" class="st0" width="47" height="8.8"/>
	
		<rect x="350.1" y="274.1" transform="matrix(0.7071 -0.7071 0.7071 0.7071 -87.5513 345.7241)" class="st0" width="47" height="8.8"/>
</g>
<g>
	<path class="st5" d="M388,106c-0.2-0.1-0.4-0.1-0.6-0.1c-0.5,0-1,0.2-1.3,0.6c-0.2,0.2-8.2,9-17.6,6.1c1.6-1.2,6.1-6.5,6.6-8.8
		c0.4-1.5,0.3-3.9-1.9-6.6c0-0.1-0.1-0.1-0.1-0.2c-0.3-0.3-0.5-0.5-0.8-0.8c-14.2-14.7-14.1-37.5,0.3-52
		c14.6-14.7,38.6-14.9,53.4-0.5c7.2,7,11.2,13.3,11.3,26.3c0.1,10-3.8,19.4-10.8,26.5C416.5,106.8,401.7,110.4,388,106z"/>
	<path class="st2" d="M416.1,65.4c0-0.9-0.7-1.7-1.7-1.7h-29.8c-0.9,0-1.7,0.7-1.7,1.7c0,0.9,0.7,1.7,1.7,1.7h29.8
		C415.3,67.1,416.1,66.3,416.1,65.4z"/>
	<path class="st2" d="M416.1,78.2c0-0.9-0.7-1.7-1.7-1.7h-29.8c-0.9,0-1.7,0.7-1.7,1.7c0,0.9,0.7,1.7,1.7,1.7h29.8
		C415.3,79.9,416.1,79.1,416.1,78.2z"/>
</g>
<g>
	<path class="st5" d="M556,424.5c-0.2-0.1-0.4-0.1-0.6-0.1c-0.5,0-1,0.2-1.3,0.6c-0.2,0.2-8.2,9-17.6,6.1c1.6-1.2,6.1-6.5,6.6-8.8
		c0.4-1.5,0.3-3.9-1.9-6.6c0-0.1-0.1-0.1-0.1-0.2c-0.3-0.3-0.5-0.5-0.8-0.8c-14.2-14.7-14.1-37.5,0.3-52
		c14.6-14.7,38.6-14.9,53.4-0.5c7.2,7,11.2,13.3,11.3,26.3c0.1,10-3.8,19.4-10.8,26.5C584.5,425.3,569.7,428.9,556,424.5z"/>
	<path class="st2" d="M584.1,384c0-0.9-0.7-1.7-1.7-1.7h-29.8c-0.9,0-1.7,0.7-1.7,1.7s0.7,1.7,1.7,1.7h29.8
		C583.4,385.6,584.1,384.9,584.1,384z"/>
	<path class="st2" d="M584.1,396.8c0-0.9-0.7-1.7-1.7-1.7h-29.8c-0.9,0-1.7,0.7-1.7,1.7s0.7,1.7,1.7,1.7h29.8
		C583.4,398.4,584.1,397.7,584.1,396.8z"/>
</g>
<g>
	
		<rect x="417.3" y="137.3" transform="matrix(0.7071 0.7071 -0.7071 0.7071 227.1992 -266.966)" class="st3" width="37.1" height="7"/>
	
		<rect x="417.3" y="137.3" transform="matrix(0.7071 -0.7071 0.7071 0.7071 28.1193 349.4276)" class="st3" width="37.1" height="7"/>
</g>
<g>
	
		<rect x="557" y="216.1" transform="matrix(0.7071 0.7071 -0.7071 0.7071 323.8593 -342.6685)" class="st2" width="37.1" height="7"/>
	<rect x="557" y="216.1" transform="matrix(0.7071 -0.7071 0.7071 0.7071 13.3002 471.3063)" class="st2" width="37.1" height="7"/>
</g>
<g>
	
		<rect x="509.1" y="307.2" transform="matrix(0.7071 0.7071 -0.7071 0.7071 374.2548 -282.1196)" class="st3" width="37.1" height="7"/>
	
		<rect x="509.1" y="307.2" transform="matrix(0.7071 -0.7071 0.7071 0.7071 -65.1494 464.1268)" class="st3" width="37.1" height="7"/>
</g>
<g>
	
		<rect x="289.2" y="81.4" transform="matrix(0.7071 0.7071 -0.7071 0.7071 153.031 -197.1945)" class="st1" width="50.8" height="9.5"/>
	
		<rect x="289.2" y="81.4" transform="matrix(0.7071 -0.7071 0.7071 0.7071 31.2283 247.6468)" class="st1" width="50.8" height="9.5"/>
</g>
</svg>
