<?xml version="1.0" encoding="utf-8"?>
<!-- Generator: Adobe Illustrator 20.1.0, SVG Export Plug-In . SVG Version: 6.00 Build 0)  -->
<svg version="1.1" id="Layer_1" xmlns="http://www.w3.org/2000/svg" xmlns:xlink="http://www.w3.org/1999/xlink" x="0px" y="0px"
	 viewBox="0 0 470 398.8" style="enable-background:new 0 0 470 398.8;" xml:space="preserve">
<style type="text/css">
	.st0{fill:#A4CFDA;}
	.st1{fill:#CCDBDD;}
	.st2{fill:#44707F;}
	.st3{fill:#FFFFFF;}
	.st4{fill:#98D4E2;}
	.st5{fill:#98D4E1;}
	.st6{fill:#8EC4D0;}
	.st7{fill:#E1EBEC;}
	.st8{fill:#D9EAED;}
	.st9{fill:#6BACBE;}
	.st10{fill:#9BCBD3;}
</style>
<g>
	<rect x="50" y="287.5" class="st0" width="164.1" height="110.8"/>
</g>
<g>
	<rect x="92.3" y="260.5" class="st0" width="177.3" height="137"/>
</g>
<g>
	<rect x="263.9" y="260" class="st0" width="177.3" height="137"/>
</g>
<g>
	<rect x="213.1" y="240.4" class="st0" width="162.2" height="137"/>
</g>
<g>
	<rect x="137" y="197.1" class="st0" width="61.9" height="200.2"/>
</g>
<g>
	<rect x="376.2" y="284.4" class="st0" width="83.8" height="112.8"/>
</g>
<g>
	<polygon class="st0" points="167.9,178.7 193.9,213.1 141.9,213.1 	"/>
</g>
<g>
	<polygon class="st0" points="375.3,242.8 401.3,277.1 349.3,277.1 	"/>
</g>
<g>
	<g>
		<rect x="341.6" y="87.5" class="st0" width="18.4" height="102.4"/>
	</g>
	<g>
		<circle class="st0" cx="350.3" cy="137.7" r="26.9"/>
	</g>
	<g>
		<rect x="336.7" y="167" class="st0" width="27.9" height="16.9"/>
	</g>
	<g>
		<rect x="349.8" y="5" class="st0" width="2.7" height="132.2"/>
	</g>
	<g>
		<polygon class="st0" points="360.4,397.5 340.5,397.5 345.3,176.3 355.6,176.3 		"/>
	</g>
</g>
<g>
	<g>
		<rect x="271.4" y="262.6" class="st1" width="144.4" height="135.3"/>
		<path class="st2" d="M416.3,398.4H270.9V262.1h145.4V398.4z M271.9,397.4h143.4V263.1H271.9V397.4z"/>
	</g>
	<g>
		<g>
			<g>
				<rect x="279.4" y="346.1" class="st3" width="4.6" height="8.8"/>
				<path class="st2" d="M284.5,355.5h-5.6v-9.8h5.6V355.5z M279.9,354.5h3.6v-7.8h-3.6V354.5z"/>
			</g>
			<g>
				<rect x="279.1" y="355.4" class="st4" width="5.2" height="1.3"/>
			</g>
		</g>
		<g>
			<g>
				<rect x="293.5" y="346.1" class="st3" width="4.6" height="8.8"/>
				<path class="st2" d="M298.6,355.5H293v-9.8h5.6V355.5z M294,354.5h3.6v-7.8H294V354.5z"/>
			</g>
			<g>
				<rect x="293.2" y="355.4" class="st4" width="5.2" height="1.3"/>
			</g>
		</g>
		<g>
			<g>
				<rect x="307.6" y="346.1" class="st3" width="4.6" height="8.8"/>
				<path class="st2" d="M312.7,355.5h-5.6v-9.8h5.6V355.5z M308.1,354.5h3.6v-7.8h-3.6V354.5z"/>
			</g>
			<g>
				<rect x="307.3" y="355.4" class="st4" width="5.2" height="1.3"/>
			</g>
		</g>
		<g>
			<g>
				<rect x="279.4" y="327.6" class="st3" width="4.6" height="8.8"/>
				<path class="st2" d="M284.5,336.9h-5.6v-9.8h5.6V336.9z M279.9,335.9h3.6v-7.8h-3.6V335.9z"/>
			</g>
			<g>
				<rect x="279.1" y="336.9" class="st4" width="5.2" height="1.3"/>
			</g>
		</g>
		<g>
			<g>
				<rect x="293.5" y="327.6" class="st3" width="4.6" height="8.8"/>
				<path class="st2" d="M298.6,336.9H293v-9.8h5.6V336.9z M294,335.9h3.6v-7.8H294V335.9z"/>
			</g>
			<g>
				<rect x="293.2" y="336.9" class="st4" width="5.2" height="1.3"/>
			</g>
		</g>
		<g>
			<g>
				<rect x="307.6" y="327.6" class="st3" width="4.6" height="8.8"/>
				<path class="st2" d="M312.7,336.9h-5.6v-9.8h5.6V336.9z M308.1,335.9h3.6v-7.8h-3.6V335.9z"/>
			</g>
			<g>
				<rect x="307.3" y="336.9" class="st4" width="5.2" height="1.3"/>
			</g>
		</g>
		<g>
			<g>
				<rect x="279.4" y="364.7" class="st3" width="4.6" height="8.8"/>
				<path class="st2" d="M284.5,374h-5.6v-9.8h5.6V374z M279.9,373h3.6v-7.8h-3.6V373z"/>
			</g>
			<g>
				<rect x="279.1" y="374" class="st4" width="5.2" height="1.3"/>
			</g>
		</g>
		<g>
			<g>
				<rect x="293.5" y="364.7" class="st3" width="4.6" height="8.8"/>
				<path class="st2" d="M298.6,374H293v-9.8h5.6V374z M294,373h3.6v-7.8H294V373z"/>
			</g>
			<g>
				<rect x="293.2" y="374" class="st4" width="5.2" height="1.3"/>
			</g>
		</g>
		<g>
			<g>
				<rect x="307.6" y="364.7" class="st3" width="4.6" height="8.8"/>
				<path class="st2" d="M312.7,374h-5.6v-9.8h5.6V374z M308.1,373h3.6v-7.8h-3.6V373z"/>
			</g>
			<g>
				<rect x="307.3" y="374" class="st4" width="5.2" height="1.3"/>
			</g>
		</g>
		<g>
			<g>
				<rect x="279.4" y="290.3" class="st3" width="4.6" height="8.8"/>
				<path class="st2" d="M284.5,299.7h-5.6v-9.8h5.6V299.7z M279.9,298.7h3.6v-7.8h-3.6V298.7z"/>
			</g>
			<g>
				<rect x="279.1" y="299.6" class="st4" width="5.2" height="1.3"/>
			</g>
		</g>
		<g>
			<g>
				<rect x="293.5" y="290.3" class="st3" width="4.6" height="8.8"/>
				<path class="st2" d="M298.6,299.7H293v-9.8h5.6V299.7z M294,298.7h3.6v-7.8H294V298.7z"/>
			</g>
			<g>
				<rect x="293.2" y="299.6" class="st4" width="5.2" height="1.3"/>
			</g>
		</g>
		<g>
			<g>
				<rect x="307.6" y="290.3" class="st3" width="4.6" height="8.8"/>
				<path class="st2" d="M312.7,299.7h-5.6v-9.8h5.6V299.7z M308.1,298.7h3.6v-7.8h-3.6V298.7z"/>
			</g>
			<g>
				<rect x="307.3" y="299.6" class="st4" width="5.2" height="1.3"/>
			</g>
		</g>
		<g>
			<g>
				<rect x="279.4" y="271.8" class="st3" width="4.6" height="8.8"/>
				<path class="st2" d="M284.5,281.1h-5.6v-9.8h5.6V281.1z M279.9,280.1h3.6v-7.8h-3.6V280.1z"/>
			</g>
			<g>
				<rect x="279.1" y="281.1" class="st4" width="5.2" height="1.3"/>
			</g>
		</g>
		<g>
			<g>
				<rect x="293.5" y="271.8" class="st3" width="4.6" height="8.8"/>
				<path class="st2" d="M298.6,281.1H293v-9.8h5.6V281.1z M294,280.1h3.6v-7.8H294V280.1z"/>
			</g>
			<g>
				<rect x="293.2" y="281.1" class="st4" width="5.2" height="1.3"/>
			</g>
		</g>
		<g>
			<g>
				<rect x="307.6" y="271.8" class="st3" width="4.6" height="8.8"/>
				<path class="st2" d="M312.7,281.1h-5.6v-9.8h5.6V281.1z M308.1,280.1h3.6v-7.8h-3.6V280.1z"/>
			</g>
			<g>
				<rect x="307.3" y="281.1" class="st4" width="5.2" height="1.3"/>
			</g>
		</g>
		<g>
			<g>
				<rect x="279.4" y="308.9" class="st3" width="4.6" height="8.8"/>
				<path class="st2" d="M284.5,318.2h-5.6v-9.8h5.6V318.2z M279.9,317.2h3.6v-7.8h-3.6V317.2z"/>
			</g>
			<g>
				<rect x="279.1" y="318.2" class="st4" width="5.2" height="1.3"/>
			</g>
		</g>
		<g>
			<g>
				<rect x="293.5" y="308.9" class="st3" width="4.6" height="8.8"/>
				<path class="st2" d="M298.6,318.2H293v-9.8h5.6V318.2z M294,317.2h3.6v-7.8H294V317.2z"/>
			</g>
			<g>
				<rect x="293.2" y="318.2" class="st4" width="5.2" height="1.3"/>
			</g>
		</g>
		<g>
			<g>
				<rect x="307.6" y="308.9" class="st3" width="4.6" height="8.8"/>
				<path class="st2" d="M312.7,318.2h-5.6v-9.8h5.6V318.2z M308.1,317.2h3.6v-7.8h-3.6V317.2z"/>
			</g>
			<g>
				<rect x="307.3" y="318.2" class="st4" width="5.2" height="1.3"/>
			</g>
		</g>
		<g>
			<g>
				<rect x="321.4" y="346.2" class="st3" width="4.6" height="8.8"/>
				<path class="st2" d="M326.5,355.5h-5.6v-9.8h5.6V355.5z M321.9,354.5h3.6v-7.8h-3.6V354.5z"/>
			</g>
			<g>
				<rect x="321" y="355.5" class="st4" width="5.2" height="1.3"/>
			</g>
		</g>
		<g>
			<g>
				<rect x="335.5" y="346.2" class="st3" width="4.6" height="8.8"/>
				<path class="st2" d="M340.6,355.5H335v-9.8h5.6V355.5z M336,354.5h3.6v-7.8H336V354.5z"/>
			</g>
			<g>
				<rect x="335.2" y="355.5" class="st4" width="5.2" height="1.3"/>
			</g>
		</g>
		<g>
			<g>
				<rect x="321.4" y="327.6" class="st3" width="4.6" height="8.8"/>
				<path class="st2" d="M326.5,336.9h-5.6v-9.8h5.6V336.9z M321.9,335.9h3.6v-7.8h-3.6V335.9z"/>
			</g>
			<g>
				<rect x="321" y="336.9" class="st4" width="5.2" height="1.3"/>
			</g>
		</g>
		<g>
			<g>
				<rect x="335.5" y="327.6" class="st3" width="4.6" height="8.8"/>
				<path class="st2" d="M340.6,336.9H335v-9.8h5.6V336.9z M336,335.9h3.6v-7.8H336V335.9z"/>
			</g>
			<g>
				<rect x="335.2" y="336.9" class="st4" width="5.2" height="1.3"/>
			</g>
		</g>
		<g>
			<g>
				<rect x="321.4" y="364.7" class="st3" width="4.6" height="8.8"/>
				<path class="st2" d="M326.5,374h-5.6v-9.8h5.6V374z M321.9,373h3.6v-7.8h-3.6V373z"/>
			</g>
			<g>
				<rect x="321" y="374" class="st4" width="5.2" height="1.3"/>
			</g>
		</g>
		<g>
			<g>
				<rect x="335.5" y="364.7" class="st3" width="4.6" height="8.8"/>
				<path class="st2" d="M340.6,374H335v-9.8h5.6V374z M336,373h3.6v-7.8H336V373z"/>
			</g>
			<g>
				<rect x="335.2" y="374" class="st4" width="5.2" height="1.3"/>
			</g>
		</g>
		<g>
			<g>
				<rect x="321.4" y="290.4" class="st3" width="4.6" height="8.8"/>
				<path class="st2" d="M326.5,299.7h-5.6v-9.8h5.6V299.7z M321.9,298.7h3.6v-7.8h-3.6V298.7z"/>
			</g>
			<g>
				<rect x="321" y="299.7" class="st4" width="5.2" height="1.3"/>
			</g>
		</g>
		<g>
			<g>
				<rect x="335.5" y="290.4" class="st3" width="4.6" height="8.8"/>
				<path class="st2" d="M340.6,299.7H335v-9.8h5.6V299.7z M336,298.7h3.6v-7.8H336V298.7z"/>
			</g>
			<g>
				<rect x="335.2" y="299.7" class="st4" width="5.2" height="1.3"/>
			</g>
		</g>
		<g>
			<g>
				<rect x="321.4" y="271.8" class="st3" width="4.6" height="8.8"/>
				<path class="st2" d="M326.5,281.1h-5.6v-9.8h5.6V281.1z M321.9,280.1h3.6v-7.8h-3.6V280.1z"/>
			</g>
			<g>
				<rect x="321" y="281.1" class="st4" width="5.2" height="1.3"/>
			</g>
		</g>
		<g>
			<g>
				<rect x="335.5" y="271.8" class="st3" width="4.6" height="8.8"/>
				<path class="st2" d="M340.6,281.1H335v-9.8h5.6V281.1z M336,280.1h3.6v-7.8H336V280.1z"/>
			</g>
			<g>
				<rect x="335.2" y="281.1" class="st4" width="5.2" height="1.3"/>
			</g>
		</g>
		<g>
			<g>
				<rect x="321.4" y="308.9" class="st3" width="4.6" height="8.8"/>
				<path class="st2" d="M326.5,318.2h-5.6v-9.8h5.6V318.2z M321.9,317.2h3.6v-7.8h-3.6V317.2z"/>
			</g>
			<g>
				<rect x="321" y="318.2" class="st4" width="5.2" height="1.3"/>
			</g>
		</g>
		<g>
			<g>
				<rect x="335.5" y="308.9" class="st3" width="4.6" height="8.8"/>
				<path class="st2" d="M340.6,318.2H335v-9.8h5.6V318.2z M336,317.2h3.6v-7.8H336V317.2z"/>
			</g>
			<g>
				<rect x="335.2" y="318.2" class="st4" width="5.2" height="1.3"/>
			</g>
		</g>
	</g>
	<g>
		<rect x="267.8" y="259.9" class="st5" width="151.5" height="2.9"/>
		<path class="st2" d="M419.9,263.3H267.3v-3.9h152.5V263.3z M268.3,262.3h150.5v-1.9H268.3V262.3z"/>
	</g>
	<g>
		<rect x="272.4" y="263.4" class="st4" width="142.3" height="1.3"/>
	</g>
	<g>
		<g>
			<g>
				<rect x="348.4" y="346.1" class="st3" width="4.6" height="8.8"/>
				<path class="st2" d="M353.5,355.5h-5.6v-9.8h5.6V355.5z M348.9,354.5h3.6v-7.8h-3.6V354.5z"/>
			</g>
			<g>
				<rect x="348.1" y="355.4" class="st4" width="5.2" height="1.3"/>
			</g>
		</g>
		<g>
			<g>
				<rect x="362.5" y="346.1" class="st3" width="4.6" height="8.8"/>
				<path class="st2" d="M367.6,355.5H362v-9.8h5.6V355.5z M363,354.5h3.6v-7.8H363V354.5z"/>
			</g>
			<g>
				<rect x="362.2" y="355.4" class="st4" width="5.2" height="1.3"/>
			</g>
		</g>
		<g>
			<g>
				<rect x="376.6" y="346.1" class="st3" width="4.6" height="8.8"/>
				<path class="st2" d="M381.7,355.5h-5.6v-9.8h5.6V355.5z M377.1,354.5h3.6v-7.8h-3.6V354.5z"/>
			</g>
			<g>
				<rect x="376.3" y="355.4" class="st4" width="5.2" height="1.3"/>
			</g>
		</g>
		<g>
			<g>
				<rect x="348.4" y="327.6" class="st3" width="4.6" height="8.8"/>
				<path class="st2" d="M353.5,336.9h-5.6v-9.8h5.6V336.9z M348.9,335.9h3.6v-7.8h-3.6V335.9z"/>
			</g>
			<g>
				<rect x="348.1" y="336.9" class="st4" width="5.2" height="1.3"/>
			</g>
		</g>
		<g>
			<g>
				<rect x="362.5" y="327.6" class="st3" width="4.6" height="8.8"/>
				<path class="st2" d="M367.6,336.9H362v-9.8h5.6V336.9z M363,335.9h3.6v-7.8H363V335.9z"/>
			</g>
			<g>
				<rect x="362.2" y="336.9" class="st4" width="5.2" height="1.3"/>
			</g>
		</g>
		<g>
			<g>
				<rect x="376.6" y="327.6" class="st3" width="4.6" height="8.8"/>
				<path class="st2" d="M381.7,336.9h-5.6v-9.8h5.6V336.9z M377.1,335.9h3.6v-7.8h-3.6V335.9z"/>
			</g>
			<g>
				<rect x="376.3" y="336.9" class="st4" width="5.2" height="1.3"/>
			</g>
		</g>
		<g>
			<g>
				<rect x="348.4" y="364.7" class="st3" width="4.6" height="8.8"/>
				<path class="st2" d="M353.5,374h-5.6v-9.8h5.6V374z M348.9,373h3.6v-7.8h-3.6V373z"/>
			</g>
			<g>
				<rect x="348.1" y="374" class="st4" width="5.2" height="1.3"/>
			</g>
		</g>
		<g>
			<g>
				<rect x="362.5" y="364.7" class="st3" width="4.6" height="8.8"/>
				<path class="st2" d="M367.6,374H362v-9.8h5.6V374z M363,373h3.6v-7.8H363V373z"/>
			</g>
			<g>
				<rect x="362.2" y="374" class="st4" width="5.2" height="1.3"/>
			</g>
		</g>
		<g>
			<g>
				<rect x="376.6" y="364.7" class="st3" width="4.6" height="8.8"/>
				<path class="st2" d="M381.7,374h-5.6v-9.8h5.6V374z M377.1,373h3.6v-7.8h-3.6V373z"/>
			</g>
			<g>
				<rect x="376.3" y="374" class="st4" width="5.2" height="1.3"/>
			</g>
		</g>
		<g>
			<g>
				<rect x="348.4" y="290.3" class="st3" width="4.6" height="8.8"/>
				<path class="st2" d="M353.5,299.7h-5.6v-9.8h5.6V299.7z M348.9,298.7h3.6v-7.8h-3.6V298.7z"/>
			</g>
			<g>
				<rect x="348.1" y="299.6" class="st4" width="5.2" height="1.3"/>
			</g>
		</g>
		<g>
			<g>
				<rect x="362.5" y="290.3" class="st3" width="4.6" height="8.8"/>
				<path class="st2" d="M367.6,299.7H362v-9.8h5.6V299.7z M363,298.7h3.6v-7.8H363V298.7z"/>
			</g>
			<g>
				<rect x="362.2" y="299.6" class="st4" width="5.2" height="1.3"/>
			</g>
		</g>
		<g>
			<g>
				<rect x="376.6" y="290.3" class="st3" width="4.6" height="8.8"/>
				<path class="st2" d="M381.7,299.7h-5.6v-9.8h5.6V299.7z M377.1,298.7h3.6v-7.8h-3.6V298.7z"/>
			</g>
			<g>
				<rect x="376.3" y="299.6" class="st4" width="5.2" height="1.3"/>
			</g>
		</g>
		<g>
			<g>
				<rect x="348.4" y="271.8" class="st3" width="4.6" height="8.8"/>
				<path class="st2" d="M353.5,281.1h-5.6v-9.8h5.6V281.1z M348.9,280.1h3.6v-7.8h-3.6V280.1z"/>
			</g>
			<g>
				<rect x="348.1" y="281.1" class="st4" width="5.2" height="1.3"/>
			</g>
		</g>
		<g>
			<g>
				<rect x="362.5" y="271.8" class="st3" width="4.6" height="8.8"/>
				<path class="st2" d="M367.6,281.1H362v-9.8h5.6V281.1z M363,280.1h3.6v-7.8H363V280.1z"/>
			</g>
			<g>
				<rect x="362.2" y="281.1" class="st4" width="5.2" height="1.3"/>
			</g>
		</g>
		<g>
			<g>
				<rect x="376.6" y="271.8" class="st3" width="4.6" height="8.8"/>
				<path class="st2" d="M381.7,281.1h-5.6v-9.8h5.6V281.1z M377.1,280.1h3.6v-7.8h-3.6V280.1z"/>
			</g>
			<g>
				<rect x="376.3" y="281.1" class="st4" width="5.2" height="1.3"/>
			</g>
		</g>
		<g>
			<g>
				<rect x="348.4" y="308.9" class="st3" width="4.6" height="8.8"/>
				<path class="st2" d="M353.5,318.2h-5.6v-9.8h5.6V318.2z M348.9,317.2h3.6v-7.8h-3.6V317.2z"/>
			</g>
			<g>
				<rect x="348.1" y="318.2" class="st4" width="5.2" height="1.3"/>
			</g>
		</g>
		<g>
			<g>
				<rect x="362.5" y="308.9" class="st3" width="4.6" height="8.8"/>
				<path class="st2" d="M367.6,318.2H362v-9.8h5.6V318.2z M363,317.2h3.6v-7.8H363V317.2z"/>
			</g>
			<g>
				<rect x="362.2" y="318.2" class="st4" width="5.2" height="1.3"/>
			</g>
		</g>
		<g>
			<g>
				<rect x="376.6" y="308.9" class="st3" width="4.6" height="8.8"/>
				<path class="st2" d="M381.7,318.2h-5.6v-9.8h5.6V318.2z M377.1,317.2h3.6v-7.8h-3.6V317.2z"/>
			</g>
			<g>
				<rect x="376.3" y="318.2" class="st4" width="5.2" height="1.3"/>
			</g>
		</g>
		<g>
			<g>
				<rect x="390.4" y="346.2" class="st3" width="4.6" height="8.8"/>
				<path class="st2" d="M395.5,355.5h-5.6v-9.8h5.6V355.5z M390.9,354.5h3.6v-7.8h-3.6V354.5z"/>
			</g>
			<g>
				<rect x="390" y="355.5" class="st4" width="5.2" height="1.3"/>
			</g>
		</g>
		<g>
			<g>
				<rect x="404.5" y="346.2" class="st3" width="4.6" height="8.8"/>
				<path class="st2" d="M409.6,355.5H404v-9.8h5.6V355.5z M405,354.5h3.6v-7.8H405V354.5z"/>
			</g>
			<g>
				<rect x="404.2" y="355.5" class="st4" width="5.2" height="1.3"/>
			</g>
		</g>
		<g>
			<g>
				<rect x="390.4" y="327.6" class="st3" width="4.6" height="8.8"/>
				<path class="st2" d="M395.5,336.9h-5.6v-9.8h5.6V336.9z M390.9,335.9h3.6v-7.8h-3.6V335.9z"/>
			</g>
			<g>
				<rect x="390" y="336.9" class="st4" width="5.2" height="1.3"/>
			</g>
		</g>
		<g>
			<g>
				<rect x="404.5" y="327.6" class="st3" width="4.6" height="8.8"/>
				<path class="st2" d="M409.6,336.9H404v-9.8h5.6V336.9z M405,335.9h3.6v-7.8H405V335.9z"/>
			</g>
			<g>
				<rect x="404.2" y="336.9" class="st4" width="5.2" height="1.3"/>
			</g>
		</g>
		<g>
			<g>
				<rect x="390.4" y="364.7" class="st3" width="4.6" height="8.8"/>
				<path class="st2" d="M395.5,374h-5.6v-9.8h5.6V374z M390.9,373h3.6v-7.8h-3.6V373z"/>
			</g>
			<g>
				<rect x="390" y="374" class="st4" width="5.2" height="1.3"/>
			</g>
		</g>
		<g>
			<g>
				<rect x="404.5" y="364.7" class="st3" width="4.6" height="8.8"/>
				<path class="st2" d="M409.6,374H404v-9.8h5.6V374z M405,373h3.6v-7.8H405V373z"/>
			</g>
			<g>
				<rect x="404.2" y="374" class="st4" width="5.2" height="1.3"/>
			</g>
		</g>
		<g>
			<g>
				<rect x="390.4" y="290.4" class="st3" width="4.6" height="8.8"/>
				<path class="st2" d="M395.5,299.7h-5.6v-9.8h5.6V299.7z M390.9,298.7h3.6v-7.8h-3.6V298.7z"/>
			</g>
			<g>
				<rect x="390" y="299.7" class="st4" width="5.2" height="1.3"/>
			</g>
		</g>
		<g>
			<g>
				<rect x="404.5" y="290.4" class="st3" width="4.6" height="8.8"/>
				<path class="st2" d="M409.6,299.7H404v-9.8h5.6V299.7z M405,298.7h3.6v-7.8H405V298.7z"/>
			</g>
			<g>
				<rect x="404.2" y="299.7" class="st4" width="5.2" height="1.3"/>
			</g>
		</g>
		<g>
			<g>
				<rect x="390.4" y="271.8" class="st3" width="4.6" height="8.8"/>
				<path class="st2" d="M395.5,281.1h-5.6v-9.8h5.6V281.1z M390.9,280.1h3.6v-7.8h-3.6V280.1z"/>
			</g>
			<g>
				<rect x="390" y="281.1" class="st4" width="5.2" height="1.3"/>
			</g>
		</g>
		<g>
			<g>
				<rect x="404.5" y="271.8" class="st3" width="4.6" height="8.8"/>
				<path class="st2" d="M409.6,281.1H404v-9.8h5.6V281.1z M405,280.1h3.6v-7.8H405V280.1z"/>
			</g>
			<g>
				<rect x="404.2" y="281.1" class="st4" width="5.2" height="1.3"/>
			</g>
		</g>
		<g>
			<g>
				<rect x="390.4" y="308.9" class="st3" width="4.6" height="8.8"/>
				<path class="st2" d="M395.5,318.2h-5.6v-9.8h5.6V318.2z M390.9,317.2h3.6v-7.8h-3.6V317.2z"/>
			</g>
			<g>
				<rect x="390" y="318.2" class="st4" width="5.2" height="1.3"/>
			</g>
		</g>
		<g>
			<g>
				<rect x="404.5" y="308.9" class="st3" width="4.6" height="8.8"/>
				<path class="st2" d="M409.6,318.2H404v-9.8h5.6V318.2z M405,317.2h3.6v-7.8H405V317.2z"/>
			</g>
			<g>
				<rect x="404.2" y="318.2" class="st4" width="5.2" height="1.3"/>
			</g>
		</g>
	</g>
	<g>
		<path class="st2" d="M416.3,398H270.9v-14.4h145.4V398z M271.9,397h143.4v-12.4H271.9V397z"/>
	</g>
	<g>
		<rect x="272.5" y="384.8" class="st4" width="142.3" height="1.3"/>
	</g>
</g>
<g>
	<g>
		<polygon class="st6" points="305.5,290.3 236.1,290.3 236.1,285.8 300.7,285.8 		"/>
		<path class="st2" d="M305.5,290.8h-69.4c-0.3,0-0.5-0.2-0.5-0.5v-4.5c0-0.3,0.2-0.5,0.5-0.5h64.6c0.1,0,0.2,0,0.3,0.1l4.8,4.5
			c0.1,0.1,0.2,0.4,0.1,0.5C305.9,290.6,305.7,290.8,305.5,290.8z M236.6,289.8h67.6l-3.7-3.5h-63.9V289.8z"/>
	</g>
	<g>
		<rect x="235.5" y="292.9" class="st7" width="78.9" height="105.8"/>
		<path class="st2" d="M315,399.3H235V292.4H315V399.3z M236,398.3H314V293.4H236V398.3z"/>
	</g>
	<g>
		<g>
			<g>
				<rect x="245.2" y="376.5" class="st3" width="4.6" height="8.8"/>
				<path class="st2" d="M250.3,385.8h-5.6V376h5.6V385.8z M245.7,384.8h3.6V377h-3.6V384.8z"/>
			</g>
			<g>
				<rect x="244.9" y="385.7" class="st4" width="5.2" height="1.3"/>
			</g>
		</g>
		<g>
			<g>
				<rect x="259.3" y="376.5" class="st3" width="4.6" height="8.8"/>
				<path class="st2" d="M264.4,385.8h-5.6V376h5.6V385.8z M259.8,384.8h3.6V377h-3.6V384.8z"/>
			</g>
			<g>
				<rect x="259" y="385.7" class="st4" width="5.2" height="1.3"/>
			</g>
		</g>
		<g>
			<g>
				<rect x="273.4" y="376.5" class="st3" width="4.6" height="8.8"/>
				<path class="st2" d="M278.5,385.8h-5.6V376h5.6V385.8z M273.9,384.8h3.6V377h-3.6V384.8z"/>
			</g>
			<g>
				<rect x="273.1" y="385.7" class="st4" width="5.2" height="1.3"/>
			</g>
		</g>
		<g>
			<g>
				<rect x="245.2" y="357.9" class="st3" width="4.6" height="8.8"/>
				<path class="st2" d="M250.3,367.2h-5.6v-9.8h5.6V367.2z M245.7,366.2h3.6v-7.8h-3.6V366.2z"/>
			</g>
			<g>
				<rect x="244.9" y="367.2" class="st4" width="5.2" height="1.3"/>
			</g>
		</g>
		<g>
			<g>
				<rect x="259.3" y="357.9" class="st3" width="4.6" height="8.8"/>
				<path class="st2" d="M264.4,367.2h-5.6v-9.8h5.6V367.2z M259.8,366.2h3.6v-7.8h-3.6V366.2z"/>
			</g>
			<g>
				<rect x="259" y="367.2" class="st4" width="5.2" height="1.3"/>
			</g>
		</g>
		<g>
			<g>
				<rect x="273.4" y="357.9" class="st3" width="4.6" height="8.8"/>
				<path class="st2" d="M278.5,367.2h-5.6v-9.8h5.6V367.2z M273.9,366.2h3.6v-7.8h-3.6V366.2z"/>
			</g>
			<g>
				<rect x="273.1" y="367.2" class="st4" width="5.2" height="1.3"/>
			</g>
		</g>
		<g>
			<g>
				<rect x="245.2" y="320.7" class="st3" width="4.6" height="8.8"/>
				<path class="st2" d="M250.3,330h-5.6v-9.8h5.6V330z M245.7,329h3.6v-7.8h-3.6V329z"/>
			</g>
			<g>
				<rect x="244.9" y="329.9" class="st4" width="5.2" height="1.3"/>
			</g>
		</g>
		<g>
			<g>
				<rect x="259.3" y="320.7" class="st3" width="4.6" height="8.8"/>
				<path class="st2" d="M264.4,330h-5.6v-9.8h5.6V330z M259.8,329h3.6v-7.8h-3.6V329z"/>
			</g>
			<g>
				<rect x="259" y="329.9" class="st4" width="5.2" height="1.3"/>
			</g>
		</g>
		<g>
			<g>
				<rect x="273.4" y="320.7" class="st3" width="4.6" height="8.8"/>
				<path class="st2" d="M278.5,330h-5.6v-9.8h5.6V330z M273.9,329h3.6v-7.8h-3.6V329z"/>
			</g>
			<g>
				<rect x="273.1" y="329.9" class="st4" width="5.2" height="1.3"/>
			</g>
		</g>
		<g>
			<g>
				<rect x="245.2" y="302.1" class="st3" width="4.6" height="8.8"/>
				<path class="st2" d="M250.3,311.4h-5.6v-9.8h5.6V311.4z M245.7,310.4h3.6v-7.8h-3.6V310.4z"/>
			</g>
			<g>
				<rect x="244.9" y="311.4" class="st4" width="5.2" height="1.3"/>
			</g>
		</g>
		<g>
			<g>
				<rect x="259.3" y="302.1" class="st3" width="4.6" height="8.8"/>
				<path class="st2" d="M264.4,311.4h-5.6v-9.8h5.6V311.4z M259.8,310.4h3.6v-7.8h-3.6V310.4z"/>
			</g>
			<g>
				<rect x="259" y="311.4" class="st4" width="5.2" height="1.3"/>
			</g>
		</g>
		<g>
			<g>
				<rect x="273.4" y="302.1" class="st3" width="4.6" height="8.8"/>
				<path class="st2" d="M278.5,311.4h-5.6v-9.8h5.6V311.4z M273.9,310.4h3.6v-7.8h-3.6V310.4z"/>
			</g>
			<g>
				<rect x="273.1" y="311.4" class="st4" width="5.2" height="1.3"/>
			</g>
		</g>
		<g>
			<g>
				<rect x="245.2" y="339.2" class="st3" width="4.6" height="8.8"/>
				<path class="st2" d="M250.3,348.5h-5.6v-9.8h5.6V348.5z M245.7,347.5h3.6v-7.8h-3.6V347.5z"/>
			</g>
			<g>
				<rect x="244.9" y="348.5" class="st4" width="5.2" height="1.3"/>
			</g>
		</g>
		<g>
			<g>
				<rect x="259.3" y="339.2" class="st3" width="4.6" height="8.8"/>
				<path class="st2" d="M264.4,348.5h-5.6v-9.8h5.6V348.5z M259.8,347.5h3.6v-7.8h-3.6V347.5z"/>
			</g>
			<g>
				<rect x="259" y="348.5" class="st4" width="5.2" height="1.3"/>
			</g>
		</g>
		<g>
			<g>
				<rect x="273.4" y="339.2" class="st3" width="4.6" height="8.8"/>
				<path class="st2" d="M278.5,348.5h-5.6v-9.8h5.6V348.5z M273.9,347.5h3.6v-7.8h-3.6V347.5z"/>
			</g>
			<g>
				<rect x="273.1" y="348.5" class="st4" width="5.2" height="1.3"/>
			</g>
		</g>
		<g>
			<g>
				<rect x="287.1" y="376.5" class="st3" width="4.6" height="8.8"/>
				<path class="st2" d="M292.2,385.8h-5.6V376h5.6V385.8z M287.6,384.8h3.6V377h-3.6V384.8z"/>
			</g>
			<g>
				<rect x="286.8" y="385.8" class="st4" width="5.2" height="1.3"/>
			</g>
		</g>
		<g>
			<g>
				<rect x="301.2" y="376.5" class="st3" width="4.6" height="8.8"/>
				<path class="st2" d="M306.3,385.8h-5.6V376h5.6V385.8z M301.7,384.8h3.6V377h-3.6V384.8z"/>
			</g>
			<g>
				<rect x="300.9" y="385.8" class="st4" width="5.2" height="1.3"/>
			</g>
		</g>
		<g>
			<g>
				<rect x="287.1" y="357.9" class="st3" width="4.6" height="8.8"/>
				<path class="st2" d="M292.2,367.2h-5.6v-9.8h5.6V367.2z M287.6,366.2h3.6v-7.8h-3.6V366.2z"/>
			</g>
			<g>
				<rect x="286.8" y="367.2" class="st4" width="5.2" height="1.3"/>
			</g>
		</g>
		<g>
			<g>
				<rect x="301.2" y="357.9" class="st3" width="4.6" height="8.8"/>
				<path class="st2" d="M306.3,367.2h-5.6v-9.8h5.6V367.2z M301.7,366.2h3.6v-7.8h-3.6V366.2z"/>
			</g>
			<g>
				<rect x="300.9" y="367.2" class="st4" width="5.2" height="1.3"/>
			</g>
		</g>
		<g>
			<g>
				<rect x="287.1" y="320.7" class="st3" width="4.6" height="8.8"/>
				<path class="st2" d="M292.2,330h-5.6v-9.8h5.6V330z M287.6,329h3.6v-7.8h-3.6V329z"/>
			</g>
			<g>
				<rect x="286.8" y="330" class="st4" width="5.2" height="1.3"/>
			</g>
		</g>
		<g>
			<g>
				<rect x="301.2" y="320.7" class="st3" width="4.6" height="8.8"/>
				<path class="st2" d="M306.3,330h-5.6v-9.8h5.6V330z M301.7,329h3.6v-7.8h-3.6V329z"/>
			</g>
			<g>
				<rect x="300.9" y="330" class="st4" width="5.2" height="1.3"/>
			</g>
		</g>
		<g>
			<g>
				<rect x="287.1" y="302.1" class="st3" width="4.6" height="8.8"/>
				<path class="st2" d="M292.2,311.4h-5.6v-9.8h5.6V311.4z M287.6,310.4h3.6v-7.8h-3.6V310.4z"/>
			</g>
			<g>
				<rect x="286.8" y="311.4" class="st4" width="5.2" height="1.3"/>
			</g>
		</g>
		<g>
			<g>
				<rect x="301.2" y="302.1" class="st3" width="4.6" height="8.8"/>
				<path class="st2" d="M306.3,311.4h-5.6v-9.8h5.6V311.4z M301.7,310.4h3.6v-7.8h-3.6V310.4z"/>
			</g>
			<g>
				<rect x="300.9" y="311.4" class="st4" width="5.2" height="1.3"/>
			</g>
		</g>
		<g>
			<g>
				<rect x="287.1" y="339.3" class="st3" width="4.6" height="8.8"/>
				<path class="st2" d="M292.2,348.6h-5.6v-9.8h5.6V348.6z M287.6,347.6h3.6v-7.8h-3.6V347.6z"/>
			</g>
			<g>
				<rect x="286.8" y="348.5" class="st4" width="5.2" height="1.3"/>
			</g>
		</g>
		<g>
			<g>
				<rect x="301.2" y="339.3" class="st3" width="4.6" height="8.8"/>
				<path class="st2" d="M306.3,348.6h-5.6v-9.8h5.6V348.6z M301.7,347.6h3.6v-7.8h-3.6V347.6z"/>
			</g>
			<g>
				<rect x="300.9" y="348.5" class="st4" width="5.2" height="1.3"/>
			</g>
		</g>
	</g>
	<g>
		<rect x="233.6" y="290.3" class="st5" width="82.8" height="2.9"/>
		<path class="st2" d="M316.9,293.6h-83.8v-3.9h83.8V293.6z M234.1,292.6h81.8v-1.9h-81.8V292.6z"/>
	</g>
	<g>
		<rect x="236.1" y="293.7" class="st4" width="77.7" height="1.3"/>
	</g>
</g>
<g>
	<g>
		<rect x="60.5" y="340.5" class="st8" width="30.2" height="57.9"/>
		<path class="st2" d="M91.2,398.9H60V340h31.2V398.9z M61,397.9h29.2V341H61V397.9z"/>
	</g>
	<g>
		<rect x="72.6" y="381.4" class="st3" width="6" height="16.9"/>
		<path class="st2" d="M79.1,398.9h-7v-17.9h7V398.9z M73.1,397.9h5v-15.9h-5V397.9z"/>
	</g>
	<g>
		<rect x="72.6" y="364.4" class="st3" width="6" height="7.9"/>
		<path class="st2" d="M79.1,372.9h-7v-8.9h7V372.9z M73.1,371.9h5v-6.9h-5V371.9z"/>
	</g>
	<g>
		<rect x="72.6" y="348" class="st3" width="6" height="7.9"/>
		<path class="st2" d="M79.1,356.4h-7v-8.9h7V356.4z M73.1,355.4h5v-6.9h-5V355.4z"/>
	</g>
	<g>
		<rect x="73.9" y="382.7" class="st6" width="3.4" height="14.4"/>
	</g>
	<g>
		<rect x="72.2" y="372.8" class="st4" width="6.8" height="1.1"/>
	</g>
	<g>
		<rect x="72.2" y="356.2" class="st4" width="6.8" height="1.1"/>
	</g>
	<g>
		<rect x="59.2" y="338" class="st9" width="31.5" height="2.5"/>
		<path class="st2" d="M91.2,341H58.7v-3.5h32.5V341z M59.7,340h30.5v-1.5H59.7V340z"/>
	</g>
	<g>
		<rect x="90.7" y="340.5" class="st8" width="68.4" height="57.9"/>
		<path class="st2" d="M159.6,398.9H90.2V340h69.4V398.9z M91.2,397.9h67.4V341H91.2V397.9z"/>
	</g>
	<g>
		<rect x="90.7" y="338" class="st9" width="68.4" height="2.5"/>
		<path class="st2" d="M159.6,341H90.2v-3.5h69.4V341z M91.2,340h67.4v-1.5H91.2V340z"/>
	</g>
	<g>
		<g>
			<rect x="104" y="364.5" class="st3" width="6" height="7.9"/>
			<path class="st2" d="M110.4,372.9h-7V364h7V372.9z M104.5,371.9h5V365h-5V371.9z"/>
		</g>
		<g>
			<rect x="103.6" y="372.8" class="st4" width="6.8" height="1.1"/>
		</g>
	</g>
	<g>
		<g>
			<rect x="122.2" y="364.5" class="st3" width="6" height="7.9"/>
			<path class="st2" d="M128.7,372.9h-7V364h7V372.9z M122.7,371.9h5V365h-5V371.9z"/>
		</g>
		<g>
			<rect x="121.8" y="372.8" class="st4" width="6.8" height="1.1"/>
		</g>
	</g>
	<g>
		<g>
			<rect x="140.5" y="364.5" class="st3" width="6" height="7.9"/>
			<path class="st2" d="M147,372.9h-7V364h7V372.9z M141,371.9h5V365h-5V371.9z"/>
		</g>
		<g>
			<rect x="140.1" y="372.8" class="st4" width="6.8" height="1.1"/>
		</g>
	</g>
	<g>
		<g>
			<rect x="104" y="347.9" class="st3" width="6" height="7.9"/>
			<path class="st2" d="M110.4,356.3h-7v-8.9h7V356.3z M104.5,355.3h5v-6.9h-5V355.3z"/>
		</g>
		<g>
			<rect x="103.6" y="356.2" class="st4" width="6.8" height="1.1"/>
		</g>
	</g>
	<g>
		<g>
			<rect x="122.2" y="347.9" class="st3" width="6" height="7.9"/>
			<path class="st2" d="M128.7,356.3h-7v-8.9h7V356.3z M122.7,355.3h5v-6.9h-5V355.3z"/>
		</g>
		<g>
			<rect x="121.8" y="356.2" class="st4" width="6.8" height="1.1"/>
		</g>
	</g>
	<g>
		<g>
			<rect x="140.5" y="347.9" class="st3" width="6" height="7.9"/>
			<path class="st2" d="M147,356.3h-7v-8.9h7V356.3z M141,355.3h5v-6.9h-5V355.3z"/>
		</g>
		<g>
			<rect x="140.1" y="356.2" class="st4" width="6.8" height="1.1"/>
		</g>
	</g>
	<g>
		<g>
			<rect x="104" y="381.2" class="st3" width="6" height="7.9"/>
			<path class="st2" d="M110.4,389.6h-7v-8.9h7V389.6z M104.5,388.6h5v-6.9h-5V388.6z"/>
		</g>
		<g>
			<rect x="103.6" y="389.5" class="st4" width="6.8" height="1.1"/>
		</g>
	</g>
	<g>
		<g>
			<rect x="122.2" y="381.2" class="st3" width="6" height="7.9"/>
			<path class="st2" d="M128.7,389.6h-7v-8.9h7V389.6z M122.7,388.6h5v-6.9h-5V388.6z"/>
		</g>
		<g>
			<rect x="121.8" y="389.5" class="st4" width="6.8" height="1.1"/>
		</g>
	</g>
	<g>
		<g>
			<rect x="140.5" y="381.2" class="st3" width="6" height="7.9"/>
			<path class="st2" d="M147,389.6h-7v-8.9h7V389.6z M141,388.6h5v-6.9h-5V388.6z"/>
		</g>
		<g>
			<rect x="140.1" y="389.5" class="st4" width="6.8" height="1.1"/>
		</g>
	</g>
	<g>
		<path class="st6" d="M90.7,338H60.5c0.1-0.9,0.3-1.7,0.6-2.4c4.1-10.8,26.8-10.6,29.7-10.6C90.7,329.4,90.7,333.7,90.7,338z"/>
		<path class="st2" d="M91.2,338.5H59.9L60,338c0.1-0.9,0.3-1.7,0.6-2.5c4.1-10.8,25.8-10.9,30.1-10.9l0.5,0V338.5z M61.1,337.5
			h29.2v-12c-5.1,0-25,0.5-28.7,10.2C61.3,336.3,61.2,336.9,61.1,337.5z"/>
	</g>
	<g>
		<rect x="90.7" y="325" class="st6" width="68.4" height="13"/>
		<path class="st2" d="M159.6,338.5H90.2v-14h69.4V338.5z M91.2,337.5h67.4v-12H91.2V337.5z"/>
	</g>
	<g>
		<rect x="91.4" y="341.1" class="st4" width="67" height="1.9"/>
	</g>
	<g>
		<rect x="61.2" y="341.1" class="st4" width="28.8" height="1.9"/>
	</g>
</g>
<g>
	<g>
		<rect x="156.9" y="274.5" class="st3" width="78.9" height="124.3"/>
		<path class="st2" d="M236.3,399.3h-79.9V274h79.9V399.3z M157.4,398.3h77.9V275h-77.9V398.3z"/>
	</g>
	<g>
		<rect x="155" y="271.8" class="st5" width="82.8" height="2.9"/>
		<path class="st2" d="M238.3,275.2h-83.8v-3.9h83.8V275.2z M155.5,274.2h81.8v-1.9h-81.8V274.2z"/>
	</g>
	<g>
		<rect x="157.5" y="275.3" class="st4" width="77.7" height="1.3"/>
	</g>
	<g>
		<g>
			<g>
				<rect x="156.9" y="384.1" class="st3" width="78.6" height="14.4"/>
				<path class="st2" d="M236,399h-79.6v-15.4H236V399z M157.4,398H235v-13.4h-77.6V398z"/>
			</g>
		</g>
		<g>
			<g>
				<rect x="166.5" y="358" class="st3" width="4.6" height="8.8"/>
				<path class="st2" d="M171.6,367.3H166v-9.8h5.6V367.3z M167,366.3h3.6v-7.8H167V366.3z"/>
			</g>
			<g>
				<rect x="166.2" y="367.3" class="st4" width="5.2" height="1.3"/>
			</g>
		</g>
		<g>
			<g>
				<rect x="180.6" y="358" class="st3" width="4.6" height="8.8"/>
				<path class="st2" d="M185.7,367.3h-5.6v-9.8h5.6V367.3z M181.1,366.3h3.6v-7.8h-3.6V366.3z"/>
			</g>
			<g>
				<rect x="180.3" y="367.3" class="st4" width="5.2" height="1.3"/>
			</g>
		</g>
		<g>
			<g>
				<rect x="194.7" y="358" class="st3" width="4.6" height="8.8"/>
				<path class="st2" d="M199.9,367.3h-5.6v-9.8h5.6V367.3z M195.2,366.3h3.6v-7.8h-3.6V366.3z"/>
			</g>
			<g>
				<rect x="194.4" y="367.3" class="st4" width="5.2" height="1.3"/>
			</g>
		</g>
		<g>
			<g>
				<rect x="166.5" y="339.4" class="st3" width="4.6" height="8.8"/>
				<path class="st2" d="M171.6,348.7H166v-9.8h5.6V348.7z M167,347.7h3.6v-7.8H167V347.7z"/>
			</g>
			<g>
				<rect x="166.2" y="348.7" class="st4" width="5.2" height="1.3"/>
			</g>
		</g>
		<g>
			<g>
				<rect x="180.6" y="339.4" class="st3" width="4.6" height="8.8"/>
				<path class="st2" d="M185.7,348.7h-5.6v-9.8h5.6V348.7z M181.1,347.7h3.6v-7.8h-3.6V347.7z"/>
			</g>
			<g>
				<rect x="180.3" y="348.7" class="st4" width="5.2" height="1.3"/>
			</g>
		</g>
		<g>
			<g>
				<rect x="194.7" y="339.4" class="st3" width="4.6" height="8.8"/>
				<path class="st2" d="M199.9,348.7h-5.6v-9.8h5.6V348.7z M195.2,347.7h3.6v-7.8h-3.6V347.7z"/>
			</g>
			<g>
				<rect x="194.4" y="348.7" class="st4" width="5.2" height="1.3"/>
			</g>
		</g>
		<g>
			<g>
				<rect x="187.9" y="376.6" class="st3" width="9" height="21.9"/>
				<path class="st2" d="M197.3,398.9h-10v-22.9h10V398.9z M188.4,397.9h8v-20.9h-8V397.9z"/>
			</g>
		</g>
		<g>
			<g>
				<rect x="166.5" y="302.2" class="st3" width="4.6" height="8.8"/>
				<path class="st2" d="M171.6,311.5H166v-9.8h5.6V311.5z M167,310.5h3.6v-7.8H167V310.5z"/>
			</g>
			<g>
				<rect x="166.2" y="311.5" class="st4" width="5.2" height="1.3"/>
			</g>
		</g>
		<g>
			<g>
				<rect x="180.6" y="302.2" class="st3" width="4.6" height="8.8"/>
				<path class="st2" d="M185.7,311.5h-5.6v-9.8h5.6V311.5z M181.1,310.5h3.6v-7.8h-3.6V310.5z"/>
			</g>
			<g>
				<rect x="180.3" y="311.5" class="st4" width="5.2" height="1.3"/>
			</g>
		</g>
		<g>
			<g>
				<rect x="194.7" y="302.2" class="st3" width="4.6" height="8.8"/>
				<path class="st2" d="M199.9,311.5h-5.6v-9.8h5.6V311.5z M195.2,310.5h3.6v-7.8h-3.6V310.5z"/>
			</g>
			<g>
				<rect x="194.4" y="311.5" class="st4" width="5.2" height="1.3"/>
			</g>
		</g>
		<g>
			<g>
				<rect x="166.5" y="283.6" class="st3" width="4.6" height="8.8"/>
				<path class="st2" d="M171.6,292.9H166v-9.8h5.6V292.9z M167,291.9h3.6v-7.8H167V291.9z"/>
			</g>
			<g>
				<rect x="166.2" y="292.9" class="st4" width="5.2" height="1.3"/>
			</g>
		</g>
		<g>
			<g>
				<rect x="180.6" y="283.6" class="st3" width="4.6" height="8.8"/>
				<path class="st2" d="M185.7,292.9h-5.6v-9.8h5.6V292.9z M181.1,291.9h3.6v-7.8h-3.6V291.9z"/>
			</g>
			<g>
				<rect x="180.3" y="292.9" class="st4" width="5.2" height="1.3"/>
			</g>
		</g>
		<g>
			<g>
				<rect x="194.7" y="283.6" class="st3" width="4.6" height="8.8"/>
				<path class="st2" d="M199.9,292.9h-5.6v-9.8h5.6V292.9z M195.2,291.9h3.6v-7.8h-3.6V291.9z"/>
			</g>
			<g>
				<rect x="194.4" y="292.9" class="st4" width="5.2" height="1.3"/>
			</g>
		</g>
		<g>
			<g>
				<rect x="166.5" y="320.8" class="st3" width="4.6" height="8.8"/>
				<path class="st2" d="M171.6,330.1H166v-9.8h5.6V330.1z M167,329.1h3.6v-7.8H167V329.1z"/>
			</g>
			<g>
				<rect x="166.2" y="330" class="st4" width="5.2" height="1.3"/>
			</g>
		</g>
		<g>
			<g>
				<rect x="180.6" y="320.8" class="st3" width="4.6" height="8.8"/>
				<path class="st2" d="M185.7,330.1h-5.6v-9.8h5.6V330.1z M181.1,329.1h3.6v-7.8h-3.6V329.1z"/>
			</g>
			<g>
				<rect x="180.3" y="330" class="st4" width="5.2" height="1.3"/>
			</g>
		</g>
		<g>
			<g>
				<rect x="194.7" y="320.8" class="st3" width="4.6" height="8.8"/>
				<path class="st2" d="M199.9,330.1h-5.6v-9.8h5.6V330.1z M195.2,329.1h3.6v-7.8h-3.6V329.1z"/>
			</g>
			<g>
				<rect x="194.4" y="330" class="st4" width="5.2" height="1.3"/>
			</g>
		</g>
		<g>
			<g>
				<rect x="208.5" y="358" class="st3" width="4.6" height="8.8"/>
				<path class="st2" d="M213.6,367.3H208v-9.8h5.6V367.3z M209,366.3h3.6v-7.8H209V366.3z"/>
			</g>
			<g>
				<rect x="208.2" y="367.3" class="st4" width="5.2" height="1.3"/>
			</g>
		</g>
		<g>
			<g>
				<rect x="222.6" y="358" class="st3" width="4.6" height="8.8"/>
				<path class="st2" d="M227.7,367.3h-5.6v-9.8h5.6V367.3z M223.1,366.3h3.6v-7.8h-3.6V366.3z"/>
			</g>
			<g>
				<rect x="222.3" y="367.3" class="st4" width="5.2" height="1.3"/>
			</g>
		</g>
		<g>
			<g>
				<rect x="208.5" y="339.5" class="st3" width="4.6" height="8.8"/>
				<path class="st2" d="M213.6,348.8H208V339h5.6V348.8z M209,347.8h3.6V340H209V347.8z"/>
			</g>
			<g>
				<rect x="208.2" y="348.7" class="st4" width="5.2" height="1.3"/>
			</g>
		</g>
		<g>
			<g>
				<rect x="222.6" y="339.5" class="st3" width="4.6" height="8.8"/>
				<path class="st2" d="M227.7,348.8h-5.6V339h5.6V348.8z M223.1,347.8h3.6V340h-3.6V347.8z"/>
			</g>
			<g>
				<rect x="222.3" y="348.7" class="st4" width="5.2" height="1.3"/>
			</g>
		</g>
		<g>
			<g>
				<rect x="208.5" y="302.2" class="st3" width="4.6" height="8.8"/>
				<path class="st2" d="M213.6,311.5H208v-9.8h5.6V311.5z M209,310.5h3.6v-7.8H209V310.5z"/>
			</g>
			<g>
				<rect x="208.2" y="311.5" class="st4" width="5.2" height="1.3"/>
			</g>
		</g>
		<g>
			<g>
				<rect x="222.6" y="302.2" class="st3" width="4.6" height="8.8"/>
				<path class="st2" d="M227.7,311.5h-5.6v-9.8h5.6V311.5z M223.1,310.5h3.6v-7.8h-3.6V310.5z"/>
			</g>
			<g>
				<rect x="222.3" y="311.5" class="st4" width="5.2" height="1.3"/>
			</g>
		</g>
		<g>
			<g>
				<rect x="208.5" y="283.7" class="st3" width="4.6" height="8.8"/>
				<path class="st2" d="M213.6,293H208v-9.8h5.6V293z M209,292h3.6v-7.8H209V292z"/>
			</g>
			<g>
				<rect x="208.2" y="292.9" class="st4" width="5.2" height="1.3"/>
			</g>
		</g>
		<g>
			<g>
				<rect x="222.6" y="283.7" class="st3" width="4.6" height="8.8"/>
				<path class="st2" d="M227.7,293h-5.6v-9.8h5.6V293z M223.1,292h3.6v-7.8h-3.6V292z"/>
			</g>
			<g>
				<rect x="222.3" y="292.9" class="st4" width="5.2" height="1.3"/>
			</g>
		</g>
		<g>
			<g>
				<rect x="208.5" y="320.8" class="st3" width="4.6" height="8.8"/>
				<path class="st2" d="M213.6,330.1H208v-9.8h5.6V330.1z M209,329.1h3.6v-7.8H209V329.1z"/>
			</g>
			<g>
				<rect x="208.2" y="330.1" class="st4" width="5.2" height="1.3"/>
			</g>
		</g>
		<g>
			<g>
				<rect x="222.6" y="320.8" class="st3" width="4.6" height="8.8"/>
				<path class="st2" d="M227.7,330.1h-5.6v-9.8h5.6V330.1z M223.1,329.1h3.6v-7.8h-3.6V329.1z"/>
			</g>
			<g>
				<rect x="222.3" y="330.1" class="st4" width="5.2" height="1.3"/>
			</g>
		</g>
		<g>
			<g>
				<rect x="196.8" y="376.6" class="st3" width="9.5" height="21.8"/>
				<path class="st2" d="M206.8,398.9h-10.5v-22.8h10.5V398.9z M197.3,397.9h8.5v-20.8h-8.5V397.9z"/>
			</g>
			<g>
				
					<rect x="194.5" y="385.4" transform="matrix(-1.836970e-16 1 -1 -1.836970e-16 588.5731 185.412)" class="st4" width="14.2" height="3.1"/>
			</g>
			<g>
				
					<rect x="185.2" y="385.6" transform="matrix(-1.836970e-16 1 -1 -1.836970e-16 579.4948 194.8011)" class="st4" width="14.2" height="3.1"/>
			</g>
		</g>
	</g>
</g>
<g>
	<g>
		<g>
			
				<rect x="422.4" y="319.7" transform="matrix(-1 -4.472967e-11 4.472967e-11 -1 850.7034 648.9426)" class="st2" width="6" height="9.5"/>
		</g>
		<g>
			<g>
				
					<rect x="421.9" y="329.7" transform="matrix(-1 -4.500856e-11 4.500856e-11 -1 850.6454 660.3241)" class="st2" width="6.8" height="1"/>
			</g>
		</g>
	</g>
	<g>
		
			<rect x="435.8" y="371.1" transform="matrix(-1 -4.487933e-11 4.487933e-11 -1 901.9006 769.5787)" class="st3" width="30.2" height="27.5"/>
		<path class="st2" d="M466.6,399h-31.2v-28.5h31.2V399z M436.3,398h29.2v-26.5h-29.2V398z"/>
	</g>
	<g>
		<g>
			
				<rect x="442" y="380.7" transform="matrix(-1 -4.503388e-11 4.503388e-11 -1 890.0204 779.2453)" class="st3" width="6" height="17.8"/>
			<path class="st2" d="M448.5,399h-7v-18.8h7V399z M442.5,398h5v-16.8h-5V398z"/>
		</g>
		<g>
			<g>
				
					<rect x="443.3" y="382.1" transform="matrix(-1 -4.483404e-11 4.483404e-11 -1 890.0576 779.2822)" class="st6" width="3.4" height="15.1"/>
			</g>
		</g>
	</g>
	<g>
		
			<rect x="435.8" y="368.4" transform="matrix(-1 -4.483270e-11 4.483270e-11 -1 903.1493 739.3239)" class="st9" width="31.5" height="2.5"/>
		<path class="st2" d="M467.8,371.4h-32.5v-3.5h32.5V371.4z M436.3,370.4h30.5v-1.5h-30.5V370.4z"/>
	</g>
	<g>
		
			<rect x="389" y="340.7" transform="matrix(-1 -4.490687e-11 4.490687e-11 -1 824.8401 739.1904)" class="st3" width="46.8" height="57.9"/>
		<path class="st2" d="M436.3,399h-47.8v-58.9h47.8V399z M389.5,398h45.8v-56.9h-45.8V398z"/>
	</g>
	<g>
		
			<rect x="389" y="338.2" transform="matrix(-1 -4.486823e-11 4.486823e-11 -1 824.8401 678.8377)" class="st9" width="46.8" height="2.5"/>
		<path class="st2" d="M436.3,341.2h-47.8v-3.5h47.8V341.2z M389.5,340.2h45.8v-1.5h-45.8V340.2z"/>
	</g>
	<g>
		<path class="st10" d="M435.8,368.4h30.2c-0.1-1.4-30.2-20.1-30.2-20.1S435.8,361.7,435.8,368.4z"/>
		<path class="st2" d="M466.6,368.9h-31.3v-21.5l0.8,0.5c13.9,8.6,30.4,19.2,30.5,20.5L466.6,368.9z M436.3,367.9h28.6
			c-3.4-2.8-18.5-12.4-28.6-18.7V367.9z"/>
	</g>
	<g>
		
			<rect x="389" y="325.2" transform="matrix(-1 -4.490687e-11 4.490687e-11 -1 824.8401 663.3675)" class="st10" width="46.8" height="13"/>
		<path class="st2" d="M436.3,338.7h-47.8v-14h47.8V338.7z M389.5,337.7h45.8v-12h-45.8V337.7z"/>
	</g>
	<g>
		
			<rect x="389.7" y="341.3" transform="matrix(-1 -4.491175e-11 4.491175e-11 -1 824.8364 684.4962)" class="st4" width="45.4" height="1.9"/>
	</g>
	<g>
		
			<rect x="436.5" y="372" transform="matrix(-1 -4.487889e-11 4.487889e-11 -1 901.9152 745.8989)" class="st4" width="28.8" height="1.9"/>
	</g>
	<g>
		<g>
			
				<rect x="454.6" y="380.7" transform="matrix(-1 -4.472967e-11 4.472967e-11 -1 915.223 770.939)" class="st3" width="6" height="9.5"/>
			<path class="st2" d="M461.1,390.7h-7v-10.5h7V390.7z M455.1,389.7h5v-8.5h-5V389.7z"/>
		</g>
		<g>
			<g>
				
					<rect x="454.2" y="390.7" transform="matrix(-1 -4.500856e-11 4.500856e-11 -1 915.165 782.3206)" class="st6" width="6.8" height="1"/>
			</g>
		</g>
	</g>
	<g>
		<g>
			
				<rect x="422.3" y="380.7" transform="matrix(-1 -4.503388e-11 4.503388e-11 -1 850.5875 770.9125)" class="st3" width="6" height="9.5"/>
			<path class="st2" d="M428.8,390.7h-7v-10.5h7V390.7z M422.8,389.7h5v-8.5h-5V389.7z"/>
		</g>
		<g>
			<g>
				
					<rect x="421.8" y="390.7" transform="matrix(-1 -4.500856e-11 4.500856e-11 -1 850.5295 782.2941)" class="st6" width="6.8" height="1"/>
			</g>
		</g>
	</g>
	<g>
		<g>
			
				<rect x="409.3" y="380.7" transform="matrix(-1 -4.503388e-11 4.503388e-11 -1 824.6012 770.939)" class="st3" width="6" height="9.5"/>
			<path class="st2" d="M415.8,390.7h-7v-10.5h7V390.7z M409.8,389.7h5v-8.5h-5V389.7z"/>
		</g>
		<g>
			<g>
				
					<rect x="408.9" y="390.7" transform="matrix(-1 -4.500856e-11 4.500856e-11 -1 824.5433 782.3206)" class="st6" width="6.8" height="1"/>
			</g>
		</g>
	</g>
	<g>
		<g>
			
				<rect x="396.3" y="380.7" transform="matrix(-1 -4.503388e-11 4.503388e-11 -1 798.6149 770.8861)" class="st3" width="6" height="9.5"/>
			<path class="st2" d="M402.8,390.7h-7v-10.5h7V390.7z M396.8,389.7h5v-8.5h-5V389.7z"/>
		</g>
		<g>
			<g>
				
					<rect x="395.9" y="390.7" transform="matrix(-1 -4.474255e-11 4.474255e-11 -1 798.5569 782.2676)" class="st6" width="6.8" height="1"/>
			</g>
		</g>
	</g>
	<g>
		<g>
			
				<rect x="422.3" y="356.5" transform="matrix(-1 -4.503388e-11 4.503388e-11 -1 850.6454 722.39)" class="st3" width="6" height="9.5"/>
			<path class="st2" d="M428.8,366.4h-7V356h7V366.4z M422.8,365.4h5V357h-5V365.4z"/>
		</g>
		<g>
			<g>
				
					<rect x="421.9" y="366.4" transform="matrix(-1 -4.474255e-11 4.474255e-11 -1 850.5875 733.7714)" class="st6" width="6.8" height="1"/>
			</g>
		</g>
	</g>
	<g>
		<g>
			
				<rect x="409.3" y="356.5" transform="matrix(-1 -4.503388e-11 4.503388e-11 -1 824.6592 722.4164)" class="st3" width="6" height="9.5"/>
			<path class="st2" d="M415.8,366.4h-7V356h7V366.4z M409.8,365.4h5V357h-5V365.4z"/>
		</g>
		<g>
			<g>
				
					<rect x="408.9" y="366.4" transform="matrix(-1 -4.474255e-11 4.474255e-11 -1 824.6012 733.7979)" class="st6" width="6.8" height="1"/>
			</g>
		</g>
	</g>
	<g>
		<g>
			
				<rect x="396.3" y="356.5" transform="matrix(-1 -4.472967e-11 4.472967e-11 -1 798.6729 722.3635)" class="st3" width="6" height="9.5"/>
			<path class="st2" d="M402.8,366.4h-7V356h7V366.4z M396.8,365.4h5V357h-5V365.4z"/>
		</g>
		<g>
			<g>
				
					<rect x="395.9" y="366.4" transform="matrix(-1 -4.500856e-11 4.500856e-11 -1 798.6149 733.745)" class="st6" width="6.8" height="1"/>
			</g>
		</g>
	</g>
</g>
<g>
	<g>
		<g>
			<path class="st2" d="M3.9,386.4h0.3c1,0,1.7-0.8,1.7-1.7l0-7.9c0-1-0.8-1.7-1.7-1.7H3.9c-1,0-1.7,0.8-1.7,1.7v7.9
				C2.2,385.6,3,386.4,3.9,386.4z"/>
		</g>
		<g>
			<path class="st2" d="M29.6,386.6h0.3c1,0,1.7-0.8,1.7-1.7v-7.9c0-1-0.8-1.7-1.7-1.7h-0.3c-1,0-1.7,0.8-1.7,1.7v7.9
				C27.8,385.8,28.6,386.6,29.6,386.6z"/>
		</g>
		<g>
			<rect x="6.7" y="390.1" class="st2" width="3.4" height="8.8"/>
		</g>
		<g>
			<rect x="23.6" y="390.1" class="st2" width="3.4" height="8.8"/>
		</g>
		<g>
			<path class="st8" d="M4.6,395.1l24.6,0l0-21c0-4-3.3-7.3-7.3-7.3H11.9c-4,0-7.3,3.3-7.3,7.3L4.6,395.1z"/>
			<path class="st2" d="M29.7,395.6H4.1V374c0-4.3,3.5-7.8,7.8-7.8h10.1c4.3,0,7.8,3.5,7.8,7.8V395.6z M5.1,394.6h23.6V374
				c0-3.7-3-6.8-6.8-6.8H11.9c-3.7,0-6.8,3-6.8,6.8V394.6z"/>
		</g>
		<g>
			<rect x="4.6" y="375.3" class="st6" width="24.6" height="11.3"/>
			<path class="st2" d="M29.7,387.1H4.1v-12.3h25.6V387.1z M5.1,386.1h23.6v-10.3H5.1V386.1z"/>
		</g>
		<g>
			<rect x="12.2" y="369.2" class="st2" width="8.9" height="3.2"/>
		</g>
		<g>
			<circle class="st2" cx="8.4" cy="390" r="1.5"/>
		</g>
		<g>
			<circle class="st2" cx="25.3" cy="390" r="1.5"/>
		</g>
	</g>
	<g>
		<rect x="38.2" y="376.3" class="st2" width="1" height="22.6"/>
	</g>
	<g>
		<rect x="36.4" y="372" class="st3" width="4.6" height="14.4"/>
		<path class="st2" d="M41.5,386.9h-5.6v-15.4h5.6V386.9z M36.9,385.9h3.6v-13.4h-3.6V385.9z"/>
	</g>
</g>
</svg>
