<?xml version="1.0" encoding="utf-8"?>
<!-- Generator: Adobe Illustrator 20.1.0, SVG Export Plug-In . SVG Version: 6.00 Build 0)  -->
<svg version="1.1" id="Layer_1" xmlns="http://www.w3.org/2000/svg" xmlns:xlink="http://www.w3.org/1999/xlink" x="0px" y="0px"
	 viewBox="0 0 800 145.8" style="enable-background:new 0 0 800 145.8;" xml:space="preserve">
<style type="text/css">
	.st0{fill:#FFFFFF;}
	.st1{fill:#BBD769;}
	.st2{fill:#231F20;}
</style>
<g>
	<path class="st0" d="M115.8,104.2l-8.2,3.6c-2.9,1.3-6.4-0.1-7.7-3c-1.3-2.9,0.1-6.4,3-7.7c0.3-0.1,8.2-3.6,8.2-3.6
		c2.9-1.3,6.4,0.1,7.7,3C120.1,99.5,118.7,102.9,115.8,104.2z"/>
	<path class="st0" d="M116.5,81.8l-14.7,6.4c-2.9,1.3-6.4-0.1-7.7-3c-1.3-2.9,0.1-6.4,3-7.7l14.7-6.4c2.9-1.3,6.4,0.1,7.7,3
		C120.8,77.1,119.4,80.6,116.5,81.8z"/>
	<path class="st0" d="M112.8,61.4l-16.9,7.4c-2.9,1.3-6.4-0.1-7.7-3c-1.3-2.9,0.1-6.4,3-7.7l16.9-7.4c2.9-1.3,6.4,0.1,7.7,3
		C117,56.7,115.7,60.1,112.8,61.4z"/>
	<path class="st0" d="M136.2,29.1L87.8,50.2c-7.3,3.2-10.6,11.7-7.5,19c1.3,3.1,3.7,5.5,6.4,6.9c-2,3.8-2.4,8.4-0.5,12.6
		c1.3,3.1,3.7,5.5,6.4,6.9c-2,3.8-2.4,8.4-0.5,12.6c0.8,1.9,2,3.5,3.5,4.8l-0.3,0.1c-12,5.2-25.2,4.5-36.2-0.7c-0.6-0.5-1.3-0.9-2-1
		c-8.2-4.5-15.1-11.6-19.1-20.8c-4.6-10.7-4.8-22.5-0.6-33.3l19.1-43.9c1.2-3,4.6-4.5,7.5-3.3c4.3,1.7,4.5,6.1,4.3,8l-6.9,45.7
		c-0.4,2.3,1.3,4.5,3.6,4.9c0.8,0.1,1.6,0,2.4-0.3c1.3-0.6,2.3-1.8,2.5-3.3l3.2-21.3l58.5-25.4c0,0,0,0,0,0c2.9-1.3,6.4,0.1,7.6,3
		C140.5,24.4,139.1,27.8,136.2,29.1z"/>
	<path d="M127.3,10.4C127.3,10.4,127.3,10.4,127.3,10.4L73.8,33.7L76,19.2c0-0.1,0-0.2,0-0.2c0.7-7.8-3-14.3-9.7-17
		c-7.4-2.9-15.8,0.7-18.7,8L28.5,54c-0.3,0.8-0.6,1.7-0.9,2.6L3,67.3c-1.4,0.6-2.4,1.9-2.6,3.4c-0.2,1.5-4.3,37.8,26,59.7
		c1.2,0.9,2.8,1.1,4.2,0.5l24.3-10.6c13.1,6.1,28.6,6.8,42.8,0.6l20.6-9c7.3-3.2,10.7-11.7,7.5-19c-0.9-2.1-2.2-3.8-3.8-5.2
		c5.1-3.9,7.2-11,4.5-17.2c-1.2-2.7-3-4.8-5.3-6.3c2.9-4,3.7-9.4,1.6-14.2c-0.8-1.9-2-3.5-3.5-4.8l19.4-8.4c0,0,0,0,0,0
		c7.3-3.2,10.6-11.7,7.5-19C143.1,10.6,134.6,7.2,127.3,10.4z M45.8,114.9L29.5,122C9.1,105.8,8.4,81.8,8.8,74.2L25.3,67
		c-1.1,9.1,0.2,18.3,3.9,26.9C32.9,102.5,38.8,109.6,45.8,114.9z M115,104.1l-8.2,3.6c-2.9,1.3-6.4-0.1-7.7-3
		c-1.3-2.9,0.1-6.4,3-7.7c0.3-0.1,8.2-3.6,8.2-3.6c2.9-1.3,6.4,0.1,7.7,3C119.3,99.4,117.9,102.8,115,104.1z M115.6,81.7l-14.7,6.4
		c-2.9,1.3-6.4-0.1-7.7-3c-1.3-2.9,0.1-6.4,3-7.7L111,71c2.9-1.3,6.4,0.1,7.7,3C119.9,77,118.6,80.4,115.6,81.7z M111.9,61.2
		L95,68.6c-2.9,1.3-6.4-0.1-7.7-3c-1.3-2.9,0.1-6.4,3-7.7l16.9-7.4c2.9-1.3,6.4,0.1,7.7,3C116.2,56.5,114.9,60,111.9,61.2z
		 M135.4,29L86.9,50c-7.3,3.2-10.6,11.7-7.5,19c1.3,3.1,3.7,5.5,6.4,6.9c-2,3.8-2.4,8.4-0.5,12.6c1.3,3.1,3.7,5.5,6.4,6.9
		c-2,3.8-2.4,8.4-0.5,12.6c0.8,1.9,2,3.5,3.5,4.8l-0.3,0.1c-12,5.2-25.2,4.5-36.2-0.7c-0.6-0.5-1.3-0.9-2-1
		c-8.2-4.5-15.1-11.6-19.1-20.8c-4.6-10.7-4.8-22.5-0.6-33.3l19.1-43.9c1.2-3,4.6-4.5,7.5-3.3c4.3,1.7,4.5,6.1,4.3,8l-6.9,45.7
		c-0.4,2.3,1.3,4.5,3.6,4.9c0.8,0.1,1.6,0,2.4-0.3c1.3-0.6,2.3-1.8,2.5-3.3l3.2-21.3l58.5-25.4c0,0,0,0,0,0c2.9-1.3,6.4,0.1,7.6,3
		C139.7,24.3,138.3,27.7,135.4,29z"/>
	<path class="st1" d="M45.8,114.9L29.5,122C9.1,105.8,8.4,81.8,8.8,74.2L25.3,67c-1.1,9.1,0.2,18.3,3.9,26.9
		C32.9,102.5,38.8,109.6,45.8,114.9z"/>
</g>
<g>
	<path class="st2" d="M169.4,84.6c0-10.5,2.3-18.8,6.8-24.8c4.5-6,10.9-9.1,19-9.1c5.9,0,10.9,2.3,15,7V24.1h20.7v94.1h-18.6l-1-7.1
		c-4.2,5.6-9.6,8.3-16.2,8.3c-7.9,0-14.1-3-18.8-9.1C171.7,104.3,169.4,95.7,169.4,84.6z M190.1,85.9c0,11.8,3.4,17.6,10.3,17.6
		c4.6,0,7.8-1.9,9.8-5.8V72.5c-1.9-3.9-5.1-5.9-9.7-5.9c-6.4,0-9.8,5.1-10.4,15.4L190.1,85.9z"/>
	<path class="st2" d="M280,118.2c-0.7-1.3-1.4-3.3-2-5.9c-3.8,4.8-9.1,7.2-15.9,7.2c-6.3,0-11.6-1.9-15.9-5.7
		c-4.4-3.8-6.6-8.5-6.6-14.2c0-7.2,2.7-12.6,8-16.3c5.3-3.7,13-5.5,23.2-5.5h6.4v-3.5c0-6.1-2.6-9.2-7.9-9.2c-4.9,0-7.4,2.4-7.4,7.3
		h-20.7c0-6.4,2.7-11.6,8.2-15.6s12.4-6,20.9-6s15.1,2.1,20,6.2c4.9,4.1,7.4,9.8,7.5,17v29.4c0.1,6.1,1,10.7,2.8,14v1H280z
		 M267,104.7c2.6,0,4.7-0.6,6.4-1.7c1.7-1.1,2.9-2.3,3.6-3.7V88.7h-6c-7.2,0-10.8,3.2-10.8,9.7c0,1.9,0.6,3.4,1.9,4.6
		C263.5,104.1,265.1,104.7,267,104.7z"/>
	<path class="st2" d="M333.3,35.4v16.5h10.9v14.3h-10.9v30.3c0,2.5,0.4,4.2,1.3,5.2c0.9,1,2.7,1.5,5.3,1.5c2,0,3.8-0.1,5.1-0.4v14.8
		c-3.7,1.2-7.6,1.8-11.6,1.8c-7.1,0-12.4-1.7-15.7-5c-3.4-3.3-5.1-8.4-5.1-15.3V66.2h-8.5V51.9h8.5V35.4H333.3z"/>
	<path class="st2" d="M384.4,119.4c-10.2,0-18.4-3-24.7-9.1c-6.3-6.1-9.4-14-9.4-23.7v-1.7c0-6.8,1.3-12.8,3.8-18
		c2.5-5.2,6.2-9.2,11-12c4.8-2.8,10.5-4.3,17.2-4.3c9.3,0,16.7,2.9,22.1,8.7c5.4,5.8,8.1,13.8,8.1,24.2v8h-41.1
		c0.7,3.7,2.3,6.6,4.8,8.8c2.5,2.1,5.7,3.2,9.7,3.2c6.5,0,11.6-2.3,15.3-6.9l9.4,11.2c-2.6,3.6-6.2,6.4-10.9,8.5
		S389.8,119.4,384.4,119.4z M382.1,66.6c-6,0-9.6,4-10.8,12h20.8V77c0.1-3.3-0.8-5.9-2.5-7.7C387.8,67.5,385.3,66.6,382.1,66.6z"/>
	<path class="st2" d="M439.6,51.9l0.7,7.8c4.6-6,10.9-9,18.9-9c6.9,0,12.1,2.1,15.5,6.2c3.4,4.1,5.2,10.3,5.3,18.6v42.7h-20.7V76.4
		c0-3.3-0.7-5.8-2-7.4c-1.3-1.6-3.8-2.4-7.4-2.4c-4,0-7,1.6-9,4.8v46.8h-20.7V51.9H439.6z"/>
	<path class="st2" d="M489,84.6c0-6.7,1.1-12.6,3.3-17.8c2.2-5.1,5.4-9.1,9.5-11.9c4.1-2.8,8.9-4.2,14.4-4.2c6.9,0,12.3,2.3,16.2,7
		l0.7-5.8h18.8v63.8c0,5.8-1.4,10.9-4.1,15.2c-2.7,4.3-6.6,7.6-11.8,9.9c-5.1,2.3-11.1,3.5-17.9,3.5c-4.9,0-9.6-0.9-14.1-2.8
		c-4.6-1.8-8-4.2-10.4-7.2l8.6-12.1c3.8,4.5,8.9,6.8,15.2,6.8c9.2,0,13.7-4.7,13.7-14.1v-2.1c-4,4.4-9,6.6-15,6.6
		c-8.1,0-14.6-3.1-19.6-9.3S489,95.7,489,85.3V84.6z M509.7,85.9c0,5.4,1,9.7,3.1,12.9c2,3.2,4.9,4.7,8.6,4.7c4.5,0,7.7-1.5,9.7-4.5
		V71.1c-2-3-5.2-4.5-9.6-4.5c-3.7,0-6.6,1.6-8.6,4.9C510.7,74.8,509.7,79.6,509.7,85.9z"/>
	<path class="st2" d="M603.1,111c-4.4,5.6-10.3,8.4-17.7,8.4c-7.3,0-12.8-2.1-16.5-6.3s-5.6-10.3-5.6-18.2v-43h20.7V95
		c0,5.7,2.8,8.5,8.3,8.5c4.7,0,8.1-1.7,10.1-5.1V51.9h20.8v66.3h-19.4L603.1,111z"/>
	<path class="st2" d="M634.2,34.8c0-2.9,1.1-5.4,3.2-7.2c2.1-1.9,4.9-2.8,8.3-2.8c3.4,0,6.1,0.9,8.3,2.8c2.1,1.9,3.2,4.3,3.2,7.2
		c0,2.9-1.1,5.4-3.2,7.2c-2.1,1.9-4.9,2.8-8.3,2.8c-3.4,0-6.1-0.9-8.3-2.8C635.3,40.2,634.2,37.7,634.2,34.8z M656.2,118.2h-20.7
		V51.9h20.7V118.2z"/>
	<path class="st2" d="M666.3,84.6c0-10.5,2.3-18.8,6.8-24.8c4.5-6,10.9-9.1,19-9.1c5.9,0,10.9,2.3,15,7V24.1h20.7v94.1h-18.6l-1-7.1
		c-4.2,5.6-9.6,8.3-16.2,8.3c-7.9,0-14.1-3-18.8-9.1C668.6,104.3,666.3,95.7,666.3,84.6z M686.9,85.9c0,11.8,3.4,17.6,10.3,17.6
		c4.6,0,7.8-1.9,9.8-5.8V72.5c-1.9-3.9-5.1-5.9-9.7-5.9c-6.4,0-9.8,5.1-10.4,15.4L686.9,85.9z"/>
	<path class="st2" d="M771.6,119.4c-10.2,0-18.4-3-24.7-9.1c-6.3-6.1-9.4-14-9.4-23.7v-1.7c0-6.8,1.3-12.8,3.8-18
		c2.5-5.2,6.2-9.2,11-12c4.8-2.8,10.5-4.3,17.2-4.3c9.3,0,16.7,2.9,22.1,8.7c5.4,5.8,8.1,13.8,8.1,24.2v8h-41.1
		c0.7,3.7,2.3,6.6,4.8,8.8c2.5,2.1,5.7,3.2,9.7,3.2c6.5,0,11.6-2.3,15.3-6.9l9.4,11.2c-2.6,3.6-6.2,6.4-10.9,8.5
		S777,119.4,771.6,119.4z M769.2,66.6c-6,0-9.6,4-10.8,12h20.8V77c0.1-3.3-0.8-5.9-2.5-7.7C775,67.5,772.5,66.6,769.2,66.6z"/>
</g>
</svg>
