<?xml version="1.0" encoding="utf-8"?>
<!-- Generator: Adobe Illustrator 20.1.0, SVG Export Plug-In . SVG Version: 6.00 Build 0)  -->
<svg version="1.1" id="Layer_1" xmlns="http://www.w3.org/2000/svg" xmlns:xlink="http://www.w3.org/1999/xlink" x="0px" y="0px"
	 viewBox="0 0 147 129.2" style="enable-background:new 0 0 147 129.2;" xml:space="preserve">
<style type="text/css">
	.st0{fill:#FFFFFF;}
	.st1{fill:#BBD769;}
</style>
<g>
	<path class="st0" d="M115.4,102.2l-8.2,3.6c-2.9,1.3-6.4-0.1-7.7-3c-1.3-2.9,0.1-6.4,3-7.7c0.3-0.1,8.2-3.6,8.2-3.6
		c2.9-1.3,6.4,0.1,7.7,3C119.7,97.5,118.3,100.9,115.4,102.2z"/>
	<path class="st0" d="M116.1,79.8l-14.7,6.4c-2.9,1.3-6.4-0.1-7.7-3c-1.3-2.9,0.1-6.4,3-7.7l14.7-6.4c2.9-1.3,6.4,0.1,7.7,3
		C120.4,75.1,119,78.6,116.1,79.8z"/>
	<path class="st0" d="M112.4,59.4l-16.9,7.4c-2.9,1.3-6.4-0.1-7.7-3c-1.3-2.9,0.1-6.4,3-7.7l16.9-7.4c2.9-1.3,6.4,0.1,7.7,3
		C116.6,54.7,115.3,58.1,112.4,59.4z"/>
	<path class="st0" d="M135.8,27.1L87.4,48.2c-7.3,3.2-10.6,11.7-7.5,19c1.3,3.1,3.7,5.5,6.4,6.9c-2,3.8-2.4,8.4-0.5,12.6
		c1.3,3.1,3.7,5.5,6.4,6.9c-2,3.8-2.4,8.4-0.5,12.6c0.8,1.9,2,3.5,3.5,4.8l-0.3,0.1c-12,5.2-25.2,4.5-36.2-0.7c-0.6-0.5-1.3-0.9-2-1
		c-8.2-4.5-15.1-11.6-19.1-20.8C33,77.9,32.8,66.1,37,55.3l19.1-43.9c1.2-3,4.6-4.5,7.5-3.3c4.3,1.7,4.5,6.1,4.3,8L61,61.8
		c-0.4,2.3,1.3,4.5,3.6,4.9c0.8,0.1,1.6,0,2.4-0.3c1.3-0.6,2.3-1.8,2.5-3.3l3.2-21.3l58.5-25.4l0,0c2.9-1.3,6.4,0.1,7.6,3
		C140.1,22.4,138.7,25.8,135.8,27.1z"/>
	<path d="M126.9,8.4L126.9,8.4L73.4,31.7l2.2-14.5c0-0.1,0-0.2,0-0.2c0.7-7.8-3-14.3-9.7-17c-7.4-2.9-15.8,0.7-18.7,8L28.1,52
		c-0.3,0.8-0.6,1.7-0.9,2.6L2.6,65.3c-1.4,0.6-2.4,1.9-2.6,3.4s-4.3,37.8,26,59.7c1.2,0.9,2.8,1.1,4.2,0.5l24.3-10.6
		c13.1,6.1,28.6,6.8,42.8,0.6l20.6-9c7.3-3.2,10.7-11.7,7.5-19c-0.9-2.1-2.2-3.8-3.8-5.2c5.1-3.9,7.2-11,4.5-17.2
		c-1.2-2.7-3-4.8-5.3-6.3c2.9-4,3.7-9.4,1.6-14.2c-0.8-1.9-2-3.5-3.5-4.8l19.4-8.4l0,0c7.3-3.2,10.6-11.7,7.5-19
		C142.7,8.6,134.2,5.2,126.9,8.4z M45.4,112.9L29.1,120C8.7,103.8,8,79.8,8.4,72.2L24.9,65c-1.1,9.1,0.2,18.3,3.9,26.9
		S38.4,107.6,45.4,112.9z M114.6,102.1l-8.2,3.6c-2.9,1.3-6.4-0.1-7.7-3c-1.3-2.9,0.1-6.4,3-7.7c0.3-0.1,8.2-3.6,8.2-3.6
		c2.9-1.3,6.4,0.1,7.7,3C118.9,97.4,117.5,100.8,114.6,102.1z M115.2,79.7l-14.7,6.4c-2.9,1.3-6.4-0.1-7.7-3c-1.3-2.9,0.1-6.4,3-7.7
		l14.8-6.4c2.9-1.3,6.4,0.1,7.7,3C119.5,75,118.2,78.4,115.2,79.7z M111.5,59.2l-16.9,7.4c-2.9,1.3-6.4-0.1-7.7-3
		c-1.3-2.9,0.1-6.4,3-7.7l16.9-7.4c2.9-1.3,6.4,0.1,7.7,3C115.8,54.5,114.5,58,111.5,59.2z M135,27L86.5,48
		c-7.3,3.2-10.6,11.7-7.5,19c1.3,3.1,3.7,5.5,6.4,6.9c-2,3.8-2.4,8.4-0.5,12.6c1.3,3.1,3.7,5.5,6.4,6.9c-2,3.8-2.4,8.4-0.5,12.6
		c0.8,1.9,2,3.5,3.5,4.8l-0.3,0.1c-12,5.2-25.2,4.5-36.2-0.7c-0.6-0.5-1.3-0.9-2-1c-8.2-4.5-15.1-11.6-19.1-20.8
		c-4.6-10.7-4.8-22.5-0.6-33.3l19.1-43.9c1.2-3,4.6-4.5,7.5-3.3c4.3,1.7,4.5,6.1,4.3,8l-6.9,45.7c-0.4,2.3,1.3,4.5,3.6,4.9
		c0.8,0.1,1.6,0,2.4-0.3c1.3-0.6,2.3-1.8,2.5-3.3l3.2-21.3l58.5-25.4l0,0c2.9-1.3,6.4,0.1,7.6,3C139.3,22.3,137.9,25.7,135,27z"/>
	<path class="st1" d="M45.4,112.9L29.1,120C8.7,103.8,8,79.8,8.4,72.2L24.9,65c-1.1,9.1,0.2,18.3,3.9,26.9S38.4,107.6,45.4,112.9z"
		/>
</g>
</svg>
