<?xml version="1.0" encoding="utf-8"?>
<!-- Generator: Adobe Illustrator 20.1.0, SVG Export Plug-In . SVG Version: 6.00 Build 0)  -->
<svg version="1.1" id="Layer_1" xmlns="http://www.w3.org/2000/svg" xmlns:xlink="http://www.w3.org/1999/xlink" x="0px" y="0px"
	 viewBox="0 0 220 220" style="enable-background:new 0 0 220 220;" xml:space="preserve">
<style type="text/css">
	.st0{fill:#FFFFFF;}
	.st1{fill:#BBD769;}
</style>
<g>
	<path class="st0" d="M149.8,144.2l-8.2,3.6c-2.9,1.3-6.4-0.1-7.7-3c-1.3-2.9,0.1-6.4,3-7.7c0.3-0.1,8.2-3.6,8.2-3.6
		c2.9-1.3,6.4,0.1,7.7,3C154.1,139.5,152.7,142.9,149.8,144.2z"/>
	<path class="st0" d="M150.5,121.8l-14.7,6.4c-2.9,1.3-6.4-0.1-7.7-3c-1.3-2.9,0.1-6.4,3-7.7l14.7-6.4c2.9-1.3,6.4,0.1,7.7,3
		C154.8,117.1,153.4,120.6,150.5,121.8z"/>
	<path class="st0" d="M146.8,101.4l-16.9,7.4c-2.9,1.3-6.4-0.1-7.7-3c-1.3-2.9,0.1-6.4,3-7.7l16.9-7.4c2.9-1.3,6.4,0.1,7.7,3
		C151,96.7,149.7,100.1,146.8,101.4z"/>
	<path class="st0" d="M170.2,69.1l-48.4,21.1c-7.3,3.2-10.6,11.7-7.5,19c1.3,3.1,3.7,5.5,6.4,6.9c-2,3.8-2.4,8.4-0.5,12.6
		c1.3,3.1,3.7,5.5,6.4,6.9c-2,3.8-2.4,8.4-0.5,12.6c0.8,1.9,2,3.5,3.5,4.8l-0.3,0.1c-12,5.2-25.2,4.5-36.2-0.7c-0.6-0.5-1.3-0.9-2-1
		c-8.2-4.5-15.1-11.6-19.1-20.8c-4.6-10.7-4.8-22.5-0.6-33.3l19.1-43.9c1.2-3,4.6-4.5,7.5-3.3c4.3,1.7,4.5,6.1,4.3,8l-6.9,45.7
		c-0.4,2.3,1.3,4.5,3.6,4.9c0.8,0.1,1.6,0,2.4-0.3c1.3-0.6,2.3-1.8,2.5-3.3l3.2-21.3l58.5-25.4l0,0c2.9-1.3,6.4,0.1,7.6,3
		C174.5,64.4,173.1,67.8,170.2,69.1z"/>
	<path d="M161.3,50.4L161.3,50.4l-53.5,23.3l2.2-14.5c0-0.1,0-0.2,0-0.2c0.7-7.8-3-14.3-9.7-17c-7.4-2.9-15.8,0.7-18.7,8L62.5,94
		c-0.3,0.8-0.6,1.7-0.9,2.6L37,107.3c-1.4,0.6-2.4,1.9-2.6,3.4c-0.2,1.5-4.3,37.8,26,59.7c1.2,0.9,2.8,1.1,4.2,0.5l24.3-10.6
		c13.1,6.1,28.6,6.8,42.8,0.6l20.6-9c7.3-3.2,10.7-11.7,7.5-19c-0.9-2.1-2.2-3.8-3.8-5.2c5.1-3.9,7.2-11,4.5-17.2
		c-1.2-2.7-3-4.8-5.3-6.3c2.9-4,3.7-9.4,1.6-14.2c-0.8-1.9-2-3.5-3.5-4.8l19.4-8.4l0,0c7.3-3.2,10.6-11.7,7.5-19
		C177.1,50.6,168.6,47.2,161.3,50.4z M79.8,154.9L63.5,162c-20.4-16.2-21.1-40.2-20.7-47.8l16.5-7.2c-1.1,9.1,0.2,18.3,3.9,26.9
		C66.9,142.5,72.8,149.6,79.8,154.9z M149,144.1l-8.2,3.6c-2.9,1.3-6.4-0.1-7.7-3c-1.3-2.9,0.1-6.4,3-7.7c0.3-0.1,8.2-3.6,8.2-3.6
		c2.9-1.3,6.4,0.1,7.7,3C153.3,139.4,151.9,142.8,149,144.1z M149.6,121.7l-14.7,6.4c-2.9,1.3-6.4-0.1-7.7-3c-1.3-2.9,0.1-6.4,3-7.7
		L145,111c2.9-1.3,6.4,0.1,7.7,3C153.9,117,152.6,120.4,149.6,121.7z M145.9,101.2l-16.9,7.4c-2.9,1.3-6.4-0.1-7.7-3
		c-1.3-2.9,0.1-6.4,3-7.7l16.9-7.4c2.9-1.3,6.4,0.1,7.7,3C150.2,96.5,148.9,100,145.9,101.2z M169.4,69l-48.5,21
		c-7.3,3.2-10.6,11.7-7.5,19c1.3,3.1,3.7,5.5,6.4,6.9c-2,3.8-2.4,8.4-0.5,12.6c1.3,3.1,3.7,5.5,6.4,6.9c-2,3.8-2.4,8.4-0.5,12.6
		c0.8,1.9,2,3.5,3.5,4.8l-0.3,0.1c-12,5.2-25.2,4.5-36.2-0.7c-0.6-0.5-1.3-0.9-2-1c-8.2-4.5-15.1-11.6-19.1-20.8
		c-4.6-10.7-4.8-22.5-0.6-33.3l19.1-43.9c1.2-3,4.6-4.5,7.5-3.3c4.3,1.7,4.5,6.1,4.3,8l-6.9,45.7c-0.4,2.3,1.3,4.5,3.6,4.9
		c0.8,0.1,1.6,0,2.4-0.3c1.3-0.6,2.3-1.8,2.5-3.3l3.2-21.3l58.5-25.4l0,0c2.9-1.3,6.4,0.1,7.6,3C173.7,64.3,172.3,67.7,169.4,69z"/>
	<path class="st1" d="M79.8,154.9L63.5,162c-20.4-16.2-21.1-40.2-20.7-47.8l16.5-7.2c-1.1,9.1,0.2,18.3,3.9,26.9
		C66.9,142.5,72.8,149.6,79.8,154.9z"/>
</g>
</svg>
