<?xml version="1.0" encoding="utf-8"?>
<!-- Generator: Adobe Illustrator 20.1.0, SVG Export Plug-In . SVG Version: 6.00 Build 0)  -->
<svg version="1.1" id="Layer_1" xmlns="http://www.w3.org/2000/svg" xmlns:xlink="http://www.w3.org/1999/xlink" x="0px" y="0px"
	 viewBox="0 0 800 145.8" style="enable-background:new 0 0 800 145.8;" xml:space="preserve">
<style type="text/css">
	.st0{fill:#FFFFFF;}
	.st1{fill:#BBD769;}
	.st2{fill:#231F20;}
	.st3{font-family:'Roboto-Black';}
	.st4{font-size:125.5045px;}
	.st5{letter-spacing:-2;}
</style>
<g>
	<path class="st0" d="M115.8,104.2l-8.2,3.6c-2.9,1.3-6.4-0.1-7.7-3c-1.3-2.9,0.1-6.4,3-7.7c0.3-0.1,8.2-3.6,8.2-3.6
		c2.9-1.3,6.4,0.1,7.7,3C120.1,99.5,118.7,102.9,115.8,104.2z"/>
	<path class="st0" d="M116.5,81.8l-14.7,6.4c-2.9,1.3-6.4-0.1-7.7-3c-1.3-2.9,0.1-6.4,3-7.7l14.7-6.4c2.9-1.3,6.4,0.1,7.7,3
		C120.8,77.1,119.4,80.6,116.5,81.8z"/>
	<path class="st0" d="M112.8,61.4l-16.9,7.4c-2.9,1.3-6.4-0.1-7.7-3c-1.3-2.9,0.1-6.4,3-7.7l16.9-7.4c2.9-1.3,6.4,0.1,7.7,3
		C117,56.7,115.7,60.1,112.8,61.4z"/>
	<path class="st0" d="M136.2,29.1L87.8,50.2c-7.3,3.2-10.6,11.7-7.5,19c1.3,3.1,3.7,5.5,6.4,6.9c-2,3.8-2.4,8.4-0.5,12.6
		c1.3,3.1,3.7,5.5,6.4,6.9c-2,3.8-2.4,8.4-0.5,12.6c0.8,1.9,2,3.5,3.5,4.8l-0.3,0.1c-12,5.2-25.2,4.5-36.2-0.7c-0.6-0.5-1.3-0.9-2-1
		c-8.2-4.5-15.1-11.6-19.1-20.8c-4.6-10.7-4.8-22.5-0.6-33.3l19.1-43.9c1.2-3,4.6-4.5,7.5-3.3c4.3,1.7,4.5,6.1,4.3,8l-6.9,45.7
		c-0.4,2.3,1.3,4.5,3.6,4.9c0.8,0.1,1.6,0,2.4-0.3c1.3-0.6,2.3-1.8,2.5-3.3l3.2-21.3l58.5-25.4c0,0,0,0,0,0c2.9-1.3,6.4,0.1,7.6,3
		C140.5,24.4,139.1,27.8,136.2,29.1z"/>
	<path d="M127.3,10.4C127.3,10.4,127.3,10.4,127.3,10.4L73.8,33.7L76,19.2c0-0.1,0-0.2,0-0.2c0.7-7.8-3-14.3-9.7-17
		c-7.4-2.9-15.8,0.7-18.7,8L28.5,54c-0.3,0.8-0.6,1.7-0.9,2.6L3,67.3c-1.4,0.6-2.4,1.9-2.6,3.4c-0.2,1.5-4.3,37.8,26,59.7
		c1.2,0.9,2.8,1.1,4.2,0.5l24.3-10.6c13.1,6.1,28.6,6.8,42.8,0.6l20.6-9c7.3-3.2,10.7-11.7,7.5-19c-0.9-2.1-2.2-3.8-3.8-5.2
		c5.1-3.9,7.2-11,4.5-17.2c-1.2-2.7-3-4.8-5.3-6.3c2.9-4,3.7-9.4,1.6-14.2c-0.8-1.9-2-3.5-3.5-4.8l19.4-8.4c0,0,0,0,0,0
		c7.3-3.2,10.6-11.7,7.5-19C143.1,10.6,134.6,7.2,127.3,10.4z M45.8,114.9L29.5,122C9.1,105.8,8.4,81.8,8.8,74.2L25.3,67
		c-1.1,9.1,0.2,18.3,3.9,26.9C32.9,102.5,38.8,109.6,45.8,114.9z M115,104.1l-8.2,3.6c-2.9,1.3-6.4-0.1-7.7-3
		c-1.3-2.9,0.1-6.4,3-7.7c0.3-0.1,8.2-3.6,8.2-3.6c2.9-1.3,6.4,0.1,7.7,3C119.3,99.4,117.9,102.8,115,104.1z M115.6,81.7l-14.7,6.4
		c-2.9,1.3-6.4-0.1-7.7-3c-1.3-2.9,0.1-6.4,3-7.7L111,71c2.9-1.3,6.4,0.1,7.7,3C119.9,77,118.6,80.4,115.6,81.7z M111.9,61.2
		L95,68.6c-2.9,1.3-6.4-0.1-7.7-3c-1.3-2.9,0.1-6.4,3-7.7l16.9-7.4c2.9-1.3,6.4,0.1,7.7,3C116.2,56.5,114.9,60,111.9,61.2z
		 M135.4,29L86.9,50c-7.3,3.2-10.6,11.7-7.5,19c1.3,3.1,3.7,5.5,6.4,6.9c-2,3.8-2.4,8.4-0.5,12.6c1.3,3.1,3.7,5.5,6.4,6.9
		c-2,3.8-2.4,8.4-0.5,12.6c0.8,1.9,2,3.5,3.5,4.8l-0.3,0.1c-12,5.2-25.2,4.5-36.2-0.7c-0.6-0.5-1.3-0.9-2-1
		c-8.2-4.5-15.1-11.6-19.1-20.8c-4.6-10.7-4.8-22.5-0.6-33.3l19.1-43.9c1.2-3,4.6-4.5,7.5-3.3c4.3,1.7,4.5,6.1,4.3,8l-6.9,45.7
		c-0.4,2.3,1.3,4.5,3.6,4.9c0.8,0.1,1.6,0,2.4-0.3c1.3-0.6,2.3-1.8,2.5-3.3l3.2-21.3l58.5-25.4c0,0,0,0,0,0c2.9-1.3,6.4,0.1,7.6,3
		C139.7,24.3,138.3,27.7,135.4,29z"/>
	<path class="st1" d="M45.8,114.9L29.5,122C9.1,105.8,8.4,81.8,8.8,74.2L25.3,67c-1.1,9.1,0.2,18.3,3.9,26.9
		C32.9,102.5,38.8,109.6,45.8,114.9z"/>
</g>
<text transform="matrix(1 0 0 1 166.2217 118.2068)"><tspan x="0" y="0" class="st2 st3 st4">datenguid</tspan><tspan x="567.5" y="0" class="st2 st3 st4 st5">e</tspan></text>
</svg>
